  0
SECTION
  2
HEADER
  9
$ACADVER
  1
AC1027
  9
$ACADMAINTVER
 70
105
  9
$DWGCODEPAGE
  3
ANSI_1252
  9
$LASTSAVEDBY
  1
ezdxf
  9
$REQUIREDVERSIONS
160
0
  9
$INSBASE
 10
0.0
 20
0.0
 30
0.0
  9
$EXTMIN
 10
1e+20
 20
1e+20
 30
1e+20
  9
$EXTMAX
 10
-1e+20
 20
-1e+20
 30
-1e+20
  9
$LIMMIN
 10
0.0
 20
0.0
  9
$LIMMAX
 10
420.0
 20
297.0
  9
$ORTHOMODE
 70
0
  9
$REGENMODE
 70
1
  9
$FILLMODE
 70
1
  9
$QTEXTMODE
 70
0
  9
$MIRRTEXT
 70
1
  9
$LTSCALE
 40
1.0
  9
$ATTMODE
 70
1
  9
$TEXTSIZE
 40
2.5
  9
$TRACEWID
 40
1.0
  9
$TEXTSTYLE
  7
Standard
  9
$CLAYER
  8
0
  9
$CELTYPE
  6
ByLayer
  9
$CECOLOR
 62
256
  9
$CELTSCALE
 40
1.0
  9
$DISPSILH
 70
0
  9
$DIMSCALE
 40
1.0
  9
$DIMASZ
 40
2.5
  9
$DIMEXO
 40
0.625
  9
$DIMDLI
 40
3.75
  9
$DIMRND
 40
0.0
  9
$DIMDLE
 40
0.0
  9
$DIMEXE
 40
1.25
  9
$DIMTP
 40
0.0
  9
$DIMTM
 40
0.0
  9
$DIMTXT
 40
2.5
  9
$DIMCEN
 40
2.5
  9
$DIMTSZ
 40
0.0
  9
$DIMTOL
 70
0
  9
$DIMLIM
 70
0
  9
$DIMTIH
 70
0
  9
$DIMTOH
 70
0
  9
$DIMSE1
 70
0
  9
$DIMSE2
 70
0
  9
$DIMTAD
 70
1
  9
$DIMZIN
 70
8
  9
$DIMBLK
  1

  9
$DIMASO
 70
1
  9
$DIMSHO
 70
1
  9
$DIMPOST
  1

  9
$DIMAPOST
  1

  9
$DIMALT
 70
0
  9
$DIMALTD
 70
3
  9
$DIMALTF
 40
0.03937007874
  9
$DIMLFAC
 40
1.0
  9
$DIMTOFL
 70
1
  9
$DIMTVP
 40
0.0
  9
$DIMTIX
 70
0
  9
$DIMSOXD
 70
0
  9
$DIMSAH
 70
0
  9
$DIMBLK1
  1

  9
$DIMBLK2
  1

  9
$DIMSTYLE
  2
ISO-25
  9
$DIMCLRD
 70
0
  9
$DIMCLRE
 70
0
  9
$DIMCLRT
 70
0
  9
$DIMTFAC
 40
1.0
  9
$DIMGAP
 40
0.625
  9
$DIMJUST
 70
0
  9
$DIMSD1
 70
0
  9
$DIMSD2
 70
0
  9
$DIMTOLJ
 70
0
  9
$DIMTZIN
 70
8
  9
$DIMALTZ
 70
0
  9
$DIMALTTZ
 70
0
  9
$DIMUPT
 70
0
  9
$DIMDEC
 70
2
  9
$DIMTDEC
 70
2
  9
$DIMALTU
 70
2
  9
$DIMALTTD
 70
3
  9
$DIMTXSTY
  7
Standard
  9
$DIMAUNIT
 70
0
  9
$DIMADEC
 70
0
  9
$DIMALTRND
 40
0.0
  9
$DIMAZIN
 70
0
  9
$DIMDSEP
 70
44
  9
$DIMATFIT
 70
3
  9
$DIMFRAC
 70
0
  9
$DIMLDRBLK
  1

  9
$DIMLUNIT
 70
2
  9
$DIMLWD
 70
-2
  9
$DIMLWE
 70
-2
  9
$DIMTMOVE
 70
0
  9
$DIMFXL
 40
1.0
  9
$DIMFXLON
 70
0
  9
$DIMJOGANG
 40
0.785398163397
  9
$DIMTFILL
 70
0
  9
$DIMTFILLCLR
 70
0
  9
$DIMARCSYM
 70
0
  9
$DIMLTYPE
  6

  9
$DIMLTEX1
  6

  9
$DIMLTEX2
  6

  9
$DIMTXTDIRECTION
 70
0
  9
$LUNITS
 70
2
  9
$LUPREC
 70
4
  9
$SKETCHINC
 40
1.0
  9
$FILLETRAD
 40
10.0
  9
$AUNITS
 70
0
  9
$AUPREC
 70
2
  9
$MENU
  1
.
  9
$ELEVATION
 40
0.0
  9
$PELEVATION
 40
0.0
  9
$THICKNESS
 40
0.0
  9
$LIMCHECK
 70
0
  9
$CHAMFERA
 40
0.0
  9
$CHAMFERB
 40
0.0
  9
$CHAMFERC
 40
0.0
  9
$CHAMFERD
 40
0.0
  9
$SKPOLY
 70
0
  9
$TDCREATE
 40
2460187.43625
  9
$TDUCREATE
 40
2458532.153996898
  9
$TDUPDATE
 40
2460187.43625
  9
$TDUUPDATE
 40
2458532.1544311
  9
$TDINDWG
 40
0.0
  9
$TDUSRTIMER
 40
0.0
  9
$USRTIMER
 70
1
  9
$ANGBASE
 50
0.0
  9
$ANGDIR
 70
0
  9
$PDMODE
 70
0
  9
$PDSIZE
 40
0.0
  9
$PLINEWID
 40
0.0
  9
$SPLFRAME
 70
0
  9
$SPLINETYPE
 70
6
  9
$SPLINESEGS
 70
8
  9
$HANDSEED
  5
BA
  9
$SURFTAB1
 70
6
  9
$SURFTAB2
 70
6
  9
$SURFTYPE
 70
6
  9
$SURFU
 70
6
  9
$SURFV
 70
6
  9
$UCSBASE
  2

  9
$UCSNAME
  2

  9
$UCSORG
 10
0.0
 20
0.0
 30
0.0
  9
$UCSXDIR
 10
1.0
 20
0.0
 30
0.0
  9
$UCSYDIR
 10
0.0
 20
1.0
 30
0.0
  9
$UCSORTHOREF
  2

  9
$UCSORTHOVIEW
 70
0
  9
$UCSORGTOP
 10
0.0
 20
0.0
 30
0.0
  9
$UCSORGBOTTOM
 10
0.0
 20
0.0
 30
0.0
  9
$UCSORGLEFT
 10
0.0
 20
0.0
 30
0.0
  9
$UCSORGRIGHT
 10
0.0
 20
0.0
 30
0.0
  9
$UCSORGFRONT
 10
0.0
 20
0.0
 30
0.0
  9
$UCSORGBACK
 10
0.0
 20
0.0
 30
0.0
  9
$PUCSBASE
  2

  9
$PUCSNAME
  2

  9
$PUCSORG
 10
0.0
 20
0.0
 30
0.0
  9
$PUCSXDIR
 10
1.0
 20
0.0
 30
0.0
  9
$PUCSYDIR
 10
0.0
 20
1.0
 30
0.0
  9
$PUCSORTHOREF
  2

  9
$PUCSORTHOVIEW
 70
0
  9
$PUCSORGTOP
 10
0.0
 20
0.0
 30
0.0
  9
$PUCSORGBOTTOM
 10
0.0
 20
0.0
 30
0.0
  9
$PUCSORGLEFT
 10
0.0
 20
0.0
 30
0.0
  9
$PUCSORGRIGHT
 10
0.0
 20
0.0
 30
0.0
  9
$PUCSORGFRONT
 10
0.0
 20
0.0
 30
0.0
  9
$PUCSORGBACK
 10
0.0
 20
0.0
 30
0.0
  9
$USERI1
 70
0
  9
$USERI2
 70
0
  9
$USERI3
 70
0
  9
$USERI4
 70
0
  9
$USERI5
 70
0
  9
$USERR1
 40
0.0
  9
$USERR2
 40
0.0
  9
$USERR3
 40
0.0
  9
$USERR4
 40
0.0
  9
$USERR5
 40
0.0
  9
$WORLDVIEW
 70
1
  9
$SHADEDGE
 70
3
  9
$SHADEDIF
 70
70
  9
$TILEMODE
 70
1
  9
$MAXACTVP
 70
64
  9
$PINSBASE
 10
0.0
 20
0.0
 30
0.0
  9
$PLIMCHECK
 70
0
  9
$PEXTMIN
 10
1e+20
 20
1e+20
 30
1e+20
  9
$PEXTMAX
 10
-1e+20
 20
-1e+20
 30
-1e+20
  9
$PLIMMIN
 10
0.0
 20
0.0
  9
$PLIMMAX
 10
420.0
 20
297.0
  9
$UNITMODE
 70
0
  9
$VISRETAIN
 70
1
  9
$PLINEGEN
 70
0
  9
$PSLTSCALE
 70
1
  9
$TREEDEPTH
 70
3020
  9
$CMLSTYLE
  2
Standard
  9
$CMLJUST
 70
0
  9
$CMLSCALE
 40
20.0
  9
$PROXYGRAPHICS
 70
1
  9
$MEASUREMENT
 70
1
  9
$CELWEIGHT
370
-1
  9
$ENDCAPS
280
0
  9
$JOINSTYLE
280
0
  9
$LWDISPLAY
290
0
  9
$INSUNITS
 70
6
  9
$HYPERLINKBASE
  1

  9
$STYLESHEET
  1

  9
$XEDIT
290
1
  9
$CEPSNTYPE
380
0
  9
$PSTYLEMODE
290
1
  9
$FINGERPRINTGUID
  2
{C0147A65-C9E6-488C-8CFF-F30C4300613A}
  9
$VERSIONGUID
  2
{C1E02BA8-0276-4574-ACB8-81D404D2587E}
  9
$EXTNAMES
290
1
  9
$PSVPSCALE
 40
0.0
  9
$OLESTARTUP
290
0
  9
$SORTENTS
280
127
  9
$INDEXCTL
280
0
  9
$HIDETEXT
280
1
  9
$XCLIPFRAME
280
0
  9
$HALOGAP
280
0
  9
$OBSCOLOR
 70
257
  9
$OBSLTYPE
280
0
  9
$INTERSECTIONDISPLAY
280
0
  9
$INTERSECTIONCOLOR
 70
257
  9
$DIMASSOC
280
2
  9
$PROJECTNAME
  1

  9
$CAMERADISPLAY
290
0
  9
$LENSLENGTH
 40
50.0
  9
$CAMERAHEIGHT
 40
0.0
  9
$STEPSPERSEC
 40
24.0
  9
$STEPSIZE
 40
100.0
  9
$3DDWFPREC
 40
2.0
  9
$PSOLWIDTH
 40
0.005
  9
$PSOLHEIGHT
 40
0.08
  9
$LOFTANG1
 40
1.570796326795
  9
$LOFTANG2
 40
1.570796326795
  9
$LOFTMAG1
 40
0.0
  9
$LOFTMAG2
 40
0.0
  9
$LOFTPARAM
 70
7
  9
$LOFTNORMALS
280
1
  9
$LATITUDE
 40
37.795
  9
$LONGITUDE
 40
-122.394
  9
$NORTHDIRECTION
 40
0.0
  9
$TIMEZONE
 70
-8000
  9
$LIGHTGLYPHDISPLAY
280
1
  9
$TILEMODELIGHTSYNCH
280
1
  9
$CMATERIAL
347
20
  9
$SOLIDHIST
280
0
  9
$SHOWHIST
280
1
  9
$DWFFRAME
280
2
  9
$DGNFRAME
280
2
  9
$REALWORLDSCALE
290
1
  9
$INTERFERECOLOR
 62
256
  9
$CSHADOW
280
0
  9
$SHADOWPLANELOCATION
 40
0.0
  0
ENDSEC
  0
SECTION
  2
CLASSES
  0
CLASS
  1
ACDBDICTIONARYWDFLT
  2
AcDbDictionaryWithDefault
  3
ObjectDBX Classes
 90
0
 91
0
280
0
281
0
  0
CLASS
  1
SUN
  2
AcDbSun
  3
SCENEOE
 90
1153
 91
0
280
0
281
0
  0
CLASS
  1
VISUALSTYLE
  2
AcDbVisualStyle
  3
ObjectDBX Classes
 90
4095
 91
0
280
0
281
0
  0
CLASS
  1
MATERIAL
  2
AcDbMaterial
  3
ObjectDBX Classes
 90
1153
 91
0
280
0
281
0
  0
CLASS
  1
SCALE
  2
AcDbScale
  3
ObjectDBX Classes
 90
1153
 91
0
280
0
281
0
  0
CLASS
  1
TABLESTYLE
  2
AcDbTableStyle
  3
ObjectDBX Classes
 90
4095
 91
0
280
0
281
0
  0
CLASS
  1
MLEADERSTYLE
  2
AcDbMLeaderStyle
  3
ACDB_MLEADERSTYLE_CLASS
 90
4095
 91
0
280
0
281
0
  0
CLASS
  1
DICTIONARYVAR
  2
AcDbDictionaryVar
  3
ObjectDBX Classes
 90
0
 91
0
280
0
281
0
  0
CLASS
  1
CELLSTYLEMAP
  2
AcDbCellStyleMap
  3
ObjectDBX Classes
 90
1152
 91
0
280
0
281
0
  0
CLASS
  1
MENTALRAYRENDERSETTINGS
  2
AcDbMentalRayRenderSettings
  3
SCENEOE
 90
1024
 91
0
280
0
281
0
  0
CLASS
  1
ACDBDETAILVIEWSTYLE
  2
AcDbDetailViewStyle
  3
ObjectDBX Classes
 90
1025
 91
0
280
0
281
0
  0
CLASS
  1
ACDBSECTIONVIEWSTYLE
  2
AcDbSectionViewStyle
  3
ObjectDBX Classes
 90
1025
 91
0
280
0
281
0
  0
CLASS
  1
RASTERVARIABLES
  2
AcDbRasterVariables
  3
ISM
 90
0
 91
0
280
0
281
0
  0
CLASS
  1
LAYOUT
  2
AcDbLayout
  3
ObjectDBX Classes
 90
0
 91
0
280
0
281
0
  0
CLASS
  1
ACDBPLACEHOLDER
  2
AcDbPlaceHolder
  3
ObjectDBX Classes
 90
0
 91
0
280
0
281
0
  0
ENDSEC
  0
SECTION
  2
TABLES
  0
TABLE
  2
VPORT
  5
8
330
0
100
AcDbSymbolTable
 70
1
  0
VPORT
  5
23
330
8
100
AcDbSymbolTableRecord
100
AcDbViewportTableRecord
  2
*Active
 70
0
 10
0.0
 20
0.0
 11
1.0
 21
1.0
 12
0.0
 22
0.0
 13
0.0
 23
0.0
 14
0.5
 24
0.5
 15
0.5
 25
0.5
 16
0.0
 26
0.0
 36
1.0
 17
0.0
 27
0.0
 37
0.0
 40
1000.0
 41
1.34
 42
50.0
 43
0.0
 44
0.0
 50
0.0
 51
0.0
 71
0
 72
1000
 73
1
 74
3
 75
0
 76
0
 77
0
 78
0
281
0
 65
0
146
0.0
  0
ENDTAB
  0
TABLE
  2
LTYPE
  5
2
330
0
100
AcDbSymbolTable
 70
3
  0
LTYPE
  5
24
330
2
100
AcDbSymbolTableRecord
100
AcDbLinetypeTableRecord
  2
ByBlock
 70
0
  3

 72
65
 73
0
 40
0.0
  0
LTYPE
  5
25
330
2
100
AcDbSymbolTableRecord
100
AcDbLinetypeTableRecord
  2
ByLayer
 70
0
  3

 72
65
 73
0
 40
0.0
  0
LTYPE
  5
26
330
2
100
AcDbSymbolTableRecord
100
AcDbLinetypeTableRecord
  2
Continuous
 70
0
  3

 72
65
 73
0
 40
0.0
  0
ENDTAB
  0
TABLE
  2
LAYER
  5
1
330
0
100
AcDbSymbolTable
 70
2
  0
LAYER
  5
27
330
1
100
AcDbSymbolTableRecord
100
AcDbLayerTableRecord
  2
0
 70
0
 62
7
  6
Continuous
370
-3
390
13
347
21
  0
LAYER
  5
28
330
1
100
AcDbSymbolTableRecord
100
AcDbLayerTableRecord
  2
Defpoints
 70
0
 62
7
  6
Continuous
290
0
370
-3
390
13
347
21
  0
ENDTAB
  0
TABLE
  2
STYLE
  5
5
330
0
100
AcDbSymbolTable
 70
1
  0
STYLE
  5
29
330
5
100
AcDbSymbolTableRecord
100
AcDbTextStyleTableRecord
  2
Standard
 70
0
 40
0.0
 41
1.0
 50
0.0
 71
0
 42
2.5
  3
txt
  4

  0
ENDTAB
  0
TABLE
  2
VIEW
  5
7
330
0
100
AcDbSymbolTable
 70
0
  0
ENDTAB
  0
TABLE
  2
UCS
  5
6
330
0
100
AcDbSymbolTable
 70
0
  0
ENDTAB
  0
TABLE
  2
APPID
  5
3
330
0
100
AcDbSymbolTable
 70
3
  0
APPID
  5
2A
330
3
100
AcDbSymbolTableRecord
100
AcDbRegAppTableRecord
  2
ACAD
 70
0
  0
APPID
  5
B7
330
3
100
AcDbSymbolTableRecord
100
AcDbRegAppTableRecord
  2
HATCHBACKGROUNDCOLOR
 70
0
  0
APPID
  5
B8
330
3
100
AcDbSymbolTableRecord
100
AcDbRegAppTableRecord
  2
EZDXF
 70
0
  0
ENDTAB
  0
TABLE
  2
DIMSTYLE
  5
4
330
0
100
AcDbSymbolTable
 70
1
100
AcDbDimStyleTable
  0
DIMSTYLE
105
2B
330
4
100
AcDbSymbolTableRecord
100
AcDbDimStyleTableRecord
  2
Standard
 70
0
 40
1.0
 41
2.5
 42
0.625
 43
3.75
 44
1.25
 45
0.0
 46
0.0
 47
0.0
 48
0.0
 49
2.5
140
2.5
141
2.5
142
0.0
143
0.03937007874
144
1.0
145
0.0
146
1.0
147
0.625
148
0.0
 69
0
 70
0
 71
0
 72
0
 73
0
 74
0
 75
0
 76
0
 77
1
 78
8
 79
3
170
0
171
3
172
1
173
0
174
0
175
0
176
0
177
0
178
0
179
2
271
2
272
2
273
2
274
3
275
0
276
0
277
2
278
44
279
0
280
0
281
0
282
0
283
0
284
8
285
0
286
0
288
0
289
3
290
0
371
-2
372
-2
  0
ENDTAB
  0
TABLE
  2
BLOCK_RECORD
  5
9
330
0
100
AcDbSymbolTable
 70
2
  0
BLOCK_RECORD
  5
17
330
9
100
AcDbSymbolTableRecord
100
AcDbBlockTableRecord
  2
*Model_Space
340
1A
 70
0
280
1
281
0
  0
BLOCK_RECORD
  5
1B
330
9
100
AcDbSymbolTableRecord
100
AcDbBlockTableRecord
  2
*Paper_Space
340
1E
 70
0
280
1
281
0
  0
ENDTAB
  0
ENDSEC
  0
SECTION
  2
BLOCKS
  0
BLOCK
  5
18
330
17
100
AcDbEntity
  8
0
100
AcDbBlockBegin
  2
*Model_Space
 70
0
 10
0.0
 20
0.0
 30
0.0
  3
*Model_Space
  1

  0
ENDBLK
  5
19
330
17
100
AcDbEntity
  8
0
100
AcDbBlockEnd
  0
BLOCK
  5
1C
330
1B
100
AcDbEntity
  8
0
100
AcDbBlockBegin
  2
*Paper_Space
 70
0
 10
0.0
 20
0.0
 30
0.0
  3
*Paper_Space
  1

  0
ENDBLK
  5
1D
330
1B
100
AcDbEntity
  8
0
100
AcDbBlockEnd
  0
ENDSEC
  0
SECTION
  2
ENTITIES
  0
LWPOLYLINE
  5
2F
330
17
100
AcDbEntity
  8
frame
100
AcDbPolyline
 90
7
 70
0
 10
-295.1903022150055
 20
-508.2845519873685
 10
-331.39045995003244
 20
-570.9850644264427
 10
-341.3903022150055
 20
-570.9850644264426
 10
-377.5904599500324
 20
-508.2845519873685
 10
-372.5905388175459
 20
-499.6244345520645
 10
-300.19022334749206
 20
-499.6244345520645
 10
-295.1903022150055
 20
-508.2845519873685
  0
LWPOLYLINE
  5
30
330
17
100
AcDbEntity
  8
frame
100
AcDbPolyline
 90
7
 70
0
 10
-377.59045992428
 20
-487.9643664227887
 10
-341.3903021892531
 20
-425.26385398371457
 10
-331.39045992428004
 20
-425.2638539837146
 10
-295.1903021892531
 20
-487.96436642278877
 10
-300.1902233217396
 20
-496.62448385809273
 10
-372.5905387917935
 20
-496.62448385809273
 10
-377.59045992428
 20
-487.9643664227887
  0
LWPOLYLINE
  5
31
330
17
100
AcDbEntity
  8
frame
100
AcDbPolyline
 90
25
 70
0
 10
-282.59238373867913
 20
-486.4643171167605
 10
-292.5922260036522
 20
-486.4643171167605
 10
-328.7923837386791
 20
-423.7638046776864
 10
-323.79246260619254
 20
-415.1036872423824
 10
-323.7924625647415
 20
-414.1037666053723
 10
-328.79238369722805
 20
-405.4436491700683
 10
-329.65840914246354
 20
-404.9435698070784
 10
-339.65825140743664
 20
-404.9435698070784
 10
-375.85840914246353
 20
-342.24305736800426
 10
-370.858488009977
 20
-333.5829399327003
 10
-298.45817253992317
 20
-333.5829399327003
 10
-293.4582514074366
 20
-342.24305736800426
 10
-292.5922259622011
 20
-342.74313673099414
 10
-282.59238369722806
 20
-342.74313673099414
 10
-281.72635833489466
 20
-342.24305736800426
 10
-276.72643720240814
 20
-333.58293993270024
 10
-204.3261217323543
 20
-333.58293993270024
 10
-199.32620059986772
 20
-342.24305736800426
 10
-235.52635833489467
 20
-404.9435698070784
 10
-245.52620059986774
 20
-404.9435698070784
 10
-246.39222596220114
 20
-405.4436491700683
 10
-251.3921470946877
 20
-414.1037666053723
 10
-251.3921471361387
 20
-415.1036872423824
 10
-246.39222600365218
 20
-423.76380467768644
 10
-282.59238373867913
 20
-486.4643171167605
  0
LWPOLYLINE
  5
32
330
17
100
AcDbEntity
  8
frame
100
AcDbPolyline
 90
7
 70
0
 10
-424.6564853280645
 20
-406.4436191131066
 10
-388.45632759303754
 20
-343.74310667403245
 10
-378.4564853280645
 20
-343.74310667403245
 10
-342.25632759303755
 20
-406.4436191131066
 10
-347.2562487255241
 20
-415.1037365484106
 10
-419.65656419557797
 20
-415.1037365484106
 10
-424.6564853280645
 20
-406.4436191131066
  0
LWPOLYLINE
  5
33
330
17
100
AcDbEntity
  8
frame
100
AcDbPolyline
 90
7
 70
0
 10
-391.05440383014326
 20
-342.24305736800426
 10
-427.2545615651702
 20
-404.9435698070784
 10
-437.25440383014325
 20
-404.9435698070784
 10
-473.4545615651702
 20
-342.24305736800426
 10
-468.4546404326837
 20
-333.58293993270024
 10
-396.05432496262983
 20
-333.58293993270024
 10
-391.05440383014326
 20
-342.24305736800426
  0
LWPOLYLINE
  5
34
330
17
100
AcDbEntity
  8
frame
100
AcDbPolyline
 90
7
 70
0
 10
-567.5866123469867
 20
-321.92287180342447
 10
-531.3864546119597
 20
-259.2223593643503
 10
-521.3866123469867
 20
-259.2223593643504
 10
-485.1864546119598
 20
-321.9228718034245
 10
-490.1863757444463
 20
-330.5829892387285
 10
-562.5866912145002
 20
-330.5829892387285
 10
-567.5866123469867
 20
-321.92287180342447
  0
LWPOLYLINE
  5
35
330
17
100
AcDbEntity
  8
frame
100
AcDbPolyline
 90
7
 70
0
 10
-473.4545615394178
 20
-321.92287180342447
 10
-437.25440380439085
 20
-259.2223593643503
 10
-427.2545615394178
 20
-259.2223593643504
 10
-391.05440380439086
 20
-321.9228718034245
 10
-396.0543249368774
 20
-330.5829892387285
 10
-468.4546404069313
 20
-330.5829892387285
 10
-473.4545615394178
 20
-321.92287180342447
  0
LWPOLYLINE
  5
36
330
17
100
AcDbEntity
  8
frame
100
AcDbPolyline
 90
7
 70
0
 10
-438.12042924962634
 20
-258.72228000136045
 10
-474.3205869846533
 20
-321.4227924404346
 10
-484.3204292496264
 20
-321.4227924404346
 10
-520.5205869846533
 20
-258.72228000136045
 10
-515.5206658521668
 20
-250.06216256605646
 10
-443.1203503821129
 20
-250.06216256605646
 10
-438.12042924962634
 20
-258.72228000136045
  0
LWPOLYLINE
  5
37
330
17
100
AcDbEntity
  8
frame
100
AcDbPolyline
 90
25
 70
0
 10
-378.4564853538169
 20
-320.4228224973963
 10
-388.45632761878994
 20
-320.4228224973963
 10
-424.6564853538169
 20
-257.72231005832214
 10
-419.6565642213303
 20
-249.06219262301815
 10
-419.6565641798793
 20
-248.06227198600806
 10
-424.6564853123658
 20
-239.40215455070404
 10
-425.5225107576013
 20
-238.9020751877142
 10
-435.5223530225744
 20
-238.90207518771416
 10
-471.7225107576013
 20
-176.20156274864001
 10
-466.7225896251148
 20
-167.54144531333603
 10
-394.32227415506094
 20
-167.54144531333603
 10
-389.32235302257436
 20
-176.20156274864004
 10
-388.45632757733887
 20
-176.7016421116299
 10
-378.4564853123658
 20
-176.70164211162992
 10
-377.5904599500324
 20
-176.20156274864001
 10
-372.5905388175459
 20
-167.54144531333603
 10
-300.19022334749206
 20
-167.54144531333603
 10
-295.1903022150055
 20
-176.20156274864001
 10
-331.39045995003244
 20
-238.90207518771416
 10
-341.3903022150055
 20
-238.90207518771416
 10
-342.2563275773389
 20
-239.40215455070407
 10
-347.25624870982546
 20
-248.06227198600806
 10
-347.2562487512765
 20
-249.06219262301815
 10
-342.25632761878995
 20
-257.7223100583222
 10
-378.4564853538169
 20
-320.4228224973963
  0
LWPOLYLINE
  5
38
330
17
100
AcDbEntity
  8
frame
100
AcDbPolyline
 90
7
 70
0
 10
-520.5205869432023
 20
-240.40212449374235
 10
-484.3204292081753
 20
-177.7016120546682
 10
-474.3205869432023
 20
-177.70161205466823
 10
-438.1204292081753
 20
-240.40212449374238
 10
-443.12035034066184
 20
-249.06224192904637
 10
-515.5206658107157
 20
-249.06224192904637
 10
-520.5205869432023
 20
-240.40212449374235
  0
LWPOLYLINE
  5
39
330
17
100
AcDbEntity
  8
frame
100
AcDbPolyline
 90
7
 70
0
 10
-616.3846885426414
 20
-239.40215455070404
 10
-580.1845308076144
 20
-176.7016421116299
 10
-570.1846885426413
 20
-176.70164211162992
 10
-533.9845308076144
 20
-239.40215455070407
 10
-538.9844519401009
 20
-248.06227198600806
 10
-611.3847674101548
 20
-248.06227198600806
 10
-616.3846885426414
 20
-239.40215455070404
  0
LWPOLYLINE
  5
3A
330
17
100
AcDbEntity
  8
frame
100
AcDbPolyline
 90
7
 70
0
 10
-486.91850544528097
 20
-176.20156274864001
 10
-523.118663180308
 20
-238.90207518771416
 10
-533.118505445281
 20
-238.90207518771416
 10
-569.3186631803079
 20
-176.20156274864001
 10
-564.3187420478214
 20
-167.54144531333603
 10
-491.91842657776755
 20
-167.54144531333603
 10
-486.91850544528097
 20
-176.20156274864001
  0
LWPOLYLINE
  5
3B
330
17
100
AcDbEntity
  8
frame
100
AcDbPolyline
 90
7
 70
0
 10
-569.3186631545556
 20
-155.88137718406023
 10
-533.1185054195286
 20
-93.1808647449861
 10
-523.1186631545555
 20
-93.18086474498611
 10
-486.9185054195286
 20
-155.88137718406026
 10
-491.91842655201515
 20
-164.54149461936424
 10
-564.3187420220689
 20
-164.54149461936424
 10
-569.3186631545556
 20
-155.88137718406023
  0
LWPOLYLINE
  5
3C
330
17
100
AcDbEntity
  8
frame
100
AcDbPolyline
 90
7
 70
0
 10
-533.9845308647641
 20
-92.68078538199623
 10
-570.184688599791
 20
-155.38129782107038
 10
-580.184530864764
 20
-155.38129782107035
 10
-616.384688599791
 20
-92.68078538199622
 10
-611.3847674673044
 20
-84.02066794669221
 10
-538.9844519972506
 20
-84.02066794669221
 10
-533.9845308647641
 20
-92.68078538199623
  0
LWPOLYLINE
  5
3D
330
17
100
AcDbEntity
  8
frame
100
AcDbPolyline
 90
25
 70
0
 10
-388.45632759303754
 20
-11.66011743530396
 10
-378.4564853280645
 20
-11.660117435303988
 10
-342.25632759303755
 20
-74.36062987437813
 10
-347.2562487255241
 20
-83.02074730968212
 10
-347.25624876697515
 20
-84.02066794669221
 10
-342.25632763448857
 20
-92.68078538199623
 10
-341.3903021892531
 20
-93.1808647449861
 10
-331.39045992428004
 20
-93.18086474498611
 10
-295.1903021892531
 20
-155.88137718406026
 10
-300.1902233217396
 20
-164.54149461936424
 10
-372.5905387917935
 20
-164.54149461936424
 10
-377.59045992428
 20
-155.88137718406023
 10
-378.4564853695155
 20
-155.38129782107038
 10
-388.4563276344886
 20
-155.38129782107035
 10
-389.322352996822
 20
-155.88137718406028
 10
-394.32227412930854
 20
-164.54149461936424
 10
-466.7225895993624
 20
-164.54149461936424
 10
-471.72251073184896
 20
-155.88137718406026
 10
-435.52235299682195
 20
-93.18086474498611
 10
-425.5225107318489
 20
-93.18086474498612
 10
-424.6564853695155
 20
-92.68078538199622
 10
-419.656564237029
 20
-84.02066794669221
 10
-419.65656419557797
 20
-83.02074730968212
 10
-424.6564853280645
 20
-74.3606298743781
 10
-388.45632759303754
 20
-11.66011743530396
  0
LWPOLYLINE
  5
3E
330
17
100
AcDbEntity
  8
frame
100
AcDbPolyline
 90
25
 70
0
 10
-484.3204292339277
 20
-154.38132787803204
 10
-520.5205869689546
 20
-91.68081543895791
 10
-515.5206658364681
 20
-83.02069800365392
 10
-515.5206657950171
 20
-82.02077736664381
 10
-520.5205869275036
 20
-73.3606599313398
 10
-521.3866123727391
 20
-72.86058056834995
 10
-531.3864546377122
 20
-72.86058056834992
 10
-567.5866123727391
 20
-10.160068129275778
 10
-562.5866912402525
 20
-1.4999506939717904
 10
-490.1863757701987
 20
-1.4999506939717904
 10
-485.18645463771213
 20
-10.160068129275793
 10
-484.32042919247664
 20
-10.660147492265665
 10
-474.3205869275036
 20
-10.66014749226568
 10
-473.4545615651702
 20
-10.160068129275764
 10
-468.4546404326837
 20
-1.4999506939717762
 10
-396.05432496262983
 20
-1.4999506939717762
 10
-391.05440383014326
 20
-10.160068129275786
 10
-427.2545615651702
 20
-72.86058056834993
 10
-437.25440383014325
 20
-72.86058056834992
 10
-438.12042919247665
 20
-73.36065993133982
 10
-443.1203503249632
 20
-82.02077736664381
 10
-443.12035036641424
 20
-83.02069800365392
 10
-438.1204292339277
 20
-91.68081543895792
 10
-474.3205869689547
 20
-154.38132787803207
 10
-484.3204292339277
 20
-154.38132787803204
  0
LWPOLYLINE
  5
3F
330
17
100
AcDbEntity
  8
frame
100
AcDbPolyline
 90
7
 70
0
 10
-580.184530823313
 20
-11.66011743530396
 10
-570.18468855834
 20
-11.660117435303988
 10
-533.984530823313
 20
-74.36062987437813
 10
-538.9844519557996
 20
-83.02074730968212
 10
-611.3847674258534
 20
-83.02074730968212
 10
-616.3846885583399
 20
-74.3606298743781
 10
-580.184530823313
 20
-11.66011743530396
  0
LWPOLYLINE
  5
40
330
17
100
AcDbEntity
  8
frame
100
AcDbPolyline
 90
7
 70
0
 10
-533.9845308490654
 20
74.36067918040632
 10
-570.1846885840923
 20
11.660166741332176
 10
-580.1845308490655
 20
11.660166741332205
 10
-616.3846885840924
 20
74.36067918040634
 10
-611.3847674516059
 20
83.02079661571032
 10
-538.984451981552
 20
83.02079661571032
 10
-533.9845308490654
 20
74.36067918040632
  0
LWPOLYLINE
  5
41
330
17
100
AcDbEntity
  8
frame
100
AcDbPolyline
 90
25
 70
0
 10
-484.3204292081753
 20
154.38137718406028
 10
-474.3205869432023
 20
154.38137718406026
 10
-438.1204292081753
 20
91.68086474498611
 10
-443.12035034066184
 20
83.02074730968212
 10
-443.1203503821129
 20
82.02082667267203
 10
-438.12042924962634
 20
73.36070923736801
 10
-437.25440380439085
 20
72.86062987437815
 10
-427.2545615394178
 20
72.86062987437813
 10
-391.05440380439086
 20
10.160117435303988
 10
-396.0543249368774
 20
1.5
 10
-468.4546404069313
 20
1.5
 10
-473.4545615394178
 20
10.160117435304002
 10
-474.3205869846533
 20
10.660196798293875
 10
-484.3204292496264
 20
10.660196798293889
 10
-485.1864546119598
 20
10.160117435303974
 10
-490.1863757444463
 20
1.4999999999999858
 10
-562.5866912145002
 20
1.4999999999999858
 10
-567.5866123469867
 20
10.160117435303995
 10
-531.3864546119597
 20
72.86062987437813
 10
-521.3866123469867
 20
72.86062987437812
 10
-520.5205869846533
 20
73.36070923736803
 10
-515.5206658521668
 20
82.02082667267203
 10
-515.5206658107157
 20
83.02074730968212
 10
-520.5205869432023
 20
91.68086474498614
 10
-484.3204292081753
 20
154.38137718406028
  0
LWPOLYLINE
  5
42
330
17
100
AcDbEntity
  8
frame
100
AcDbPolyline
 90
25
 70
0
 10
-378.4564853538169
 20
11.660166741332176
 10
-388.45632761878994
 20
11.660166741332205
 10
-424.6564853538169
 20
74.36067918040634
 10
-419.6565642213303
 20
83.02079661571032
 10
-419.6565641798793
 20
84.02071725272043
 10
-424.6564853123658
 20
92.68083468802445
 10
-425.5225107576013
 20
93.1809140510143
 10
-435.5223530225744
 20
93.18091405101433
 10
-471.7225107576013
 20
155.88142649008847
 10
-466.7225896251148
 20
164.54154392539246
 10
-394.32227415506094
 20
164.54154392539246
 10
-389.32235302257436
 20
155.88142649008844
 10
-388.45632757733887
 20
155.3813471270986
 10
-378.4564853123658
 20
155.38134712709856
 10
-377.5904599500324
 20
155.88142649008847
 10
-372.5905388175459
 20
164.54154392539246
 10
-300.19022334749206
 20
164.54154392539246
 10
-295.1903022150055
 20
155.88142649008847
 10
-331.39045995003244
 20
93.18091405101431
 10
-341.3903022150055
 20
93.18091405101433
 10
-342.2563275773389
 20
92.68083468802442
 10
-347.25624870982546
 20
84.02071725272043
 10
-347.2562487512765
 20
83.02079661571032
 10
-342.25632761878995
 20
74.36067918040632
 10
-378.4564853538169
 20
11.660166741332176
  0
LWPOLYLINE
  5
43
330
17
100
AcDbEntity
  8
frame
100
AcDbPolyline
 90
7
 70
0
 10
-616.3846885426414
 20
92.68083468802445
 10
-580.1845308076144
 20
155.3813471270986
 10
-570.1846885426413
 20
155.38134712709856
 10
-533.9845308076144
 20
92.68083468802442
 10
-538.9844519401009
 20
84.02071725272043
 10
-611.3847674101548
 20
84.02071725272043
 10
-616.3846885426414
 20
92.68083468802445
  0
LWPOLYLINE
  5
44
330
17
100
AcDbEntity
  8
frame
100
AcDbPolyline
 90
7
 70
0
 10
-486.91850544528097
 20
155.88142649008847
 10
-523.118663180308
 20
93.18091405101431
 10
-533.118505445281
 20
93.18091405101433
 10
-569.3186631803079
 20
155.88142649008847
 10
-564.3187420478214
 20
164.54154392539246
 10
-491.91842657776755
 20
164.54154392539246
 10
-486.91850544528097
 20
155.88142649008847
  0
LWPOLYLINE
  5
45
330
17
100
AcDbEntity
  8
frame
100
AcDbPolyline
 90
7
 70
0
 10
-569.3186631545556
 20
176.2016120546682
 10
-533.1185054195286
 20
238.90212449374235
 10
-523.1186631545555
 20
238.90212449374235
 10
-486.9185054195286
 20
176.2016120546682
 10
-491.91842655201515
 20
167.54149461936422
 10
-564.3187420220689
 20
167.54149461936422
 10
-569.3186631545556
 20
176.2016120546682
  0
LWPOLYLINE
  5
46
330
17
100
AcDbEntity
  8
frame
100
AcDbPolyline
 90
7
 70
0
 10
-533.9845308647641
 20
239.40220385673223
 10
-570.184688599791
 20
176.70169141765808
 10
-580.184530864764
 20
176.7016914176581
 10
-616.384688599791
 20
239.40220385673226
 10
-611.3847674673044
 20
248.06232129203624
 10
-538.9844519972506
 20
248.06232129203624
 10
-533.9845308647641
 20
239.40220385673223
  0
LWPOLYLINE
  5
47
330
17
100
AcDbEntity
  8
frame
100
AcDbPolyline
 90
7
 70
0
 10
-438.1204292339277
 20
240.40217379977057
 10
-474.3205869689547
 20
177.70166136069642
 10
-484.3204292339277
 20
177.70166136069645
 10
-520.5205869689546
 20
240.4021737997706
 10
-515.5206658364681
 20
249.06229123507458
 10
-443.12035036641424
 20
249.06229123507458
 10
-438.1204292339277
 20
240.40217379977057
  0
LWPOLYLINE
  5
48
330
17
100
AcDbEntity
  8
frame
100
AcDbPolyline
 90
25
 70
0
 10
-388.45632759303754
 20
320.4228718034245
 10
-378.4564853280645
 20
320.4228718034245
 10
-342.25632759303755
 20
257.7223593643504
 10
-347.2562487255241
 20
249.06224192904637
 10
-347.25624876697515
 20
248.06232129203627
 10
-342.25632763448857
 20
239.40220385673226
 10
-341.3903021892531
 20
238.9021244937424
 10
-331.39045992428004
 20
238.90212449374238
 10
-295.1903021892531
 20
176.20161205466823
 10
-300.1902233217396
 20
167.54149461936424
 10
-372.5905387917935
 20
167.54149461936424
 10
-377.59045992428
 20
176.20161205466826
 10
-378.4564853695155
 20
176.7016914176581
 10
-388.4563276344886
 20
176.70169141765814
 10
-389.322352996822
 20
176.2016120546682
 10
-394.32227412930854
 20
167.54149461936424
 10
-466.7225895993624
 20
167.54149461936424
 10
-471.72251073184896
 20
176.20161205466823
 10
-435.52235299682195
 20
238.90212449374238
 10
-425.5225107318489
 20
238.90212449374238
 10
-424.6564853695155
 20
239.40220385673229
 10
-419.656564237029
 20
248.06232129203627
 10
-419.65656419557797
 20
249.06224192904637
 10
-424.6564853280645
 20
257.7223593643504
 10
-388.45632759303754
 20
320.4228718034245
  0
LWPOLYLINE
  5
49
330
17
100
AcDbEntity
  8
frame
100
AcDbPolyline
 90
7
 70
0
 10
-520.5205869275036
 20
258.7223293073887
 10
-484.32042919247664
 20
321.42284174646284
 10
-474.3205869275036
 20
321.42284174646284
 10
-438.12042919247665
 20
258.7223293073887
 10
-443.1203503249632
 20
250.06221187208467
 10
-515.5206657950171
 20
250.06221187208467
 10
-520.5205869275036
 20
258.7223293073887
  0
LWPOLYLINE
  5
4A
330
17
100
AcDbEntity
  8
frame
100
AcDbPolyline
 90
7
 70
0
 10
-485.18645463771213
 20
321.9229211094527
 10
-521.3866123727391
 20
259.22240867037857
 10
-531.3864546377122
 20
259.22240867037857
 10
-567.5866123727391
 20
321.9229211094527
 10
-562.5866912402525
 20
330.5830385447567
 10
-490.1863757701987
 20
330.5830385447567
 10
-485.18645463771213
 20
321.9229211094527
  0
LWPOLYLINE
  5
4B
330
17
100
AcDbEntity
  8
frame
100
AcDbPolyline
 90
7
 70
0
 10
-391.05440383014326
 20
321.9229211094527
 10
-427.2545615651702
 20
259.22240867037857
 10
-437.25440383014325
 20
259.22240867037857
 10
-473.4545615651702
 20
321.9229211094527
 10
-468.4546404326837
 20
330.58303854475673
 10
-396.05432496262983
 20
330.58303854475673
 10
-391.05440383014326
 20
321.9229211094527
  0
LWPOLYLINE
  5
4C
330
17
100
AcDbEntity
  8
frame
100
AcDbPolyline
 90
7
 70
0
 10
-473.4545615394178
 20
342.24310667403256
 10
-437.25440380439085
 20
404.9436191131067
 10
-427.2545615394178
 20
404.9436191131067
 10
-391.05440380439086
 20
342.24310667403256
 10
-396.0543249368774
 20
333.58298923872854
 10
-468.4546404069313
 20
333.58298923872854
 10
-473.4545615394178
 20
342.24310667403256
  0
LWPOLYLINE
  5
4D
330
17
100
AcDbEntity
  8
frame
100
AcDbPolyline
 90
7
 70
0
 10
-342.25632761878995
 20
406.4436684191348
 10
-378.4564853538169
 20
343.7431559800607
 10
-388.45632761878994
 20
343.7431559800607
 10
-424.6564853538169
 20
406.44366841913484
 10
-419.6565642213303
 20
415.1037858544388
 10
-347.2562487512765
 20
415.1037858544388
 10
-342.25632761878995
 20
406.4436684191348
  0
LWPOLYLINE
  5
4E
330
17
100
AcDbEntity
  8
frame
100
AcDbPolyline
 90
7
 70
0
 10
-295.1903022150055
 20
487.96441572881696
 10
-331.39045995003244
 20
425.2639032897428
 10
-341.3903022150055
 20
425.2639032897428
 10
-377.5904599500324
 20
487.96441572881696
 10
-372.5905388175459
 20
496.624533164121
 10
-300.19022334749206
 20
496.624533164121
 10
-295.1903022150055
 20
487.96441572881696
  0
LWPOLYLINE
  5
4F
330
17
100
AcDbEntity
  8
frame
100
AcDbPolyline
 90
7
 70
0
 10
-341.3903021892531
 20
570.9851137324708
 10
-331.39045992428004
 20
570.9851137324708
 10
-295.1903021892531
 20
508.2846012933967
 10
-300.1902233217396
 20
499.62448385809273
 10
-372.5905387917935
 20
499.62448385809273
 10
-377.59045992428
 20
508.28460129339675
 10
-341.3903021892531
 20
570.9851137324708
  0
LWPOLYLINE
  5
50
330
17
100
AcDbEntity
  8
frame
100
AcDbPolyline
 90
7
 70
0
 10
-282.59238373867913
 20
509.78465059942494
 10
-292.5922260036522
 20
509.78465059942494
 10
-328.7923837386791
 20
572.4851630384991
 10
-323.79246260619254
 20
581.145280473803
 10
-251.3921471361387
 20
581.145280473803
 10
-246.39222600365218
 20
572.4851630384991
 10
-282.59238373867913
 20
509.78465059942494
  0
LWPOLYLINE
  5
51
330
17
100
AcDbEntity
  8
frame
100
AcDbPolyline
 90
7
 70
0
 10
-54.66402278907532
 20
-590.8052692400889
 10
-90.86418052410227
 20
-653.5057816791631
 10
-100.86402278907532
 20
-653.5057816791631
 10
-137.06418052410226
 20
-590.8052692400889
 10
-132.0642593916157
 20
-582.145151804785
 10
-59.66394392156186
 20
-582.145151804785
 10
-54.66402278907532
 20
-590.8052692400889
  0
LWPOLYLINE
  5
52
330
17
100
AcDbEntity
  8
frame
100
AcDbPolyline
 90
7
 70
0
 10
-328.7923837129267
 20
-572.4851137324708
 10
-292.5922259778998
 20
-509.7846012933967
 10
-282.59238371292673
 20
-509.7846012933967
 10
-246.39222597789978
 20
-572.4851137324708
 10
-251.3921471103863
 20
-581.1452311677748
 10
-323.7924625804402
 20
-581.1452311677748
 10
-328.7923837129267
 20
-572.4851137324708
  0
LWPOLYLINE
  5
53
330
17
100
AcDbEntity
  8
frame
100
AcDbPolyline
 90
7
 70
0
 10
-137.0641804826512
 20
-572.4851137324708
 10
-100.86402274762428
 20
-509.7846012933967
 10
-90.86418048265121
 20
-509.7846012933967
 10
-54.66402274762429
 20
-572.4851137324708
 10
-59.66394388011082
 20
-581.1452311677748
 10
-132.06425935016466
 20
-581.1452311677748
 10
-137.0641804826512
 20
-572.4851137324708
  0
LWPOLYLINE
  5
54
330
17
100
AcDbEntity
  8
frame
100
AcDbPolyline
 90
7
 70
0
 10
-232.92828208209033
 20
-571.4851437894325
 10
-196.72812434706339
 20
-508.7846313503584
 10
-186.72828208209032
 20
-508.7846313503584
 10
-150.5281243470634
 20
-571.4851437894325
 10
-155.52804547954992
 20
-580.1452612247365
 10
-227.92836094960379
 20
-580.1452612247365
 10
-232.92828208209033
 20
-571.4851437894325
  0
LWPOLYLINE
  5
55
330
17
100
AcDbEntity
  8
frame
100
AcDbPolyline
 90
7
 70
0
 10
-197.59414979229888
 20
-508.2845519873685
 10
-233.79430752732583
 20
-570.9850644264427
 10
-243.79414979229887
 20
-570.9850644264427
 10
-279.9943075273258
 20
-508.2845519873685
 10
-274.9943863948393
 20
-499.62443455206454
 10
-202.59407092478543
 20
-499.62443455206454
 10
-197.59414979229888
 20
-508.2845519873685
  0
LWPOLYLINE
  5
56
330
17
100
AcDbEntity
  8
frame
100
AcDbPolyline
 90
7
 70
0
 10
-103.46209898472999
 20
-508.2845519873685
 10
-139.66225671975693
 20
-570.9850644264427
 10
-149.66209898473
 20
-570.9850644264426
 10
-185.8622567197569
 20
-508.2845519873685
 10
-180.8623355872704
 20
-499.6244345520645
 10
-108.46202011721654
 20
-499.6244345520645
 10
-103.46209898472999
 20
-508.2845519873685
  0
LWPOLYLINE
  5
57
330
17
100
AcDbEntity
  8
frame
100
AcDbPolyline
 90
7
 70
0
 10
-5.865946562023361
 20
-508.2845519873685
 10
-42.0661042970503
 20
-570.9850644264427
 10
-52.06594656202336
 20
-570.9850644264427
 10
-88.26610429705029
 20
-508.2845519873685
 10
-83.26618316456377
 20
-499.62443455206454
 10
-10.865867694509904
 20
-499.62443455206454
 10
-5.865946562023361
 20
-508.2845519873685
  0
LWPOLYLINE
  5
58
330
17
100
AcDbEntity
  8
frame
100
AcDbPolyline
 90
25
 70
0
 10
-196.72812436276203
 20
-343.74310667403245
 10
-186.72828209778896
 20
-343.74310667403245
 10
-150.52812436276204
 20
-406.4436191131066
 10
-155.5280454952486
 20
-415.1037365484106
 10
-155.5280455366996
 20
-416.10365718542073
 10
-150.5281244042131
 20
-424.7637746207247
 10
-149.6620989589776
 20
-425.26385398371457
 10
-139.66225669400453
 20
-425.2638539837146
 10
-103.4620989589776
 20
-487.96436642278877
 10
-108.46202009146413
 20
-496.62448385809273
 10
-180.862335561518
 20
-496.62448385809273
 10
-185.86225669400454
 20
-487.9643664227887
 10
-186.72828213924
 20
-487.46428705979883
 10
-196.72812440421308
 20
-487.46428705979883
 10
-197.59414976654648
 20
-487.96436642278877
 10
-202.594070899033
 20
-496.62448385809273
 10
-274.9943863690869
 20
-496.62448385809273
 10
-279.9943075015734
 20
-487.9643664227887
 10
-243.79414976654647
 20
-425.26385398371457
 10
-233.7943075015734
 20
-425.2638539837146
 10
-232.92828213924
 20
-424.7637746207247
 10
-227.92836100675348
 20
-416.10365718542073
 10
-227.92836096530243
 20
-415.1037365484106
 10
-232.92828209778898
 20
-406.4436191131066
 10
-196.72812436276203
 20
-343.74310667403245
  0
LWPOLYLINE
  5
59
330
17
100
AcDbEntity
  8
frame
100
AcDbPolyline
 90
25
 70
0
 10
-90.86418050840362
 20
-486.4643171167605
 10
-100.86402277337667
 20
-486.4643171167605
 10
-137.0641805084036
 20
-423.7638046776864
 10
-132.06425937591706
 20
-415.1036872423824
 10
-132.06425933446604
 20
-414.1037666053723
 10
-137.06418046695256
 20
-405.4436491700683
 10
-137.93020591218806
 20
-404.9435698070784
 10
-147.93004817716113
 20
-404.9435698070784
 10
-184.13020591218805
 20
-342.24305736800426
 10
-179.13028477970153
 20
-333.5829399327003
 10
-106.72996930964766
 20
-333.5829399327003
 10
-101.73004817716112
 20
-342.24305736800426
 10
-100.86402273192563
 20
-342.74313673099414
 10
-90.86418046695256
 20
-342.74313673099414
 10
-89.99815510461917
 20
-342.24305736800426
 10
-84.99823397213264
 20
-333.58293993270024
 10
-12.597918502078784
 20
-333.58293993270024
 10
-7.597997369592235
 20
-342.24305736800426
 10
-43.79815510461918
 20
-404.9435698070784
 10
-53.79799736959224
 20
-404.9435698070784
 10
-54.66402273192564
 20
-405.4436491700683
 10
-59.663943864412175
 20
-414.1037666053723
 10
-59.66394390586321
 20
-415.1036872423824
 10
-54.66402277337667
 20
-423.76380467768644
 10
-90.86418050840362
 20
-486.4643171167605
  0
LWPOLYLINE
  5
5A
330
17
100
AcDbEntity
  8
frame
100
AcDbPolyline
 90
25
 70
0
 10
-100.86402274762428
 20
-177.7016120546682
 10
-90.86418048265121
 20
-177.70161205466823
 10
-54.66402274762429
 20
-240.40212449374238
 10
-59.66394388011082
 20
-249.06224192904637
 10
-59.66394392156186
 20
-250.06216256605646
 10
-54.66402278907532
 20
-258.72228000136045
 10
-53.79799734383983
 20
-259.2223593643503
 10
-43.79815507886677
 20
-259.2223593643504
 10
-7.59799734383985
 20
-321.9228718034245
 10
-12.59791847632637
 20
-330.5829892387285
 10
-84.99823394638022
 20
-330.5829892387285
 10
-89.99815507886677
 20
-321.92287180342447
 10
-90.86418052410227
 20
-321.4227924404346
 10
-100.86402278907532
 20
-321.4227924404346
 10
-101.73004815140872
 20
-321.9228718034245
 10
-106.72996928389526
 20
-330.5829892387285
 10
-179.13028475394913
 20
-330.5829892387285
 10
-184.13020588643565
 20
-321.92287180342447
 10
-147.9300481514087
 20
-259.2223593643503
 10
-137.93020588643566
 20
-259.2223593643504
 10
-137.06418052410226
 20
-258.72228000136045
 10
-132.0642593916157
 20
-250.06216256605646
 10
-132.06425935016466
 20
-249.06224192904637
 10
-137.0641804826512
 20
-240.40212449374235
 10
-100.86402274762428
 20
-177.7016120546682
  0
LWPOLYLINE
  5
5B
330
17
100
AcDbEntity
  8
frame
100
AcDbPolyline
 90
25
 70
0
 10
-292.5922259778998
 20
-177.7016120546682
 10
-282.59238371292673
 20
-177.70161205466823
 10
-246.39222597789978
 20
-240.40212449374238
 10
-251.3921471103863
 20
-249.06224192904637
 10
-251.39214715183735
 20
-250.06216256605646
 10
-246.3922260193508
 20
-258.72228000136045
 10
-245.52620057411534
 20
-259.2223593643503
 10
-235.52635830914227
 20
-259.2223593643504
 10
-199.32620057411535
 20
-321.9228718034245
 10
-204.32612170660187
 20
-330.5829892387285
 10
-276.72643717665574
 20
-330.5829892387285
 10
-281.72635830914226
 20
-321.92287180342447
 10
-282.59238375437775
 20
-321.4227924404346
 10
-292.59222601935085
 20
-321.4227924404346
 10
-293.45825138168425
 20
-321.9228718034245
 10
-298.45817251417077
 20
-330.5829892387285
 10
-370.8584879842246
 20
-330.5829892387285
 10
-375.8584091167112
 20
-321.92287180342447
 10
-339.6582513816842
 20
-259.2223593643503
 10
-329.65840911671114
 20
-259.2223593643504
 10
-328.79238375437774
 20
-258.72228000136045
 10
-323.7924626218912
 20
-250.06216256605646
 10
-323.7924625804402
 20
-249.06224192904637
 10
-328.7923837129267
 20
-240.40212449374235
 10
-292.5922259778998
 20
-177.7016120546682
  0
LWPOLYLINE
  5
5C
330
17
100
AcDbEntity
  8
frame
100
AcDbPolyline
 90
25
 70
0
 10
4.999921106734138
 20
-320.4228224973963
 10
-4.999921158238924
 20
-320.4228224973963
 10
-41.20007889326585
 20
-257.72231005832214
 10
-36.20015776077931
 20
-249.06219262301815
 10
-36.200157719328274
 20
-248.06227198600806
 10
-41.200078851814816
 20
-239.40215455070404
 10
-42.0661042970503
 20
-238.9020751877142
 10
-52.06594656202336
 20
-238.90207518771416
 10
-88.26610429705029
 20
-176.20156274864001
 10
-83.26618316456377
 20
-167.54144531333603
 10
-10.865867694509904
 20
-167.54144531333603
 10
-5.865946562023361
 20
-176.20156274864004
 10
-4.999921116787873
 20
-176.7016421116299
 10
4.999921148185188
 20
-176.70164211162992
 10
5.865946510518589
 20
-176.20156274864001
 10
10.865867643005123
 20
-167.54144531333603
 10
83.26618311305897
 20
-167.54144531333603
 10
88.26610424554552
 20
-176.20156274864001
 10
52.06594651051858
 20
-238.90207518771416
 10
42.06610424554552
 20
-238.90207518771416
 10
41.200078883212115
 20
-239.40215455070407
 10
36.20015775072558
 20
-248.06227198600806
 10
36.20015770927454
 20
-249.06219262301815
 10
41.20007884176108
 20
-257.7223100583222
 10
4.999921106734138
 20
-320.4228224973963
  0
LWPOLYLINE
  5
5D
330
17
100
AcDbEntity
  8
frame
100
AcDbPolyline
 90
25
 70
0
 10
-186.72828212354136
 20
-320.4228224973963
 10
-196.72812438851443
 20
-320.4228224973963
 10
-232.92828212354135
 20
-257.72231005832214
 10
-227.92836099105483
 20
-249.06219262301815
 10
-227.92836094960379
 20
-248.06227198600806
 10
-232.92828208209033
 20
-239.40215455070404
 10
-233.79430752732583
 20
-238.9020751877142
 10
-243.79414979229887
 20
-238.90207518771416
 10
-279.9943075273258
 20
-176.20156274864001
 10
-274.9943863948393
 20
-167.54144531333603
 10
-202.59407092478543
 20
-167.54144531333603
 10
-197.59414979229888
 20
-176.20156274864004
 10
-196.72812434706339
 20
-176.7016421116299
 10
-186.72828208209032
 20
-176.70164211162992
 10
-185.8622567197569
 20
-176.20156274864001
 10
-180.8623355872704
 20
-167.54144531333603
 10
-108.46202011721654
 20
-167.54144531333603
 10
-103.46209898472999
 20
-176.20156274864001
 10
-139.66225671975693
 20
-238.90207518771416
 10
-149.66209898473
 20
-238.90207518771416
 10
-150.5281243470634
 20
-239.40215455070407
 10
-155.52804547954992
 20
-248.06227198600806
 10
-155.52804552100096
 20
-249.06219262301815
 10
-150.5281243885144
 20
-257.7223100583222
 10
-186.72828212354136
 20
-320.4228224973963
  0
LWPOLYLINE
  5
5E
330
17
100
AcDbEntity
  8
frame
100
AcDbPolyline
 90
25
 70
0
 10
-196.72812436276203
 20
-11.66011743530396
 10
-186.72828209778896
 20
-11.660117435303988
 10
-150.52812436276204
 20
-74.36062987437813
 10
-155.5280454952486
 20
-83.02074730968212
 10
-155.5280455366996
 20
-84.02066794669221
 10
-150.5281244042131
 20
-92.68078538199623
 10
-149.6620989589776
 20
-93.1808647449861
 10
-139.66225669400453
 20
-93.18086474498611
 10
-103.4620989589776
 20
-155.88137718406026
 10
-108.46202009146413
 20
-164.54149461936424
 10
-180.862335561518
 20
-164.54149461936424
 10
-185.86225669400454
 20
-155.88137718406023
 10
-186.72828213924
 20
-155.38129782107038
 10
-196.72812440421308
 20
-155.38129782107035
 10
-197.59414976654648
 20
-155.88137718406028
 10
-202.594070899033
 20
-164.54149461936424
 10
-274.9943863690869
 20
-164.54149461936424
 10
-279.9943075015734
 20
-155.88137718406026
 10
-243.79414976654647
 20
-93.18086474498611
 10
-233.7943075015734
 20
-93.18086474498612
 10
-232.92828213924
 20
-92.68078538199622
 10
-227.92836100675348
 20
-84.02066794669221
 10
-227.92836096530243
 20
-83.02074730968212
 10
-232.92828209778898
 20
-74.3606298743781
 10
-196.72812436276203
 20
-11.66011743530396
  0
LWPOLYLINE
  5
5F
330
17
100
AcDbEntity
  8
frame
100
AcDbPolyline
 90
25
 70
0
 10
-282.59238373867913
 20
-154.38132787803207
 10
-292.5922260036522
 20
-154.38132787803204
 10
-328.7923837386791
 20
-91.68081543895791
 10
-323.79246260619254
 20
-83.02069800365392
 10
-323.7924625647415
 20
-82.02077736664381
 10
-328.79238369722805
 20
-73.3606599313398
 10
-329.65840914246354
 20
-72.86058056834995
 10
-339.65825140743664
 20
-72.86058056834992
 10
-375.85840914246353
 20
-10.160068129275778
 10
-370.858488009977
 20
-1.4999506939717904
 10
-298.45817253992317
 20
-1.4999506939717904
 10
-293.4582514074366
 20
-10.160068129275793
 10
-292.5922259622011
 20
-10.660147492265665
 10
-282.59238369722806
 20
-10.66014749226568
 10
-281.72635833489466
 20
-10.160068129275764
 10
-276.72643720240814
 20
-1.4999506939717762
 10
-204.3261217323543
 20
-1.4999506939717762
 10
-199.32620059986772
 20
-10.160068129275786
 10
-235.52635833489467
 20
-72.86058056834993
 10
-245.52620059986774
 20
-72.86058056834992
 10
-246.39222596220114
 20
-73.36065993133982
 10
-251.3921470946877
 20
-82.02077736664381
 10
-251.3921471361387
 20
-83.02069800365392
 10
-246.39222600365218
 20
-91.68081543895792
 10
-282.59238373867913
 20
-154.38132787803207
  0
LWPOLYLINE
  5
60
330
17
100
AcDbEntity
  8
frame
100
AcDbPolyline
 90
25
 70
0
 10
-100.86402277337667
 20
-154.38132787803204
 10
-137.0641805084036
 20
-91.68081543895791
 10
-132.06425937591706
 20
-83.02069800365392
 10
-132.06425933446604
 20
-82.02077736664381
 10
-137.06418046695256
 20
-73.3606599313398
 10
-137.93020591218806
 20
-72.86058056834995
 10
-147.93004817716113
 20
-72.86058056834992
 10
-184.13020591218805
 20
-10.160068129275778
 10
-179.13028477970153
 20
-1.4999506939717904
 10
-106.72996930964766
 20
-1.4999506939717904
 10
-101.73004817716112
 20
-10.160068129275793
 10
-100.86402273192563
 20
-10.660147492265665
 10
-90.86418046695256
 20
-10.66014749226568
 10
-89.99815510461917
 20
-10.160068129275764
 10
-84.99823397213264
 20
-1.4999506939717762
 10
-12.597918502078784
 20
-1.4999506939717762
 10
-7.597997369592235
 20
-10.160068129275786
 10
-43.79815510461918
 20
-72.86058056834993
 10
-53.79799736959224
 20
-72.86058056834992
 10
-54.66402273192564
 20
-73.36065993133982
 10
-59.663943864412175
 20
-82.02077736664381
 10
-59.66394390586321
 20
-83.02069800365392
 10
-54.66402277337667
 20
-91.68081543895792
 10
-90.86418050840362
 20
-154.38132787803207
 10
-100.86402277337667
 20
-154.38132787803204
  0
LWPOLYLINE
  5
61
330
17
100
AcDbEntity
  8
frame
100
AcDbPolyline
 90
25
 70
0
 10
-282.59238371292673
 20
154.38137718406026
 10
-246.39222597789978
 20
91.68086474498611
 10
-251.3921471103863
 20
83.02074730968212
 10
-251.39214715183735
 20
82.02082667267203
 10
-246.3922260193508
 20
73.36070923736801
 10
-245.52620057411534
 20
72.86062987437815
 10
-235.52635830914227
 20
72.86062987437813
 10
-199.32620057411535
 20
10.160117435303988
 10
-204.32612170660187
 20
1.5
 10
-276.72643717665574
 20
1.5
 10
-281.72635830914226
 20
10.160117435304002
 10
-282.59238375437775
 20
10.660196798293875
 10
-292.59222601935085
 20
10.660196798293889
 10
-293.45825138168425
 20
10.160117435303974
 10
-298.45817251417077
 20
1.4999999999999858
 10
-370.8584879842246
 20
1.4999999999999858
 10
-375.8584091167112
 20
10.160117435303995
 10
-339.6582513816842
 20
72.86062987437813
 10
-329.65840911671114
 20
72.86062987437812
 10
-328.79238375437774
 20
73.36070923736803
 10
-323.7924626218912
 20
82.02082667267203
 10
-323.7924625804402
 20
83.02074730968212
 10
-328.7923837129267
 20
91.68086474498614
 10
-292.5922259778998
 20
154.38137718406028
 10
-282.59238371292673
 20
154.38137718406026
  0
LWPOLYLINE
  5
62
330
17
100
AcDbEntity
  8
frame
100
AcDbPolyline
 90
25
 70
0
 10
-100.86402274762428
 20
154.38137718406028
 10
-90.86418048265121
 20
154.38137718406026
 10
-54.66402274762429
 20
91.68086474498611
 10
-59.66394388011082
 20
83.02074730968212
 10
-59.66394392156186
 20
82.02082667267203
 10
-54.66402278907532
 20
73.36070923736801
 10
-53.79799734383983
 20
72.86062987437815
 10
-43.79815507886677
 20
72.86062987437813
 10
-7.59799734383985
 20
10.160117435303988
 10
-12.59791847632637
 20
1.5
 10
-84.99823394638022
 20
1.5
 10
-89.99815507886677
 20
10.160117435304002
 10
-90.86418052410227
 20
10.660196798293875
 10
-100.86402278907532
 20
10.660196798293889
 10
-101.73004815140872
 20
10.160117435303974
 10
-106.72996928389526
 20
1.4999999999999858
 10
-179.13028475394913
 20
1.4999999999999858
 10
-184.13020588643565
 20
10.160117435303995
 10
-147.9300481514087
 20
72.86062987437813
 10
-137.93020588643566
 20
72.86062987437812
 10
-137.06418052410226
 20
73.36070923736803
 10
-132.0642593916157
 20
82.02082667267203
 10
-132.06425935016466
 20
83.02074730968212
 10
-137.0641804826512
 20
91.68086474498614
 10
-100.86402274762428
 20
154.38137718406028
  0
LWPOLYLINE
  5
63
330
17
100
AcDbEntity
  8
frame
100
AcDbPolyline
 90
25
 70
0
 10
-186.72828212354136
 20
11.660166741332176
 10
-196.72812438851443
 20
11.660166741332205
 10
-232.92828212354135
 20
74.36067918040634
 10
-227.92836099105483
 20
83.02079661571032
 10
-227.92836094960379
 20
84.02071725272043
 10
-232.92828208209033
 20
92.68083468802445
 10
-233.79430752732583
 20
93.1809140510143
 10
-243.79414979229887
 20
93.18091405101433
 10
-279.9943075273258
 20
155.88142649008847
 10
-274.9943863948393
 20
164.54154392539246
 10
-202.59407092478543
 20
164.54154392539246
 10
-197.59414979229888
 20
155.88142649008844
 10
-196.72812434706339
 20
155.3813471270986
 10
-186.72828208209032
 20
155.38134712709856
 10
-185.8622567197569
 20
155.88142649008847
 10
-180.8623355872704
 20
164.54154392539246
 10
-108.46202011721654
 20
164.54154392539246
 10
-103.46209898472999
 20
155.88142649008847
 10
-139.66225671975693
 20
93.18091405101431
 10
-149.66209898473
 20
93.18091405101433
 10
-150.5281243470634
 20
92.68083468802442
 10
-155.52804547954992
 20
84.02071725272043
 10
-155.52804552100096
 20
83.02079661571032
 10
-150.5281243885144
 20
74.36067918040632
 10
-186.72828212354136
 20
11.660166741332176
  0
LWPOLYLINE
  5
64
330
17
100
AcDbEntity
  8
frame
100
AcDbPolyline
 90
25
 70
0
 10
4.999921106734138
 20
11.660166741332176
 10
-4.999921158238924
 20
11.660166741332205
 10
-41.20007889326585
 20
74.36067918040634
 10
-36.20015776077931
 20
83.02079661571032
 10
-36.200157719328274
 20
84.02071725272043
 10
-41.200078851814816
 20
92.68083468802445
 10
-42.0661042970503
 20
93.1809140510143
 10
-52.06594656202336
 20
93.18091405101433
 10
-88.26610429705029
 20
155.88142649008847
 10
-83.26618316456377
 20
164.54154392539246
 10
-10.865867694509904
 20
164.54154392539246
 10
-5.865946562023361
 20
155.88142649008844
 10
-4.999921116787873
 20
155.3813471270986
 10
4.999921148185188
 20
155.38134712709856
 10
5.865946510518589
 20
155.88142649008847
 10
10.865867643005123
 20
164.54154392539246
 10
83.26618311305897
 20
164.54154392539246
 10
88.26610424554552
 20
155.88142649008847
 10
52.06594651051858
 20
93.18091405101431
 10
42.06610424554552
 20
93.18091405101433
 10
41.200078883212115
 20
92.68083468802442
 10
36.20015775072558
 20
84.02071725272043
 10
36.20015770927454
 20
83.02079661571032
 10
41.20007884176108
 20
74.36067918040632
 10
4.999921106734138
 20
11.660166741332176
  0
LWPOLYLINE
  5
65
330
17
100
AcDbEntity
  8
frame
100
AcDbPolyline
 90
25
 70
0
 10
-196.72812436276203
 20
320.4228718034245
 10
-186.72828209778896
 20
320.4228718034245
 10
-150.52812436276204
 20
257.7223593643504
 10
-155.5280454952486
 20
249.06224192904637
 10
-155.5280455366996
 20
248.06232129203627
 10
-150.5281244042131
 20
239.40220385673226
 10
-149.6620989589776
 20
238.9021244937424
 10
-139.66225669400453
 20
238.90212449374238
 10
-103.4620989589776
 20
176.20161205466823
 10
-108.46202009146413
 20
167.54149461936424
 10
-180.862335561518
 20
167.54149461936424
 10
-185.86225669400454
 20
176.20161205466826
 10
-186.72828213924
 20
176.7016914176581
 10
-196.72812440421308
 20
176.70169141765814
 10
-197.59414976654648
 20
176.2016120546682
 10
-202.594070899033
 20
167.54149461936424
 10
-274.9943863690869
 20
167.54149461936424
 10
-279.9943075015734
 20
176.20161205466823
 10
-243.79414976654647
 20
238.90212449374238
 10
-233.7943075015734
 20
238.90212449374238
 10
-232.92828213924
 20
239.40220385673229
 10
-227.92836100675348
 20
248.06232129203627
 10
-227.92836096530243
 20
249.06224192904637
 10
-232.92828209778898
 20
257.7223593643504
 10
-196.72812436276203
 20
320.4228718034245
  0
LWPOLYLINE
  5
66
330
17
100
AcDbEntity
  8
frame
100
AcDbPolyline
 90
25
 70
0
 10
-282.59238373867913
 20
177.70166136069642
 10
-292.5922260036522
 20
177.70166136069645
 10
-328.7923837386791
 20
240.4021737997706
 10
-323.79246260619254
 20
249.06229123507458
 10
-323.7924625647415
 20
250.06221187208467
 10
-328.79238369722805
 20
258.7223293073887
 10
-329.65840914246354
 20
259.22240867037857
 10
-339.65825140743664
 20
259.22240867037857
 10
-375.85840914246353
 20
321.9229211094527
 10
-370.858488009977
 20
330.5830385447567
 10
-298.45817253992317
 20
330.5830385447567
 10
-293.4582514074366
 20
321.9229211094527
 10
-292.5922259622011
 20
321.42284174646284
 10
-282.59238369722806
 20
321.42284174646284
 10
-281.72635833489466
 20
321.9229211094527
 10
-276.72643720240814
 20
330.58303854475673
 10
-204.3261217323543
 20
330.58303854475673
 10
-199.32620059986772
 20
321.9229211094527
 10
-235.52635833489467
 20
259.22240867037857
 10
-245.52620059986774
 20
259.22240867037857
 10
-246.39222596220114
 20
258.7223293073887
 10
-251.3921470946877
 20
250.06221187208467
 10
-251.3921471361387
 20
249.06229123507458
 10
-246.39222600365218
 20
240.40217379977057
 10
-282.59238373867913
 20
177.70166136069642
  0
LWPOLYLINE
  5
67
330
17
100
AcDbEntity
  8
frame
100
AcDbPolyline
 90
25
 70
0
 10
-90.86418050840362
 20
177.70166136069642
 10
-100.86402277337667
 20
177.70166136069645
 10
-137.0641805084036
 20
240.4021737997706
 10
-132.06425937591706
 20
249.06229123507458
 10
-132.06425933446604
 20
250.06221187208467
 10
-137.06418046695256
 20
258.7223293073887
 10
-137.93020591218806
 20
259.22240867037857
 10
-147.93004817716113
 20
259.22240867037857
 10
-184.13020591218805
 20
321.9229211094527
 10
-179.13028477970153
 20
330.5830385447567
 10
-106.72996930964766
 20
330.5830385447567
 10
-101.73004817716112
 20
321.9229211094527
 10
-100.86402273192563
 20
321.42284174646284
 10
-90.86418046695256
 20
321.42284174646284
 10
-89.99815510461917
 20
321.9229211094527
 10
-84.99823397213264
 20
330.58303854475673
 10
-12.597918502078784
 20
330.58303854475673
 10
-7.597997369592235
 20
321.9229211094527
 10
-43.79815510461918
 20
259.22240867037857
 10
-53.79799736959224
 20
259.22240867037857
 10
-54.66402273192564
 20
258.7223293073887
 10
-59.663943864412175
 20
250.06221187208467
 10
-59.66394390586321
 20
249.06229123507458
 10
-54.66402277337667
 20
240.40217379977057
 10
-90.86418050840362
 20
177.70166136069642
  0
LWPOLYLINE
  5
68
330
17
100
AcDbEntity
  8
frame
100
AcDbPolyline
 90
25
 70
0
 10
-100.86402274762428
 20
486.46436642278877
 10
-90.86418048265121
 20
486.46436642278877
 10
-54.66402274762429
 20
423.7638539837146
 10
-59.66394388011082
 20
415.1037365484106
 10
-59.66394392156186
 20
414.1038159114005
 10
-54.66402278907532
 20
405.44369847609653
 10
-53.79799734383983
 20
404.94361911310665
 10
-43.79815507886677
 20
404.9436191131066
 10
-7.59799734383985
 20
342.24310667403245
 10
-12.59791847632637
 20
333.5829892387285
 10
-84.99823394638022
 20
333.5829892387285
 10
-89.99815507886677
 20
342.2431066740325
 10
-90.86418052410227
 20
342.7431860370224
 10
-100.86402278907532
 20
342.7431860370224
 10
-101.73004815140872
 20
342.24310667403245
 10
-106.72996928389526
 20
333.5829892387285
 10
-179.13028475394913
 20
333.5829892387285
 10
-184.13020588643565
 20
342.2431066740325
 10
-147.9300481514087
 20
404.94361911310665
 10
-137.93020588643566
 20
404.9436191131066
 10
-137.06418052410226
 20
405.44369847609653
 10
-132.0642593916157
 20
414.1038159114005
 10
-132.06425935016466
 20
415.1037365484106
 10
-137.0641804826512
 20
423.7638539837146
 10
-100.86402274762428
 20
486.46436642278877
  0
LWPOLYLINE
  5
69
330
17
100
AcDbEntity
  8
frame
100
AcDbPolyline
 90
25
 70
0
 10
-292.5922259778998
 20
486.46436642278877
 10
-282.59238371292673
 20
486.46436642278877
 10
-246.39222597789978
 20
423.7638539837146
 10
-251.3921471103863
 20
415.1037365484106
 10
-251.39214715183735
 20
414.1038159114005
 10
-246.3922260193508
 20
405.44369847609653
 10
-245.52620057411534
 20
404.94361911310665
 10
-235.52635830914227
 20
404.9436191131066
 10
-199.32620057411535
 20
342.24310667403245
 10
-204.32612170660187
 20
333.5829892387285
 10
-276.72643717665574
 20
333.5829892387285
 10
-281.72635830914226
 20
342.2431066740325
 10
-282.59238375437775
 20
342.7431860370224
 10
-292.59222601935085
 20
342.7431860370224
 10
-293.45825138168425
 20
342.24310667403245
 10
-298.45817251417077
 20
333.5829892387285
 10
-370.8584879842246
 20
333.5829892387285
 10
-375.8584091167112
 20
342.2431066740325
 10
-339.6582513816842
 20
404.94361911310665
 10
-329.65840911671114
 20
404.9436191131066
 10
-328.79238375437774
 20
405.44369847609653
 10
-323.7924626218912
 20
414.1038159114005
 10
-323.7924625804402
 20
415.1037365484106
 10
-328.7923837129267
 20
423.7638539837146
 10
-292.5922259778998
 20
486.46436642278877
  0
LWPOLYLINE
  5
6A
330
17
100
AcDbEntity
  8
frame
100
AcDbPolyline
 90
25
 70
0
 10
-186.72828212354136
 20
343.7431559800607
 10
-196.72812438851443
 20
343.7431559800607
 10
-232.92828212354135
 20
406.44366841913484
 10
-227.92836099105483
 20
415.1037858544388
 10
-227.92836094960379
 20
416.1037064914489
 10
-232.92828208209033
 20
424.76382392675293
 10
-233.79430752732583
 20
425.2639032897428
 10
-243.79414979229887
 20
425.2639032897428
 10
-279.9943075273258
 20
487.96441572881696
 10
-274.9943863948393
 20
496.6245331641209
 10
-202.59407092478543
 20
496.6245331641209
 10
-197.59414979229888
 20
487.96441572881696
 10
-196.72812434706339
 20
487.4643363658271
 10
-186.72828208209032
 20
487.4643363658271
 10
-185.8622567197569
 20
487.96441572881696
 10
-180.8623355872704
 20
496.624533164121
 10
-108.46202011721654
 20
496.624533164121
 10
-103.46209898472999
 20
487.96441572881696
 10
-139.66225671975693
 20
425.2639032897428
 10
-149.66209898473
 20
425.2639032897428
 10
-150.5281243470634
 20
424.76382392675293
 10
-155.52804547954992
 20
416.1037064914489
 10
-155.52804552100096
 20
415.1037858544388
 10
-150.5281243885144
 20
406.4436684191348
 10
-186.72828212354136
 20
343.7431559800607
  0
LWPOLYLINE
  5
6B
330
17
100
AcDbEntity
  8
frame
100
AcDbPolyline
 90
25
 70
0
 10
4.999921106734138
 20
343.7431559800607
 10
-4.999921158238924
 20
343.7431559800607
 10
-41.20007889326585
 20
406.44366841913484
 10
-36.20015776077931
 20
415.1037858544388
 10
-36.200157719328274
 20
416.1037064914489
 10
-41.200078851814816
 20
424.76382392675293
 10
-42.0661042970503
 20
425.2639032897428
 10
-52.06594656202336
 20
425.2639032897428
 10
-88.26610429705029
 20
487.96441572881696
 10
-83.26618316456377
 20
496.6245331641209
 10
-10.865867694509904
 20
496.6245331641209
 10
-5.865946562023361
 20
487.96441572881696
 10
-4.999921116787873
 20
487.4643363658271
 10
4.999921148185188
 20
487.4643363658271
 10
5.865946510518589
 20
487.96441572881696
 10
10.865867643005123
 20
496.624533164121
 10
83.26618311305897
 20
496.624533164121
 10
88.26610424554552
 20
487.96441572881696
 10
52.06594651051858
 20
425.2639032897428
 10
42.06610424554552
 20
425.2639032897428
 10
41.200078883212115
 20
424.76382392675293
 10
36.20015775072558
 20
416.1037064914489
 10
36.20015770927454
 20
415.1037858544388
 10
41.20007884176108
 20
406.4436684191348
 10
4.999921106734138
 20
343.7431559800607
  0
LWPOLYLINE
  5
6C
330
17
100
AcDbEntity
  8
frame
100
AcDbPolyline
 90
7
 70
0
 10
-88.2661042712979
 20
508.28460129339686
 10
-52.06594653627096
 20
570.985113732471
 10
-42.066104271297895
 20
570.985113732471
 10
-5.865946536270968
 20
508.2846012933968
 10
-10.865867668757502
 20
499.62448385809284
 10
-83.26618313881136
 20
499.62448385809284
 10
-88.2661042712979
 20
508.28460129339686
  0
LWPOLYLINE
  5
6D
330
17
100
AcDbEntity
  8
frame
100
AcDbPolyline
 90
7
 70
0
 10
-279.9943075015734
 20
508.28460129339675
 10
-243.79414976654647
 20
570.9851137324708
 10
-233.7943075015734
 20
570.9851137324708
 10
-197.59414976654648
 20
508.2846012933967
 10
-202.594070899033
 20
499.62448385809273
 10
-274.9943863690869
 20
499.62448385809273
 10
-279.9943075015734
 20
508.28460129339675
  0
LWPOLYLINE
  5
6E
330
17
100
AcDbEntity
  8
frame
100
AcDbPolyline
 90
7
 70
0
 10
-185.86225669400454
 20
508.28460129339675
 10
-149.6620989589776
 20
570.9851137324708
 10
-139.66225669400453
 20
570.9851137324708
 10
-103.4620989589776
 20
508.2846012933967
 10
-108.46202009146413
 20
499.62448385809273
 10
-180.862335561518
 20
499.62448385809273
 10
-185.86225669400454
 20
508.28460129339675
  0
LWPOLYLINE
  5
6F
330
17
100
AcDbEntity
  8
frame
100
AcDbPolyline
 90
7
 70
0
 10
-150.5281244042131
 20
571.4851930954608
 10
-186.72828213924
 20
508.7846806563866
 10
-196.72812440421308
 20
508.7846806563866
 10
-232.92828213924
 20
571.4851930954608
 10
-227.92836100675348
 20
580.1453105307647
 10
-155.5280455366996
 20
580.1453105307647
 10
-150.5281244042131
 20
571.4851930954608
  0
LWPOLYLINE
  5
70
330
17
100
AcDbEntity
  8
frame
100
AcDbPolyline
 90
7
 70
0
 10
41.20007882606244
 20
571.4851930954609
 10
4.999921091035494
 20
508.78468065638674
 10
-4.999921173937567
 20
508.78468065638674
 10
-41.20007890896449
 20
571.4851930954609
 10
-36.20015777647796
 20
580.1453105307648
 10
36.200157693575896
 20
580.1453105307648
 10
41.20007882606244
 20
571.4851930954609
  0
LWPOLYLINE
  5
71
330
17
100
AcDbEntity
  8
frame
100
AcDbPolyline
 90
7
 70
0
 10
-90.86418050840362
 20
509.78465059942494
 10
-100.86402277337667
 20
509.78465059942494
 10
-137.0641805084036
 20
572.4851630384991
 10
-132.06425937591706
 20
581.145280473803
 10
-59.66394390586321
 20
581.145280473803
 10
-54.66402277337667
 20
572.4851630384991
 10
-90.86418050840362
 20
509.78465059942494
  0
LWPOLYLINE
  5
72
330
17
100
AcDbEntity
  8
frame
100
AcDbPolyline
 90
7
 70
0
 10
-100.86402273192563
 20
653.5058309851913
 10
-90.86418046695256
 20
653.5058309851913
 10
-54.66402273192564
 20
590.8053185461172
 10
-59.663943864412175
 20
582.1452011108131
 10
-132.06425933446604
 20
582.1452011108131
 10
-137.06418046695256
 20
590.8053185461172
 10
-100.86402273192563
 20
653.5058309851913
  0
LWPOLYLINE
  5
73
330
17
100
AcDbEntity
  8
frame
100
AcDbPolyline
 90
7
 70
0
 10
137.0641804412002
 20
-590.805269240089
 10
100.86402270617324
 20
-653.5057816791632
 10
90.86418044120019
 20
-653.5057816791632
 10
54.66402270617326
 20
-590.805269240089
 10
59.6639438386598
 20
-582.1451518047851
 10
132.06425930871364
 20
-582.1451518047851
 10
137.0641804412002
 20
-590.805269240089
  0
LWPOLYLINE
  5
74
330
17
100
AcDbEntity
  8
frame
100
AcDbPolyline
 90
7
 70
0
 10
54.664022747624294
 20
-572.485113732471
 10
90.86418048265124
 20
-509.7846012933968
 10
100.8640227476243
 20
-509.7846012933968
 10
137.06418048265124
 20
-572.485113732471
 10
132.0642593501647
 20
-581.1452311677749
 10
59.663943880110835
 20
-581.1452311677749
 10
54.664022747624294
 20
-572.485113732471
  0
LWPOLYLINE
  5
75
330
17
100
AcDbEntity
  8
frame
100
AcDbPolyline
 90
7
 70
0
 10
150.5281243784607
 20
-571.4851437894326
 10
186.72828211348764
 20
-508.7846313503585
 10
196.7281243784607
 20
-508.7846313503585
 10
232.92828211348763
 20
-571.4851437894326
 10
227.9283609810011
 20
-580.1452612247367
 10
155.52804551094724
 20
-580.1452612247367
 10
150.5281243784607
 20
-571.4851437894326
  0
LWPOLYLINE
  5
76
330
17
100
AcDbEntity
  8
frame
100
AcDbPolyline
 90
7
 70
0
 10
-41.200078851814816
 20
-571.4851437894325
 10
-4.999921116787873
 20
-508.7846313503584
 10
4.999921148185188
 20
-508.7846313503584
 10
41.200078883212115
 20
-571.4851437894325
 10
36.20015775072558
 20
-580.1452612247365
 10
-36.200157719328274
 20
-580.1452612247365
 10
-41.200078851814816
 20
-571.4851437894325
  0
LWPOLYLINE
  5
77
330
17
100
AcDbEntity
  8
frame
100
AcDbPolyline
 90
7
 70
0
 10
185.86225666825214
 20
-508.2845519873686
 10
149.6620989332252
 20
-570.9850644264428
 10
139.66225666825216
 20
-570.9850644264428
 10
103.46209893322522
 20
-508.2845519873686
 10
108.46202006571174
 20
-499.62443455206466
 10
180.8623355357656
 20
-499.62443455206466
 10
185.86225666825214
 20
-508.2845519873686
  0
LWPOLYLINE
  5
78
330
17
100
AcDbEntity
  8
frame
100
AcDbPolyline
 90
7
 70
0
 10
279.994307475821
 20
-508.2845519873686
 10
243.7941497407941
 20
-570.9850644264428
 10
233.79430747582103
 20
-570.9850644264427
 10
197.5941497407941
 20
-508.2845519873686
 10
202.59407087328063
 20
-499.6244345520646
 10
274.9943863433345
 20
-499.6244345520646
 10
279.994307475821
 20
-508.2845519873686
  0
LWPOLYLINE
  5
79
330
17
100
AcDbEntity
  8
frame
100
AcDbPolyline
 90
7
 70
0
 10
88.26610424554552
 20
-508.2845519873685
 10
52.06594651051858
 20
-570.9850644264427
 10
42.06610424554552
 20
-570.9850644264426
 10
5.865946510518589
 20
-508.2845519873685
 10
10.865867643005123
 20
-499.6244345520645
 10
83.26618311305897
 20
-499.6244345520645
 10
88.26610424554552
 20
-508.2845519873685
  0
LWPOLYLINE
  5
7A
330
17
100
AcDbEntity
  8
frame
100
AcDbPolyline
 90
25
 70
0
 10
-4.9999211324865165
 20
-343.74310667403245
 10
4.999921132486545
 20
-343.74310667403245
 10
41.20007886751347
 20
-406.4436191131066
 10
36.200157735026934
 20
-415.1037365484106
 10
36.200157693575896
 20
-416.10365718542073
 10
41.20007882606244
 20
-424.7637746207247
 10
42.066104271297924
 20
-425.26385398371457
 10
52.065946536270985
 20
-425.2638539837146
 10
88.2661042712979
 20
-487.96436642278877
 10
83.26618313881139
 20
-496.62448385809273
 10
10.865867668757524
 20
-496.62448385809273
 10
5.865946536270982
 20
-487.9643664227887
 10
4.999921091035494
 20
-487.46428705979883
 10
-4.999921173937567
 20
-487.46428705979883
 10
-5.865946536270968
 20
-487.96436642278877
 10
-10.865867668757502
 20
-496.62448385809273
 10
-83.26618313881136
 20
-496.62448385809273
 10
-88.2661042712979
 20
-487.9643664227887
 10
-52.06594653627096
 20
-425.26385398371457
 10
-42.066104271297895
 20
-425.2638539837146
 10
-41.20007890896449
 20
-424.7637746207247
 10
-36.20015777647796
 20
-416.10365718542073
 10
-36.20015773502692
 20
-415.1037365484106
 10
-41.20007886751346
 20
-406.4436191131066
 10
-4.9999211324865165
 20
-343.74310667403245
  0
LWPOLYLINE
  5
7B
330
17
100
AcDbEntity
  8
frame
100
AcDbPolyline
 90
25
 70
0
 10
186.728282097789
 20
-343.74310667403245
 10
196.72812436276206
 20
-343.74310667403245
 10
232.92828209778898
 20
-406.4436191131066
 10
227.92836096530243
 20
-415.1037365484106
 10
227.92836092385141
 20
-416.10365718542073
 10
232.92828205633793
 20
-424.7637746207247
 10
233.79430750157343
 20
-425.26385398371457
 10
243.7941497665465
 20
-425.2638539837146
 10
279.9943075015734
 20
-487.96436642278877
 10
274.9943863690869
 20
-496.62448385809273
 10
202.59407089903303
 20
-496.62448385809273
 10
197.59414976654648
 20
-487.9643664227887
 10
196.72812432131101
 20
-487.46428705979883
 10
186.72828205633795
 20
-487.46428705979883
 10
185.86225669400454
 20
-487.96436642278877
 10
180.86233556151802
 20
-496.62448385809273
 10
108.46202009146415
 20
-496.62448385809273
 10
103.4620989589776
 20
-487.9643664227887
 10
139.66225669400455
 20
-425.26385398371457
 10
149.66209895897762
 20
-425.2638539837146
 10
150.52812432131103
 20
-424.7637746207247
 10
155.52804545379755
 20
-416.10365718542073
 10
155.5280454952486
 20
-415.1037365484106
 10
150.52812436276204
 20
-406.4436191131066
 10
186.728282097789
 20
-343.74310667403245
  0
LWPOLYLINE
  5
7C
330
17
100
AcDbEntity
  8
frame
100
AcDbPolyline
 90
25
 70
0
 10
100.86402272187189
 20
-486.4643171167605
 10
90.86418045689884
 20
-486.4643171167605
 10
54.66402272187191
 20
-423.7638046776864
 10
59.66394385435844
 20
-415.1036872423824
 10
59.66394389580948
 20
-414.1037666053723
 10
54.66402276332294
 20
-405.4436491700683
 10
53.797997318087454
 20
-404.9435698070784
 10
43.79815505311439
 20
-404.9435698070784
 10
7.597997318087465
 20
-342.24305736800426
 10
12.597918450573985
 20
-333.5829399327003
 10
84.99823392062785
 20
-333.5829399327003
 10
89.99815505311439
 20
-342.24305736800426
 10
90.86418049834988
 20
-342.74313673099414
 10
100.86402276332295
 20
-342.74313673099414
 10
101.73004812565634
 20
-342.24305736800426
 10
106.72996925814287
 20
-333.58293993270024
 10
179.13028472819673
 20
-333.58293993270024
 10
184.13020586068328
 20
-342.24305736800426
 10
147.93004812565633
 20
-404.9435698070784
 10
137.93020586068326
 20
-404.9435698070784
 10
137.06418049834986
 20
-405.4436491700683
 10
132.06425936586334
 20
-414.1037666053723
 10
132.0642593244123
 20
-415.1036872423824
 10
137.06418045689884
 20
-423.76380467768644
 10
100.86402272187189
 20
-486.4643171167605
  0
LWPOLYLINE
  5
7D
330
17
100
AcDbEntity
  8
frame
100
AcDbPolyline
 90
25
 70
0
 10
292.5922259521474
 20
-486.4643171167605
 10
282.59238368717433
 20
-486.4643171167605
 10
246.3922259521474
 20
-423.7638046776864
 10
251.39214708463393
 20
-415.1036872423824
 10
251.39214712608498
 20
-414.1037666053723
 10
246.39222599359843
 20
-405.4436491700683
 10
245.52620054836297
 20
-404.9435698070784
 10
235.5263582833899
 20
-404.9435698070784
 10
199.32620054836298
 20
-342.24305736800426
 10
204.3261216808495
 20
-333.5829399327003
 10
276.72643715090334
 20
-333.5829399327003
 10
281.7263582833899
 20
-342.24305736800426
 10
282.5923837286254
 20
-342.74313673099414
 10
292.59222599359845
 20
-342.74313673099414
 10
293.45825135593185
 20
-342.24305736800426
 10
298.45817248841837
 20
-333.58293993270024
 10
370.8584879584722
 20
-333.58293993270024
 10
375.8584090909588
 20
-342.24305736800426
 10
339.65825135593184
 20
-404.9435698070784
 10
329.6584090909588
 20
-404.9435698070784
 10
328.7923837286254
 20
-405.4436491700683
 10
323.7924625961388
 20
-414.1037666053723
 10
323.7924625546878
 20
-415.1036872423824
 10
328.7923836871743
 20
-423.76380467768644
 10
292.5922259521474
 20
-486.4643171167605
  0
LWPOLYLINE
  5
7E
330
17
100
AcDbEntity
  8
frame
100
AcDbPolyline
 90
25
 70
0
 10
90.86418048265124
 20
-177.7016120546682
 10
100.8640227476243
 20
-177.70161205466823
 10
137.06418048265124
 20
-240.40212449374238
 10
132.0642593501647
 20
-249.06224192904637
 10
132.06425930871364
 20
-250.06216256605646
 10
137.0641804412002
 20
-258.72228000136045
 10
137.9302058864357
 20
-259.2223593643503
 10
147.93004815140876
 20
-259.2223593643504
 10
184.13020588643565
 20
-321.9228718034245
 10
179.13028475394913
 20
-330.5829892387285
 10
106.72996928389529
 20
-330.5829892387285
 10
101.73004815140874
 20
-321.92287180342447
 10
100.86402270617324
 20
-321.4227924404346
 10
90.86418044120019
 20
-321.4227924404346
 10
89.99815507886679
 20
-321.9228718034245
 10
84.99823394638025
 20
-330.5829892387285
 10
12.597918476326399
 20
-330.5829892387285
 10
7.59799734383985
 20
-321.92287180342447
 10
43.7981550788668
 20
-259.2223593643503
 10
53.79799734383986
 20
-259.2223593643504
 10
54.66402270617326
 20
-258.72228000136045
 10
59.6639438386598
 20
-250.06216256605646
 10
59.663943880110835
 20
-249.06224192904637
 10
54.664022747624294
 20
-240.40212449374235
 10
90.86418048265124
 20
-177.7016120546682
  0
LWPOLYLINE
  5
7F
330
17
100
AcDbEntity
  8
frame
100
AcDbPolyline
 90
25
 70
0
 10
196.72812433700966
 20
-320.4228224973963
 10
186.7282820720366
 20
-320.4228224973963
 10
150.52812433700967
 20
-257.72231005832214
 10
155.5280454694962
 20
-249.06219262301815
 10
155.52804551094724
 20
-248.06227198600806
 10
150.5281243784607
 20
-239.40215455070404
 10
149.6620989332252
 20
-238.9020751877142
 10
139.66225666825216
 20
-238.90207518771416
 10
103.46209893322522
 20
-176.20156274864001
 10
108.46202006571174
 20
-167.54144531333603
 10
180.8623355357656
 20
-167.54144531333603
 10
185.86225666825214
 20
-176.20156274864004
 10
186.72828211348764
 20
-176.7016421116299
 10
196.7281243784607
 20
-176.70164211162992
 10
197.5941497407941
 20
-176.20156274864001
 10
202.59407087328063
 20
-167.54144531333603
 10
274.9943863433345
 20
-167.54144531333603
 10
279.994307475821
 20
-176.20156274864001
 10
243.7941497407941
 20
-238.90207518771416
 10
233.79430747582103
 20
-238.90207518771416
 10
232.92828211348763
 20
-239.40215455070407
 10
227.9283609810011
 20
-248.06227198600806
 10
227.92836093955006
 20
-249.06219262301815
 10
232.9282820720366
 20
-257.7223100583222
 10
196.72812433700966
 20
-320.4228224973963
  0
LWPOLYLINE
  5
80
330
17
100
AcDbEntity
  8
frame
100
AcDbPolyline
 90
25
 70
0
 10
-4.9999211324865165
 20
-11.66011743530396
 10
4.999921132486545
 20
-11.660117435303988
 10
41.20007886751347
 20
-74.36062987437813
 10
36.200157735026934
 20
-83.02074730968212
 10
36.200157693575896
 20
-84.02066794669221
 10
41.20007882606244
 20
-92.68078538199623
 10
42.066104271297924
 20
-93.1808647449861
 10
52.065946536270985
 20
-93.18086474498611
 10
88.2661042712979
 20
-155.88137718406026
 10
83.26618313881139
 20
-164.54149461936424
 10
10.865867668757524
 20
-164.54149461936424
 10
5.865946536270982
 20
-155.88137718406023
 10
4.999921091035494
 20
-155.38129782107038
 10
-4.999921173937567
 20
-155.38129782107035
 10
-5.865946536270968
 20
-155.88137718406028
 10
-10.865867668757502
 20
-164.54149461936424
 10
-83.26618313881136
 20
-164.54149461936424
 10
-88.2661042712979
 20
-155.88137718406026
 10
-52.06594653627096
 20
-93.18086474498611
 10
-42.066104271297895
 20
-93.18086474498612
 10
-41.20007890896449
 20
-92.68078538199622
 10
-36.20015777647796
 20
-84.02066794669221
 10
-36.20015773502692
 20
-83.02074730968212
 10
-41.20007886751346
 20
-74.3606298743781
 10
-4.9999211324865165
 20
-11.66011743530396
  0
LWPOLYLINE
  5
81
330
17
100
AcDbEntity
  8
frame
100
AcDbPolyline
 90
25
 70
0
 10
186.728282097789
 20
-11.66011743530396
 10
196.72812436276206
 20
-11.660117435303988
 10
232.92828209778898
 20
-74.36062987437813
 10
227.92836096530243
 20
-83.02074730968212
 10
227.92836092385141
 20
-84.02066794669221
 10
232.92828205633793
 20
-92.68078538199623
 10
233.79430750157343
 20
-93.1808647449861
 10
243.7941497665465
 20
-93.18086474498611
 10
279.9943075015734
 20
-155.88137718406026
 10
274.9943863690869
 20
-164.54149461936424
 10
202.59407089903303
 20
-164.54149461936424
 10
197.59414976654648
 20
-155.88137718406023
 10
196.72812432131101
 20
-155.38129782107038
 10
186.72828205633795
 20
-155.38129782107035
 10
185.86225669400454
 20
-155.88137718406028
 10
180.86233556151802
 20
-164.54149461936424
 10
108.46202009146415
 20
-164.54149461936424
 10
103.4620989589776
 20
-155.88137718406026
 10
139.66225669400455
 20
-93.18086474498611
 10
149.66209895897762
 20
-93.18086474498612
 10
150.52812432131103
 20
-92.68078538199622
 10
155.52804545379755
 20
-84.02066794669221
 10
155.5280454952486
 20
-83.02074730968212
 10
150.52812436276204
 20
-74.3606298743781
 10
186.728282097789
 20
-11.66011743530396
  0
LWPOLYLINE
  5
82
330
17
100
AcDbEntity
  8
frame
100
AcDbPolyline
 90
25
 70
0
 10
90.86418045689884
 20
-154.38132787803204
 10
54.66402272187191
 20
-91.68081543895791
 10
59.66394385435844
 20
-83.02069800365392
 10
59.66394389580948
 20
-82.02077736664381
 10
54.66402276332294
 20
-73.3606599313398
 10
53.797997318087454
 20
-72.86058056834995
 10
43.79815505311439
 20
-72.86058056834992
 10
7.597997318087465
 20
-10.160068129275778
 10
12.597918450573985
 20
-1.4999506939717904
 10
84.99823392062785
 20
-1.4999506939717904
 10
89.99815505311439
 20
-10.160068129275793
 10
90.86418049834988
 20
-10.660147492265665
 10
100.86402276332295
 20
-10.66014749226568
 10
101.73004812565634
 20
-10.160068129275764
 10
106.72996925814287
 20
-1.4999506939717762
 10
179.13028472819673
 20
-1.4999506939717762
 10
184.13020586068328
 20
-10.160068129275786
 10
147.93004812565633
 20
-72.86058056834993
 10
137.93020586068326
 20
-72.86058056834992
 10
137.06418049834986
 20
-73.36065993133982
 10
132.06425936586334
 20
-82.02077736664381
 10
132.0642593244123
 20
-83.02069800365392
 10
137.06418045689884
 20
-91.68081543895792
 10
100.86402272187189
 20
-154.38132787803207
 10
90.86418045689884
 20
-154.38132787803204
  0
LWPOLYLINE
  5
83
330
17
100
AcDbEntity
  8
frame
100
AcDbPolyline
 90
25
 70
0
 10
282.59238368717433
 20
-154.38132787803204
 10
246.3922259521474
 20
-91.68081543895791
 10
251.39214708463393
 20
-83.02069800365392
 10
251.39214712608498
 20
-82.02077736664381
 10
246.39222599359843
 20
-73.3606599313398
 10
245.52620054836297
 20
-72.86058056834995
 10
235.5263582833899
 20
-72.86058056834992
 10
199.32620054836298
 20
-10.160068129275778
 10
204.3261216808495
 20
-1.4999506939717904
 10
276.72643715090334
 20
-1.4999506939717904
 10
281.7263582833899
 20
-10.160068129275793
 10
282.5923837286254
 20
-10.660147492265665
 10
292.59222599359845
 20
-10.66014749226568
 10
293.45825135593185
 20
-10.160068129275764
 10
298.45817248841837
 20
-1.4999506939717762
 10
370.8584879584722
 20
-1.4999506939717762
 10
375.8584090909588
 20
-10.160068129275786
 10
339.65825135593184
 20
-72.86058056834993
 10
329.6584090909588
 20
-72.86058056834992
 10
328.7923837286254
 20
-73.36065993133982
 10
323.7924625961388
 20
-82.02077736664381
 10
323.7924625546878
 20
-83.02069800365392
 10
328.7923836871743
 20
-91.68081543895792
 10
292.5922259521474
 20
-154.38132787803207
 10
282.59238368717433
 20
-154.38132787803204
  0
LWPOLYLINE
  5
84
330
17
100
AcDbEntity
  8
frame
100
AcDbPolyline
 90
25
 70
0
 10
282.59238371292673
 20
154.38137718406028
 10
292.5922259778998
 20
154.38137718406026
 10
328.7923837129267
 20
91.68086474498611
 10
323.7924625804402
 20
83.02074730968212
 10
323.7924625389891
 20
82.02082667267203
 10
328.7923836714757
 20
73.36070923736801
 10
329.6584091167112
 20
72.86062987437815
 10
339.65825138168424
 20
72.86062987437813
 10
375.8584091167112
 20
10.160117435303988
 10
370.85848798422467
 20
1.5
 10
298.45817251417077
 20
1.5
 10
293.45825138168425
 20
10.160117435304002
 10
292.59222593644876
 20
10.660196798293875
 10
282.59238367147566
 20
10.660196798293889
 10
281.72635830914226
 20
10.160117435303974
 10
276.72643717665574
 20
1.4999999999999858
 10
204.3261217066019
 20
1.4999999999999858
 10
199.32620057411535
 20
10.160117435303995
 10
235.5263583091423
 20
72.86062987437813
 10
245.52620057411536
 20
72.86062987437812
 10
246.39222593644877
 20
73.36070923736803
 10
251.3921470689353
 20
82.02082667267203
 10
251.39214711038633
 20
83.02074730968212
 10
246.39222597789978
 20
91.68086474498614
 10
282.59238371292673
 20
154.38137718406028
  0
LWPOLYLINE
  5
85
330
17
100
AcDbEntity
  8
frame
100
AcDbPolyline
 90
25
 70
0
 10
90.86418048265124
 20
154.38137718406028
 10
100.8640227476243
 20
154.38137718406026
 10
137.06418048265124
 20
91.68086474498611
 10
132.0642593501647
 20
83.02074730968212
 10
132.06425930871364
 20
82.02082667267203
 10
137.0641804412002
 20
73.36070923736801
 10
137.9302058864357
 20
72.86062987437815
 10
147.93004815140876
 20
72.86062987437813
 10
184.13020588643565
 20
10.160117435303988
 10
179.13028475394913
 20
1.5
 10
106.72996928389529
 20
1.5
 10
101.73004815140874
 20
10.160117435304002
 10
100.86402270617324
 20
10.660196798293875
 10
90.86418044120019
 20
10.660196798293889
 10
89.99815507886679
 20
10.160117435303974
 10
84.99823394638025
 20
1.4999999999999858
 10
12.597918476326399
 20
1.4999999999999858
 10
7.59799734383985
 20
10.160117435303995
 10
43.7981550788668
 20
72.86062987437813
 10
53.79799734383986
 20
72.86062987437812
 10
54.66402270617326
 20
73.36070923736803
 10
59.6639438386598
 20
82.02082667267203
 10
59.663943880110835
 20
83.02074730968212
 10
54.664022747624294
 20
91.68086474498614
 10
90.86418048265124
 20
154.38137718406028
  0
LWPOLYLINE
  5
86
330
17
100
AcDbEntity
  8
frame
100
AcDbPolyline
 90
25
 70
0
 10
196.72812433700966
 20
11.660166741332176
 10
186.7282820720366
 20
11.660166741332205
 10
150.52812433700967
 20
74.36067918040634
 10
155.5280454694962
 20
83.02079661571032
 10
155.52804551094724
 20
84.02071725272043
 10
150.5281243784607
 20
92.68083468802445
 10
149.6620989332252
 20
93.1809140510143
 10
139.66225666825216
 20
93.18091405101433
 10
103.46209893322522
 20
155.88142649008847
 10
108.46202006571174
 20
164.54154392539246
 10
180.8623355357656
 20
164.54154392539246
 10
185.86225666825214
 20
155.88142649008844
 10
186.72828211348764
 20
155.3813471270986
 10
196.7281243784607
 20
155.38134712709856
 10
197.5941497407941
 20
155.88142649008847
 10
202.59407087328063
 20
164.54154392539246
 10
274.9943863433345
 20
164.54154392539246
 10
279.994307475821
 20
155.88142649008847
 10
243.7941497407941
 20
93.18091405101431
 10
233.79430747582103
 20
93.18091405101433
 10
232.92828211348763
 20
92.68083468802442
 10
227.9283609810011
 20
84.02071725272043
 10
227.92836093955006
 20
83.02079661571032
 10
232.9282820720366
 20
74.36067918040632
 10
196.72812433700966
 20
11.660166741332176
  0
LWPOLYLINE
  5
87
330
17
100
AcDbEntity
  8
frame
100
AcDbPolyline
 90
25
 70
0
 10
186.728282097789
 20
320.4228718034245
 10
196.72812436276206
 20
320.4228718034245
 10
232.92828209778898
 20
257.7223593643504
 10
227.92836096530243
 20
249.06224192904637
 10
227.92836092385141
 20
248.06232129203627
 10
232.92828205633793
 20
239.40220385673226
 10
233.79430750157343
 20
238.9021244937424
 10
243.7941497665465
 20
238.90212449374238
 10
279.9943075015734
 20
176.20161205466823
 10
274.9943863690869
 20
167.54149461936424
 10
202.59407089903303
 20
167.54149461936424
 10
197.59414976654648
 20
176.20161205466826
 10
196.72812432131101
 20
176.7016914176581
 10
186.72828205633795
 20
176.70169141765814
 10
185.86225669400454
 20
176.2016120546682
 10
180.86233556151802
 20
167.54149461936424
 10
108.46202009146415
 20
167.54149461936424
 10
103.4620989589776
 20
176.20161205466823
 10
139.66225669400455
 20
238.90212449374238
 10
149.66209895897762
 20
238.90212449374238
 10
150.52812432131103
 20
239.40220385673229
 10
155.52804545379755
 20
248.06232129203627
 10
155.5280454952486
 20
249.06224192904637
 10
150.52812436276204
 20
257.7223593643504
 10
186.728282097789
 20
320.4228718034245
  0
LWPOLYLINE
  5
88
330
17
100
AcDbEntity
  8
frame
100
AcDbPolyline
 90
25
 70
0
 10
-4.9999211324865165
 20
320.4228718034245
 10
4.999921132486545
 20
320.4228718034245
 10
41.20007886751347
 20
257.7223593643504
 10
36.200157735026934
 20
249.06224192904637
 10
36.200157693575896
 20
248.06232129203627
 10
41.20007882606244
 20
239.40220385673226
 10
42.066104271297924
 20
238.9021244937424
 10
52.065946536270985
 20
238.90212449374238
 10
88.2661042712979
 20
176.20161205466823
 10
83.26618313881139
 20
167.54149461936424
 10
10.865867668757524
 20
167.54149461936424
 10
5.865946536270982
 20
176.20161205466826
 10
4.999921091035494
 20
176.7016914176581
 10
-4.999921173937567
 20
176.70169141765814
 10
-5.865946536270968
 20
176.2016120546682
 10
-10.865867668757502
 20
167.54149461936424
 10
-83.26618313881136
 20
167.54149461936424
 10
-88.2661042712979
 20
176.20161205466823
 10
-52.06594653627096
 20
238.90212449374238
 10
-42.066104271297895
 20
238.90212449374238
 10
-41.20007890896449
 20
239.40220385673229
 10
-36.20015777647796
 20
248.06232129203627
 10
-36.20015773502692
 20
249.06224192904637
 10
-41.20007886751346
 20
257.7223593643504
 10
-4.9999211324865165
 20
320.4228718034245
  0
LWPOLYLINE
  5
89
330
17
100
AcDbEntity
  8
frame
100
AcDbPolyline
 90
25
 70
0
 10
100.86402272187189
 20
177.70166136069642
 10
90.86418045689884
 20
177.70166136069645
 10
54.66402272187191
 20
240.4021737997706
 10
59.66394385435844
 20
249.06229123507458
 10
59.66394389580948
 20
250.06221187208467
 10
54.66402276332294
 20
258.7223293073887
 10
53.797997318087454
 20
259.22240867037857
 10
43.79815505311439
 20
259.22240867037857
 10
7.597997318087465
 20
321.9229211094527
 10
12.597918450573985
 20
330.5830385447567
 10
84.99823392062785
 20
330.5830385447567
 10
89.99815505311439
 20
321.9229211094527
 10
90.86418049834988
 20
321.42284174646284
 10
100.86402276332295
 20
321.42284174646284
 10
101.73004812565634
 20
321.9229211094527
 10
106.72996925814287
 20
330.58303854475673
 10
179.13028472819673
 20
330.58303854475673
 10
184.13020586068328
 20
321.9229211094527
 10
147.93004812565633
 20
259.22240867037857
 10
137.93020586068326
 20
259.22240867037857
 10
137.06418049834986
 20
258.7223293073887
 10
132.06425936586334
 20
250.06221187208467
 10
132.0642593244123
 20
249.06229123507458
 10
137.06418045689884
 20
240.40217379977057
 10
100.86402272187189
 20
177.70166136069642
  0
LWPOLYLINE
  5
8A
330
17
100
AcDbEntity
  8
frame
100
AcDbPolyline
 90
25
 70
0
 10
292.5922259521474
 20
177.70166136069642
 10
282.59238368717433
 20
177.70166136069645
 10
246.3922259521474
 20
240.4021737997706
 10
251.39214708463393
 20
249.06229123507458
 10
251.39214712608498
 20
250.06221187208467
 10
246.39222599359843
 20
258.7223293073887
 10
245.52620054836297
 20
259.22240867037857
 10
235.5263582833899
 20
259.22240867037857
 10
199.32620054836298
 20
321.9229211094527
 10
204.3261216808495
 20
330.5830385447567
 10
276.72643715090334
 20
330.5830385447567
 10
281.7263582833899
 20
321.9229211094527
 10
282.5923837286254
 20
321.42284174646284
 10
292.59222599359845
 20
321.42284174646284
 10
293.45825135593185
 20
321.9229211094527
 10
298.45817248841837
 20
330.58303854475673
 10
370.8584879584722
 20
330.58303854475673
 10
375.8584090909588
 20
321.9229211094527
 10
339.65825135593184
 20
259.22240867037857
 10
329.6584090909588
 20
259.22240867037857
 10
328.7923837286254
 20
258.7223293073887
 10
323.7924625961388
 20
250.06221187208467
 10
323.7924625546878
 20
249.06229123507458
 10
328.7923836871743
 20
240.40217379977057
 10
292.5922259521474
 20
177.70166136069642
  0
LWPOLYLINE
  5
8B
330
17
100
AcDbEntity
  8
frame
100
AcDbPolyline
 90
25
 70
0
 10
90.86418048265124
 20
486.46436642278877
 10
100.8640227476243
 20
486.46436642278877
 10
137.06418048265124
 20
423.7638539837146
 10
132.0642593501647
 20
415.1037365484106
 10
132.06425930871364
 20
414.1038159114005
 10
137.0641804412002
 20
405.44369847609653
 10
137.9302058864357
 20
404.94361911310665
 10
147.93004815140876
 20
404.9436191131066
 10
184.13020588643565
 20
342.24310667403245
 10
179.13028475394913
 20
333.5829892387285
 10
106.72996928389529
 20
333.5829892387285
 10
101.73004815140874
 20
342.2431066740325
 10
100.86402270617324
 20
342.7431860370224
 10
90.86418044120019
 20
342.7431860370224
 10
89.99815507886679
 20
342.24310667403245
 10
84.99823394638025
 20
333.5829892387285
 10
12.597918476326399
 20
333.5829892387285
 10
7.59799734383985
 20
342.2431066740325
 10
43.7981550788668
 20
404.94361911310665
 10
53.79799734383986
 20
404.9436191131066
 10
54.66402270617326
 20
405.44369847609653
 10
59.6639438386598
 20
414.1038159114005
 10
59.663943880110835
 20
415.1037365484106
 10
54.664022747624294
 20
423.7638539837146
 10
90.86418048265124
 20
486.46436642278877
  0
LWPOLYLINE
  5
8C
330
17
100
AcDbEntity
  8
frame
100
AcDbPolyline
 90
25
 70
0
 10
282.59238371292673
 20
486.46436642278877
 10
292.5922259778998
 20
486.46436642278877
 10
328.7923837129267
 20
423.7638539837146
 10
323.7924625804402
 20
415.1037365484106
 10
323.7924625389891
 20
414.1038159114005
 10
328.7923836714757
 20
405.44369847609653
 10
329.6584091167112
 20
404.94361911310665
 10
339.65825138168424
 20
404.9436191131066
 10
375.8584091167112
 20
342.24310667403245
 10
370.85848798422467
 20
333.5829892387285
 10
298.45817251417077
 20
333.5829892387285
 10
293.45825138168425
 20
342.2431066740325
 10
292.59222593644876
 20
342.7431860370224
 10
282.59238367147566
 20
342.7431860370224
 10
281.72635830914226
 20
342.24310667403245
 10
276.72643717665574
 20
333.5829892387285
 10
204.3261217066019
 20
333.5829892387285
 10
199.32620057411535
 20
342.2431066740325
 10
235.5263583091423
 20
404.94361911310665
 10
245.52620057411536
 20
404.9436191131066
 10
246.39222593644877
 20
405.44369847609653
 10
251.3921470689353
 20
414.1038159114005
 10
251.39214711038633
 20
415.1037365484106
 10
246.39222597789978
 20
423.7638539837146
 10
282.59238371292673
 20
486.46436642278877
  0
LWPOLYLINE
  5
8D
330
17
100
AcDbEntity
  8
frame
100
AcDbPolyline
 90
25
 70
0
 10
196.72812433700966
 20
343.7431559800607
 10
186.7282820720366
 20
343.7431559800607
 10
150.52812433700967
 20
406.44366841913484
 10
155.5280454694962
 20
415.1037858544388
 10
155.52804551094724
 20
416.1037064914489
 10
150.5281243784607
 20
424.76382392675293
 10
149.6620989332252
 20
425.2639032897428
 10
139.66225666825216
 20
425.2639032897428
 10
103.46209893322522
 20
487.96441572881696
 10
108.46202006571174
 20
496.6245331641209
 10
180.8623355357656
 20
496.6245331641209
 10
185.86225666825214
 20
487.96441572881696
 10
186.72828211348764
 20
487.4643363658271
 10
196.7281243784607
 20
487.4643363658271
 10
197.5941497407941
 20
487.96441572881696
 10
202.59407087328063
 20
496.624533164121
 10
274.9943863433345
 20
496.624533164121
 10
279.994307475821
 20
487.96441572881696
 10
243.7941497407941
 20
425.2639032897428
 10
233.79430747582103
 20
425.2639032897428
 10
232.92828211348763
 20
424.76382392675293
 10
227.9283609810011
 20
416.1037064914489
 10
227.92836093955006
 20
415.1037858544388
 10
232.9282820720366
 20
406.4436684191348
 10
196.72812433700966
 20
343.7431559800607
  0
LWPOLYLINE
  5
8E
330
17
100
AcDbEntity
  8
frame
100
AcDbPolyline
 90
7
 70
0
 10
5.865946536270982
 20
508.28460129339686
 10
42.066104271297924
 20
570.985113732471
 10
52.065946536270985
 20
570.985113732471
 10
88.2661042712979
 20
508.2846012933968
 10
83.26618313881139
 20
499.62448385809284
 10
10.865867668757524
 20
499.62448385809284
 10
5.865946536270982
 20
508.28460129339686
  0
LWPOLYLINE
  5
8F
330
17
100
AcDbEntity
  8
frame
100
AcDbPolyline
 90
7
 70
0
 10
197.59414976654648
 20
508.28460129339675
 10
233.79430750157343
 20
570.9851137324708
 10
243.7941497665465
 20
570.9851137324708
 10
279.9943075015734
 20
508.2846012933967
 10
274.9943863690869
 20
499.62448385809273
 10
202.59407089903303
 20
499.62448385809273
 10
197.59414976654648
 20
508.28460129339675
  0
LWPOLYLINE
  5
90
330
17
100
AcDbEntity
  8
frame
100
AcDbPolyline
 90
7
 70
0
 10
103.4620989589776
 20
508.28460129339675
 10
139.66225669400455
 20
570.9851137324708
 10
149.66209895897762
 20
570.9851137324708
 10
185.86225669400454
 20
508.2846012933967
 10
180.86233556151802
 20
499.62448385809273
 10
108.46202009146415
 20
499.62448385809273
 10
103.4620989589776
 20
508.28460129339675
  0
LWPOLYLINE
  5
91
330
17
100
AcDbEntity
  8
frame
100
AcDbPolyline
 90
7
 70
0
 10
232.92828205633793
 20
571.4851930954608
 10
196.72812432131101
 20
508.7846806563866
 10
186.72828205633795
 20
508.7846806563866
 10
150.52812432131103
 20
571.4851930954608
 10
155.52804545379755
 20
580.1453105307647
 10
227.92836092385141
 20
580.1453105307647
 10
232.92828205633793
 20
571.4851930954608
  0
LWPOLYLINE
  5
92
330
17
100
AcDbEntity
  8
frame
100
AcDbPolyline
 90
7
 70
0
 10
137.06418045689884
 20
572.4851630384992
 10
100.86402272187189
 20
509.78465059942505
 10
90.86418045689884
 20
509.78465059942505
 10
54.66402272187191
 20
572.4851630384992
 10
59.66394385435844
 20
581.1452804738032
 10
132.0642593244123
 20
581.1452804738032
 10
137.06418045689884
 20
572.4851630384992
  0
LWPOLYLINE
  5
93
330
17
100
AcDbEntity
  8
frame
100
AcDbPolyline
 90
7
 70
0
 10
292.5922259521474
 20
509.78465059942494
 10
282.59238368717433
 20
509.78465059942494
 10
246.3922259521474
 20
572.4851630384991
 10
251.39214708463393
 20
581.145280473803
 10
323.7924625546878
 20
581.145280473803
 10
328.7923836871743
 20
572.4851630384991
 10
292.5922259521474
 20
509.78465059942494
  0
LWPOLYLINE
  5
94
330
17
100
AcDbEntity
  8
frame
100
AcDbPolyline
 90
7
 70
0
 10
90.86418049834988
 20
653.5058309851914
 10
100.86402276332295
 20
653.5058309851914
 10
137.06418049834986
 20
590.8053185461173
 10
132.06425936586334
 20
582.1452011108133
 10
59.66394389580948
 20
582.1452011108133
 10
54.66402276332294
 20
590.8053185461173
 10
90.86418049834988
 20
653.5058309851914
  0
LWPOLYLINE
  5
95
330
17
100
AcDbEntity
  8
frame
100
AcDbPolyline
 90
7
 70
0
 10
246.39222597789978
 20
-572.4851137324708
 10
282.59238371292673
 20
-509.7846012933967
 10
292.5922259778998
 20
-509.7846012933967
 10
328.7923837129267
 20
-572.4851137324708
 10
323.7924625804402
 20
-581.1452311677748
 10
251.39214711038633
 20
-581.1452311677748
 10
246.39222597789978
 20
-572.4851137324708
  0
LWPOLYLINE
  5
96
330
17
100
AcDbEntity
  8
frame
100
AcDbPolyline
 90
7
 70
0
 10
377.5904598985277
 20
-508.2845519873685
 10
341.39030216350073
 20
-570.9850644264427
 10
331.39045989852764
 20
-570.9850644264427
 10
295.19030216350075
 20
-508.2845519873685
 10
300.19022329598727
 20
-499.62443455206454
 10
372.5905387660411
 20
-499.62443455206454
 10
377.5904598985277
 20
-508.2845519873685
  0
LWPOLYLINE
  5
97
330
17
100
AcDbEntity
  8
frame
100
AcDbPolyline
 90
7
 70
0
 10
295.1903021892531
 20
-487.9643664227887
 10
331.3904599242801
 20
-425.26385398371457
 10
341.39030218925313
 20
-425.2638539837146
 10
377.59045992428
 20
-487.96436642278877
 10
372.5905387917935
 20
-496.62448385809273
 10
300.19022332173967
 20
-496.62448385809273
 10
295.1903021892531
 20
-487.9643664227887
  0
LWPOLYLINE
  5
98
330
17
100
AcDbEntity
  8
frame
100
AcDbPolyline
 90
7
 70
0
 10
342.25632759303755
 20
-406.4436191131066
 10
378.4564853280645
 20
-343.74310667403245
 10
388.45632759303754
 20
-343.74310667403245
 10
424.6564853280645
 20
-406.4436191131066
 10
419.65656419557797
 20
-415.1037365484106
 10
347.2562487255241
 20
-415.1037365484106
 10
342.25632759303755
 20
-406.4436191131066
  0
LWPOLYLINE
  5
99
330
17
100
AcDbEntity
  8
frame
100
AcDbPolyline
 90
7
 70
0
 10
473.45456151366545
 20
-342.24305736800426
 10
437.2544037786385
 20
-404.9435698070784
 10
427.2545615136654
 20
-404.9435698070784
 10
391.0544037786385
 20
-342.24305736800426
 10
396.05432491112504
 20
-333.5829399327003
 10
468.4546403811789
 20
-333.5829399327003
 10
473.45456151366545
 20
-342.24305736800426
  0
LWPOLYLINE
  5
9A
330
17
100
AcDbEntity
  8
frame
100
AcDbPolyline
 90
7
 70
0
 10
485.1864546119598
 20
-321.92287180342447
 10
521.3866123469867
 20
-259.2223593643503
 10
531.3864546119598
 20
-259.2223593643504
 10
567.5866123469867
 20
-321.9228718034245
 10
562.5866912145002
 20
-330.5829892387285
 10
490.1863757444463
 20
-330.5829892387285
 10
485.1864546119598
 20
-321.92287180342447
  0
LWPOLYLINE
  5
9B
330
17
100
AcDbEntity
  8
frame
100
AcDbPolyline
 90
7
 70
0
 10
391.05440380439086
 20
-321.92287180342447
 10
427.25456153941786
 20
-259.2223593643503
 10
437.2544038043909
 20
-259.2223593643504
 10
473.4545615394178
 20
-321.9228718034245
 10
468.4546404069313
 20
-330.5829892387285
 10
396.05432493687744
 20
-330.5829892387285
 10
391.05440380439086
 20
-321.92287180342447
  0
LWPOLYLINE
  5
9C
330
17
100
AcDbEntity
  8
frame
100
AcDbPolyline
 90
7
 70
0
 10
520.5205869017512
 20
-258.72228000136045
 10
484.3204291667243
 20
-321.4227924404346
 10
474.3205869017512
 20
-321.4227924404346
 10
438.1204291667243
 20
-258.72228000136045
 10
443.1203502992108
 20
-250.06216256605646
 10
515.5206657692647
 20
-250.06216256605646
 10
520.5205869017512
 20
-258.72228000136045
  0
LWPOLYLINE
  5
9D
330
17
100
AcDbEntity
  8
frame
100
AcDbPolyline
 90
25
 70
0
 10
282.59238371292673
 20
-177.7016120546682
 10
292.5922259778998
 20
-177.70161205466823
 10
328.7923837129267
 20
-240.40212449374238
 10
323.7924625804402
 20
-249.06224192904637
 10
323.7924625389891
 20
-250.06216256605646
 10
328.7923836714757
 20
-258.72228000136045
 10
329.6584091167112
 20
-259.2223593643503
 10
339.65825138168424
 20
-259.2223593643504
 10
375.8584091167112
 20
-321.9228718034245
 10
370.85848798422467
 20
-330.5829892387285
 10
298.45817251417077
 20
-330.5829892387285
 10
293.45825138168425
 20
-321.92287180342447
 10
292.59222593644876
 20
-321.4227924404346
 10
282.59238367147566
 20
-321.4227924404346
 10
281.72635830914226
 20
-321.9228718034245
 10
276.72643717665574
 20
-330.5829892387285
 10
204.3261217066019
 20
-330.5829892387285
 10
199.32620057411535
 20
-321.92287180342447
 10
235.5263583091423
 20
-259.2223593643503
 10
245.52620057411536
 20
-259.2223593643504
 10
246.39222593644877
 20
-258.72228000136045
 10
251.3921470689353
 20
-250.06216256605646
 10
251.39214711038633
 20
-249.06224192904637
 10
246.39222597789978
 20
-240.40212449374235
 10
282.59238371292673
 20
-177.7016120546682
  0
LWPOLYLINE
  5
9E
330
17
100
AcDbEntity
  8
frame
100
AcDbPolyline
 90
25
 70
0
 10
388.45632756728514
 20
-320.4228224973963
 10
378.4564853023121
 20
-320.4228224973963
 10
342.25632756728515
 20
-257.72231005832214
 10
347.25624869977173
 20
-249.06219262301815
 10
347.25624874122275
 20
-248.06227198600806
 10
342.2563276087362
 20
-239.40215455070404
 10
341.39030216350073
 20
-238.9020751877142
 10
331.39045989852764
 20
-238.90207518771416
 10
295.19030216350075
 20
-176.20156274864001
 10
300.19022329598727
 20
-167.54144531333603
 10
372.5905387660411
 20
-167.54144531333603
 10
377.5904598985277
 20
-176.20156274864004
 10
378.4564853437632
 20
-176.7016421116299
 10
388.4563276087362
 20
-176.70164211162992
 10
389.3223529710696
 20
-176.20156274864001
 10
394.32227410355614
 20
-167.54144531333603
 10
466.72258957361
 20
-167.54144531333603
 10
471.72251070609656
 20
-176.20156274864001
 10
435.5223529710696
 20
-238.90207518771416
 10
425.52251070609657
 20
-238.90207518771416
 10
424.65648534376317
 20
-239.40215455070407
 10
419.6565642112766
 20
-248.06227198600806
 10
419.6565641698256
 20
-249.06219262301815
 10
424.6564853023121
 20
-257.7223100583222
 10
388.45632756728514
 20
-320.4228224973963
  0
LWPOLYLINE
  5
9F
330
17
100
AcDbEntity
  8
frame
100
AcDbPolyline
 90
7
 70
0
 10
438.1204292081753
 20
-240.40212449374235
 10
474.3205869432023
 20
-177.7016120546682
 10
484.3204292081753
 20
-177.70161205466823
 10
520.5205869432023
 20
-240.40212449374238
 10
515.5206658107157
 20
-249.06224192904637
 10
443.12035034066184
 20
-249.06224192904637
 10
438.1204292081753
 20
-240.40212449374235
  0
LWPOLYLINE
  5
A0
330
17
100
AcDbEntity
  8
frame
100
AcDbPolyline
 90
7
 70
0
 10
533.9845308390117
 20
-239.40215455070404
 10
570.1846885740387
 20
-176.7016421116299
 10
580.1845308390117
 20
-176.70164211162992
 10
616.3846885740386
 20
-239.40215455070407
 10
611.3847674415521
 20
-248.06227198600806
 10
538.9844519714982
 20
-248.06227198600806
 10
533.9845308390117
 20
-239.40215455070404
  0
LWPOLYLINE
  5
A1
330
17
100
AcDbEntity
  8
frame
100
AcDbPolyline
 90
7
 70
0
 10
569.3186631288031
 20
-176.20156274864004
 10
533.1185053937762
 20
-238.9020751877142
 10
523.1186631288032
 20
-238.90207518771416
 10
486.91850539377623
 20
-176.20156274864001
 10
491.91842652626275
 20
-167.54144531333603
 10
564.3187419963166
 20
-167.54144531333603
 10
569.3186631288031
 20
-176.20156274864004
  0
LWPOLYLINE
  5
A2
330
17
100
AcDbEntity
  8
frame
100
AcDbPolyline
 90
7
 70
0
 10
486.9185054195286
 20
-155.88137718406026
 10
523.1186631545555
 20
-93.18086474498611
 10
533.1185054195286
 20
-93.18086474498612
 10
569.3186631545556
 20
-155.88137718406028
 10
564.318742022069
 20
-164.54149461936424
 10
491.91842655201515
 20
-164.54149461936424
 10
486.9185054195286
 20
-155.88137718406026
  0
LWPOLYLINE
  5
A3
330
17
100
AcDbEntity
  8
frame
100
AcDbPolyline
 90
7
 70
0
 10
616.3846885168889
 20
-92.68078538199623
 10
580.184530781862
 20
-155.38129782107038
 10
570.184688516889
 20
-155.38129782107035
 10
533.984530781862
 20
-92.68078538199622
 10
538.9844519143486
 20
-84.02066794669221
 10
611.3847673844024
 20
-84.02066794669221
 10
616.3846885168889
 20
-92.68078538199623
  0
LWPOLYLINE
  5
A4
330
17
100
AcDbEntity
  8
frame
100
AcDbPolyline
 90
25
 70
0
 10
388.45632759303754
 20
-11.660117435303988
 10
424.6564853280645
 20
-74.36062987437813
 10
419.65656419557797
 20
-83.02074730968212
 10
419.6565641541269
 20
-84.02066794669221
 10
424.6564852866135
 20
-92.68078538199623
 10
425.52251073184897
 20
-93.1808647449861
 10
435.522352996822
 20
-93.18086474498611
 10
471.72251073184896
 20
-155.88137718406026
 10
466.72258959936244
 20
-164.54149461936424
 10
394.32227412930854
 20
-164.54149461936424
 10
389.322352996822
 20
-155.88137718406023
 10
388.4563275515865
 20
-155.38129782107038
 10
378.45648528661343
 20
-155.38129782107035
 10
377.59045992428
 20
-155.88137718406028
 10
372.5905387917935
 20
-164.54149461936424
 10
300.19022332173967
 20
-164.54149461936424
 10
295.1903021892531
 20
-155.88137718406026
 10
331.3904599242801
 20
-93.18086474498611
 10
341.39030218925313
 20
-93.18086474498612
 10
342.25632755158654
 20
-92.68078538199622
 10
347.25624868407306
 20
-84.02066794669221
 10
347.2562487255241
 20
-83.02074730968212
 10
342.25632759303755
 20
-74.3606298743781
 10
378.4564853280645
 20
-11.66011743530396
 10
388.45632759303754
 20
-11.660117435303988
  0
LWPOLYLINE
  5
A5
330
17
100
AcDbEntity
  8
frame
100
AcDbPolyline
 90
25
 70
0
 10
474.3205869174499
 20
-154.38132787803204
 10
438.1204291824229
 20
-91.68081543895791
 10
443.1203503149095
 20
-83.02069800365392
 10
443.1203503563605
 20
-82.02077736664381
 10
438.120429223874
 20
-73.3606599313398
 10
437.2544037786385
 20
-72.86058056834995
 10
427.2545615136654
 20
-72.86058056834992
 10
391.0544037786385
 20
-10.160068129275778
 10
396.05432491112504
 20
-1.4999506939717904
 10
468.4546403811789
 20
-1.4999506939717904
 10
473.45456151366545
 20
-10.160068129275793
 10
474.32058695890095
 20
-10.660147492265665
 10
484.320429223874
 20
-10.66014749226568
 10
485.1864545862074
 20
-10.160068129275764
 10
490.1863757186939
 20
-1.4999506939717762
 10
562.5866911887477
 20
-1.4999506939717762
 10
567.5866123212343
 20
-10.160068129275786
 10
531.3864545862074
 20
-72.86058056834993
 10
521.3866123212343
 20
-72.86058056834992
 10
520.5205869589009
 20
-73.36065993133982
 10
515.5206658264144
 20
-82.02077736664381
 10
515.5206657849633
 20
-83.02069800365392
 10
520.5205869174499
 20
-91.68081543895792
 10
484.3204291824229
 20
-154.38132787803207
 10
474.3205869174499
 20
-154.38132787803204
  0
LWPOLYLINE
  5
A6
330
17
100
AcDbEntity
  8
frame
100
AcDbPolyline
 90
7
 70
0
 10
533.9845308233131
 20
-74.3606298743781
 10
570.18468855834
 20
-11.66011743530396
 10
580.184530823313
 20
-11.660117435303988
 10
616.38468855834
 20
-74.36062987437813
 10
611.3847674258534
 20
-83.02074730968212
 10
538.9844519557996
 20
-83.02074730968212
 10
533.9845308233131
 20
-74.3606298743781
  0
LWPOLYLINE
  5
A7
330
17
100
AcDbEntity
  8
frame
100
AcDbPolyline
 90
7
 70
0
 10
616.3846885325876
 20
74.36067918040632
 10
580.1845307975607
 20
11.660166741332176
 10
570.1846885325875
 20
11.660166741332205
 10
533.9845307975606
 20
74.36067918040634
 10
538.9844519300472
 20
83.02079661571032
 10
611.384767400101
 20
83.02079661571032
 10
616.3846885325876
 20
74.36067918040632
  0
LWPOLYLINE
  5
A8
330
17
100
AcDbEntity
  8
frame
100
AcDbPolyline
 90
25
 70
0
 10
474.3205869432023
 20
154.38137718406028
 10
484.3204292081753
 20
154.38137718406026
 10
520.5205869432023
 20
91.68086474498611
 10
515.5206658107157
 20
83.02074730968212
 10
515.5206657692647
 20
82.02082667267203
 10
520.5205869017512
 20
73.36070923736801
 10
521.3866123469867
 20
72.86062987437815
 10
531.3864546119598
 20
72.86062987437813
 10
567.5866123469867
 20
10.160117435303988
 10
562.5866912145002
 20
1.5
 10
490.1863757444463
 20
1.5
 10
485.1864546119598
 20
10.160117435304002
 10
484.3204291667243
 20
10.660196798293875
 10
474.3205869017512
 20
10.660196798293889
 10
473.4545615394178
 20
10.160117435303974
 10
468.4546404069313
 20
1.4999999999999858
 10
396.05432493687744
 20
1.4999999999999858
 10
391.05440380439086
 20
10.160117435303995
 10
427.25456153941786
 20
72.86062987437813
 10
437.2544038043909
 20
72.86062987437812
 10
438.1204291667243
 20
73.36070923736803
 10
443.1203502992108
 20
82.02082667267203
 10
443.12035034066184
 20
83.02074730968212
 10
438.1204292081753
 20
91.68086474498614
 10
474.3205869432023
 20
154.38137718406028
  0
LWPOLYLINE
  5
A9
330
17
100
AcDbEntity
  8
frame
100
AcDbPolyline
 90
25
 70
0
 10
388.45632756728514
 20
11.660166741332176
 10
378.4564853023121
 20
11.660166741332205
 10
342.25632756728515
 20
74.36067918040634
 10
347.25624869977173
 20
83.02079661571032
 10
347.25624874122275
 20
84.02071725272043
 10
342.2563276087362
 20
92.68083468802445
 10
341.39030216350073
 20
93.1809140510143
 10
331.39045989852764
 20
93.18091405101433
 10
295.19030216350075
 20
155.88142649008847
 10
300.19022329598727
 20
164.54154392539246
 10
372.5905387660411
 20
164.54154392539246
 10
377.5904598985277
 20
155.88142649008844
 10
378.4564853437632
 20
155.3813471270986
 10
388.4563276087362
 20
155.38134712709856
 10
389.3223529710696
 20
155.88142649008847
 10
394.32227410355614
 20
164.54154392539246
 10
466.72258957361
 20
164.54154392539246
 10
471.72251070609656
 20
155.88142649008847
 10
435.5223529710696
 20
93.18091405101431
 10
425.52251070609657
 20
93.18091405101433
 10
424.65648534376317
 20
92.68083468802442
 10
419.6565642112766
 20
84.02071725272043
 10
419.6565641698256
 20
83.02079661571032
 10
424.6564853023121
 20
74.36067918040632
 10
388.45632756728514
 20
11.660166741332176
  0
LWPOLYLINE
  5
AA
330
17
100
AcDbEntity
  8
frame
100
AcDbPolyline
 90
7
 70
0
 10
533.9845308390117
 20
92.68083468802445
 10
570.1846885740387
 20
155.3813471270986
 10
580.1845308390117
 20
155.38134712709856
 10
616.3846885740386
 20
92.68083468802442
 10
611.3847674415521
 20
84.02071725272043
 10
538.9844519714982
 20
84.02071725272043
 10
533.9845308390117
 20
92.68083468802445
  0
LWPOLYLINE
  5
AB
330
17
100
AcDbEntity
  8
frame
100
AcDbPolyline
 90
7
 70
0
 10
569.3186631288031
 20
155.88142649008844
 10
533.1185053937762
 20
93.1809140510143
 10
523.1186631288032
 20
93.18091405101433
 10
486.91850539377623
 20
155.88142649008847
 10
491.91842652626275
 20
164.54154392539246
 10
564.3187419963166
 20
164.54154392539246
 10
569.3186631288031
 20
155.88142649008844
  0
LWPOLYLINE
  5
AC
330
17
100
AcDbEntity
  8
frame
100
AcDbPolyline
 90
7
 70
0
 10
486.9185054195286
 20
176.20161205466823
 10
523.1186631545555
 20
238.90212449374238
 10
533.1185054195286
 20
238.90212449374238
 10
569.3186631545556
 20
176.2016120546682
 10
564.318742022069
 20
167.54149461936424
 10
491.91842655201515
 20
167.54149461936424
 10
486.9185054195286
 20
176.20161205466823
  0
LWPOLYLINE
  5
AD
330
17
100
AcDbEntity
  8
frame
100
AcDbPolyline
 90
7
 70
0
 10
616.3846885168889
 20
239.40220385673226
 10
580.184530781862
 20
176.7016914176581
 10
570.184688516889
 20
176.70169141765814
 10
533.984530781862
 20
239.40220385673229
 10
538.9844519143486
 20
248.06232129203627
 10
611.3847673844024
 20
248.06232129203627
 10
616.3846885168889
 20
239.40220385673226
  0
LWPOLYLINE
  5
AE
330
17
100
AcDbEntity
  8
frame
100
AcDbPolyline
 90
7
 70
0
 10
520.5205869174499
 20
240.40217379977057
 10
484.3204291824229
 20
177.70166136069642
 10
474.3205869174499
 20
177.70166136069645
 10
438.1204291824229
 20
240.4021737997706
 10
443.1203503149095
 20
249.06229123507458
 10
515.5206657849633
 20
249.06229123507458
 10
520.5205869174499
 20
240.40217379977057
  0
LWPOLYLINE
  5
AF
330
17
100
AcDbEntity
  8
frame
100
AcDbPolyline
 90
25
 70
0
 10
378.4564853280645
 20
320.4228718034245
 10
388.45632759303754
 20
320.4228718034245
 10
424.6564853280645
 20
257.7223593643504
 10
419.65656419557797
 20
249.06224192904637
 10
419.6565641541269
 20
248.06232129203627
 10
424.6564852866135
 20
239.40220385673226
 10
425.52251073184897
 20
238.9021244937424
 10
435.522352996822
 20
238.90212449374238
 10
471.72251073184896
 20
176.20161205466823
 10
466.72258959936244
 20
167.54149461936424
 10
394.32227412930854
 20
167.54149461936424
 10
389.322352996822
 20
176.20161205466826
 10
388.4563275515865
 20
176.7016914176581
 10
378.45648528661343
 20
176.70169141765814
 10
377.59045992428
 20
176.2016120546682
 10
372.5905387917935
 20
167.54149461936424
 10
300.19022332173967
 20
167.54149461936424
 10
295.1903021892531
 20
176.20161205466823
 10
331.3904599242801
 20
238.90212449374238
 10
341.39030218925313
 20
238.90212449374238
 10
342.25632755158654
 20
239.40220385673229
 10
347.25624868407306
 20
248.06232129203627
 10
347.2562487255241
 20
249.06224192904637
 10
342.25632759303755
 20
257.7223593643504
 10
378.4564853280645
 20
320.4228718034245
  0
LWPOLYLINE
  5
B0
330
17
100
AcDbEntity
  8
frame
100
AcDbPolyline
 90
7
 70
0
 10
438.120429223874
 20
258.7223293073887
 10
474.32058695890095
 20
321.42284174646284
 10
484.320429223874
 20
321.42284174646284
 10
520.5205869589009
 20
258.7223293073887
 10
515.5206658264144
 20
250.06221187208467
 10
443.1203503563605
 20
250.06221187208467
 10
438.120429223874
 20
258.7223293073887
  0
LWPOLYLINE
  5
B1
330
17
100
AcDbEntity
  8
frame
100
AcDbPolyline
 90
7
 70
0
 10
567.5866123212343
 20
321.9229211094527
 10
531.3864545862074
 20
259.22240867037857
 10
521.3866123212343
 20
259.22240867037857
 10
485.1864545862074
 20
321.9229211094527
 10
490.1863757186939
 20
330.58303854475673
 10
562.5866911887477
 20
330.58303854475673
 10
567.5866123212343
 20
321.9229211094527
  0
LWPOLYLINE
  5
B2
330
17
100
AcDbEntity
  8
frame
100
AcDbPolyline
 90
7
 70
0
 10
473.45456151366545
 20
321.9229211094527
 10
437.2544037786385
 20
259.22240867037857
 10
427.2545615136654
 20
259.22240867037857
 10
391.0544037786385
 20
321.9229211094527
 10
396.05432491112504
 20
330.5830385447567
 10
468.4546403811789
 20
330.5830385447567
 10
473.45456151366545
 20
321.9229211094527
  0
LWPOLYLINE
  5
B3
330
17
100
AcDbEntity
  8
frame
100
AcDbPolyline
 90
7
 70
0
 10
391.05440380439086
 20
342.2431066740325
 10
427.25456153941786
 20
404.94361911310665
 10
437.2544038043909
 20
404.9436191131066
 10
473.4545615394178
 20
342.24310667403245
 10
468.4546404069313
 20
333.5829892387285
 10
396.05432493687744
 20
333.5829892387285
 10
391.05440380439086
 20
342.2431066740325
  0
LWPOLYLINE
  5
B4
330
17
100
AcDbEntity
  8
frame
100
AcDbPolyline
 90
7
 70
0
 10
424.6564853023121
 20
406.4436684191348
 10
388.45632756728514
 20
343.7431559800607
 10
378.4564853023121
 20
343.7431559800607
 10
342.25632756728515
 20
406.44366841913484
 10
347.25624869977173
 20
415.1037858544388
 10
419.6565641698256
 20
415.1037858544388
 10
424.6564853023121
 20
406.4436684191348
  0
LWPOLYLINE
  5
B5
330
17
100
AcDbEntity
  8
frame
100
AcDbPolyline
 90
7
 70
0
 10
341.39030216350073
 20
425.2639032897428
 10
331.39045989852764
 20
425.2639032897428
 10
295.19030216350075
 20
487.96441572881696
 10
300.19022329598727
 20
496.6245331641209
 10
372.5905387660411
 20
496.6245331641209
 10
377.5904598985277
 20
487.96441572881696
 10
341.39030216350073
 20
425.2639032897428
  0
LWPOLYLINE
  5
B6
330
17
100
AcDbEntity
  8
frame
100
AcDbPolyline
 90
7
 70
0
 10
331.3904599242801
 20
570.9851137324708
 10
341.39030218925313
 20
570.9851137324708
 10
377.59045992428
 20
508.2846012933967
 10
372.5905387917935
 20
499.62448385809273
 10
300.19022332173967
 20
499.62448385809273
 10
295.1903021892531
 20
508.28460129339675
 10
331.3904599242801
 20
570.9851137324708
  0
ENDSEC
  0
SECTION
  2
OBJECTS
  0
DICTIONARY
  5
A
330
0
100
AcDbDictionary
280
0
281
1
  3
ACAD_COLOR
350
B
  3
ACAD_GROUP
350
C
  3
ACAD_LAYOUT
350
D
  3
ACAD_MATERIAL
350
E
  3
ACAD_MLEADERSTYLE
350
F
  3
ACAD_MLINESTYLE
350
10
  3
ACAD_PLOTSETTINGS
350
11
  3
ACAD_PLOTSTYLENAME
350
12
  3
ACAD_SCALELIST
350
14
  3
ACAD_TABLESTYLE
350
15
  3
ACAD_VISUALSTYLE
350
16
  3
EZDXF_META
350
2D
  0
DICTIONARY
  5
B
330
A
100
AcDbDictionary
280
0
281
1
  0
DICTIONARY
  5
C
330
A
100
AcDbDictionary
280
0
281
1
  0
DICTIONARY
  5
D
330
A
100
AcDbDictionary
280
0
281
1
  3
Model
350
1A
  3
Layout1
350
1E
  0
DICTIONARY
  5
E
330
A
100
AcDbDictionary
280
0
281
1
  3
ByBlock
350
1F
  3
ByLayer
350
20
  3
Global
350
21
  0
DICTIONARY
  5
F
330
A
100
AcDbDictionary
280
0
281
1
  3
Standard
350
2C
  0
DICTIONARY
  5
10
330
A
100
AcDbDictionary
280
0
281
1
  3
Standard
350
22
  0
DICTIONARY
  5
11
330
A
100
AcDbDictionary
280
0
281
1
  0
ACDBDICTIONARYWDFLT
  5
12
330
A
100
AcDbDictionary
280
0
281
1
  3
Normal
350
13
100
AcDbDictionaryWithDefault
340
13
  0
ACDBPLACEHOLDER
  5
13
330
12
  0
DICTIONARY
  5
14
330
A
100
AcDbDictionary
280
0
281
1
  0
DICTIONARY
  5
15
330
A
100
AcDbDictionary
280
0
281
1
  0
DICTIONARY
  5
16
330
A
100
AcDbDictionary
280
0
281
1
  0
LAYOUT
  5
1A
330
D
100
AcDbPlotSettings
  1

  2
Adobe PDF
  4
A3
  6

 40
7.5
 41
20.0
 42
7.5
 43
20.0
 44
420.0
 45
297.0
 46
0.0
 47
0.0
 48
0.0
 49
0.0
140
0.0
141
0.0
142
1.0
143
1.0
 70
1024
 72
1
 73
0
 74
5
  7

 75
16
 76
0
 77
2
 78
300
147
1.0
148
0.0
149
0.0
100
AcDbLayout
  1
Model
 70
1
 71
0
 10
0.0
 20
0.0
 11
420.0
 21
297.0
 12
0.0
 22
0.0
 32
0.0
 14
1e+20
 24
1e+20
 34
1e+20
 15
-1e+20
 25
-1e+20
 35
-1e+20
146
0.0
 13
0.0
 23
0.0
 33
0.0
 16
1.0
 26
0.0
 36
0.0
 17
0.0
 27
1.0
 37
0.0
 76
1
330
17
  0
LAYOUT
  5
1E
330
D
100
AcDbPlotSettings
  1

  2
Adobe PDF
  4
A3
  6

 40
7.5
 41
20.0
 42
7.5
 43
20.0
 44
420.0
 45
297.0
 46
0.0
 47
0.0
 48
0.0
 49
0.0
140
0.0
141
0.0
142
1.0
143
1.0
 70
0
 72
1
 73
0
 74
5
  7

 75
16
 76
0
 77
2
 78
300
147
1.0
148
0.0
149
0.0
100
AcDbLayout
  1
Layout1
 70
1
 71
1
 10
0.0
 20
0.0
 11
420.0
 21
297.0
 12
0.0
 22
0.0
 32
0.0
 14
1e+20
 24
1e+20
 34
1e+20
 15
-1e+20
 25
-1e+20
 35
-1e+20
146
0.0
 13
0.0
 23
0.0
 33
0.0
 16
1.0
 26
0.0
 36
0.0
 17
0.0
 27
1.0
 37
0.0
 76
1
330
1B
  0
MATERIAL
  5
1F
102
{ACAD_REACTORS
330
E
102
}
330
E
100
AcDbMaterial
  1
ByBlock
  2

 70
0
 40
1.0
 71
1
 41
1.0
 91
-1023410177
 42
1.0
 72
1
  3

 73
1
 74
1
 75
1
 44
0.5
 73
0
 45
1.0
 46
1.0
 77
1
  4

 78
1
 79
1
170
1
 48
1.0
171
1
  6

172
1
173
1
174
1
140
1.0
141
1.0
175
1
  7

176
1
177
1
178
1
143
1.0
179
1
  8

270
1
271
1
272
1
145
1.0
146
1.0
273
1
  9

274
1
275
1
276
1
 42
1.0
 72
1
  3

 73
1
 74
1
 75
1
 94
63
  0
MATERIAL
  5
20
102
{ACAD_REACTORS
330
E
102
}
330
E
100
AcDbMaterial
  1
ByLayer
  2

 70
0
 40
1.0
 71
1
 41
1.0
 91
-1023410177
 42
1.0
 72
1
  3

 73
1
 74
1
 75
1
 44
0.5
 73
0
 45
1.0
 46
1.0
 77
1
  4

 78
1
 79
1
170
1
 48
1.0
171
1
  6

172
1
173
1
174
1
140
1.0
141
1.0
175
1
  7

176
1
177
1
178
1
143
1.0
179
1
  8

270
1
271
1
272
1
145
1.0
146
1.0
273
1
  9

274
1
275
1
276
1
 42
1.0
 72
1
  3

 73
1
 74
1
 75
1
 94
63
  0
MATERIAL
  5
21
102
{ACAD_REACTORS
330
E
102
}
330
E
100
AcDbMaterial
  1
Global
  2

 70
0
 40
1.0
 71
1
 41
1.0
 91
-1023410177
 42
1.0
 72
1
  3

 73
1
 74
1
 75
1
 44
0.5
 73
0
 45
1.0
 46
1.0
 77
1
  4

 78
1
 79
1
170
1
 48
1.0
171
1
  6

172
1
173
1
174
1
140
1.0
141
1.0
175
1
  7

176
1
177
1
178
1
143
1.0
179
1
  8

270
1
271
1
272
1
145
1.0
146
1.0
273
1
  9

274
1
275
1
276
1
 42
1.0
 72
1
  3

 73
1
 74
1
 75
1
 94
63
  0
MLINESTYLE
  5
22
102
{ACAD_REACTORS
330
10
102
}
330
10
100
AcDbMlineStyle
  2
Standard
 70
0
  3

 62
256
 51
90.0
 52
90.0
 71
2
 49
0.5
 62
256
  6
BYLAYER
 49
-0.5
 62
256
  6
BYLAYER
  0
MLEADERSTYLE
  5
2C
102
{ACAD_REACTORS
330
F
102
}
330
F
100
AcDbMLeaderStyle
179
2
170
2
171
1
172
0
 90
2
 40
0.0
 41
0.0
173
1
 91
-1056964608
 92
-2
290
1
 42
2.0
291
1
 43
8.0
  3
Standard
 44
4.0
300

342
29
174
1
175
1
176
0
178
1
 93
-1056964608
 45
4.0
292
0
297
0
 46
4.0
 94
-1056964608
 47
1.0
 49
1.0
140
1.0
294
1
141
0.0
177
0
142
1.0
295
0
296
0
143
3.75
271
0
272
9
273
9
  0
DICTIONARY
  5
2D
330
A
100
AcDbDictionary
281
1
  3
CREATED_BY_EZDXF
350
2E
  3
WRITTEN_BY_EZDXF
350
B9
  0
DICTIONARYVAR
  5
2E
330
2D
100
DictionaryVariables
280
0
  1
1.0.3 @ 2023-08-30T08:28:12.844827+00:00
  0
DICTIONARYVAR
  5
B9
330
2D
100
DictionaryVariables
280
0
  1
1.0.3 @ 2023-08-30T08:28:12.897799+00:00
  0
ENDSEC
  0
EOF
