  0
SECTION
  2
HEADER
  9
$ACADVER
  1
AC1027
  9
$ACADMAINTVER
 70
105
  9
$DWGCODEPAGE
  3
ANSI_1252
  9
$LASTSAVEDBY
  1
ezdxf
  9
$REQUIREDVERSIONS
160
0
  9
$INSBASE
 10
0.0
 20
0.0
 30
0.0
  9
$EXTMIN
 10
1e+20
 20
1e+20
 30
1e+20
  9
$EXTMAX
 10
-1e+20
 20
-1e+20
 30
-1e+20
  9
$LIMMIN
 10
0.0
 20
0.0
  9
$LIMMAX
 10
420.0
 20
297.0
  9
$ORTHOMODE
 70
0
  9
$REGENMODE
 70
1
  9
$FILLMODE
 70
1
  9
$QTEXTMODE
 70
0
  9
$MIRRTEXT
 70
1
  9
$LTSCALE
 40
1.0
  9
$ATTMODE
 70
1
  9
$TEXTSIZE
 40
2.5
  9
$TRACEWID
 40
1.0
  9
$TEXTSTYLE
  7
Standard
  9
$CLAYER
  8
0
  9
$CELTYPE
  6
ByLayer
  9
$CECOLOR
 62
256
  9
$CELTSCALE
 40
1.0
  9
$DISPSILH
 70
0
  9
$DIMSCALE
 40
1.0
  9
$DIMASZ
 40
2.5
  9
$DIMEXO
 40
0.625
  9
$DIMDLI
 40
3.75
  9
$DIMRND
 40
0.0
  9
$DIMDLE
 40
0.0
  9
$DIMEXE
 40
1.25
  9
$DIMTP
 40
0.0
  9
$DIMTM
 40
0.0
  9
$DIMTXT
 40
2.5
  9
$DIMCEN
 40
2.5
  9
$DIMTSZ
 40
0.0
  9
$DIMTOL
 70
0
  9
$DIMLIM
 70
0
  9
$DIMTIH
 70
0
  9
$DIMTOH
 70
0
  9
$DIMSE1
 70
0
  9
$DIMSE2
 70
0
  9
$DIMTAD
 70
1
  9
$DIMZIN
 70
8
  9
$DIMBLK
  1

  9
$DIMASO
 70
1
  9
$DIMSHO
 70
1
  9
$DIMPOST
  1

  9
$DIMAPOST
  1

  9
$DIMALT
 70
0
  9
$DIMALTD
 70
3
  9
$DIMALTF
 40
0.03937007874
  9
$DIMLFAC
 40
1.0
  9
$DIMTOFL
 70
1
  9
$DIMTVP
 40
0.0
  9
$DIMTIX
 70
0
  9
$DIMSOXD
 70
0
  9
$DIMSAH
 70
0
  9
$DIMBLK1
  1

  9
$DIMBLK2
  1

  9
$DIMSTYLE
  2
ISO-25
  9
$DIMCLRD
 70
0
  9
$DIMCLRE
 70
0
  9
$DIMCLRT
 70
0
  9
$DIMTFAC
 40
1.0
  9
$DIMGAP
 40
0.625
  9
$DIMJUST
 70
0
  9
$DIMSD1
 70
0
  9
$DIMSD2
 70
0
  9
$DIMTOLJ
 70
0
  9
$DIMTZIN
 70
8
  9
$DIMALTZ
 70
0
  9
$DIMALTTZ
 70
0
  9
$DIMUPT
 70
0
  9
$DIMDEC
 70
2
  9
$DIMTDEC
 70
2
  9
$DIMALTU
 70
2
  9
$DIMALTTD
 70
3
  9
$DIMTXSTY
  7
Standard
  9
$DIMAUNIT
 70
0
  9
$DIMADEC
 70
0
  9
$DIMALTRND
 40
0.0
  9
$DIMAZIN
 70
0
  9
$DIMDSEP
 70
44
  9
$DIMATFIT
 70
3
  9
$DIMFRAC
 70
0
  9
$DIMLDRBLK
  1

  9
$DIMLUNIT
 70
2
  9
$DIMLWD
 70
-2
  9
$DIMLWE
 70
-2
  9
$DIMTMOVE
 70
0
  9
$DIMFXL
 40
1.0
  9
$DIMFXLON
 70
0
  9
$DIMJOGANG
 40
0.785398163397
  9
$DIMTFILL
 70
0
  9
$DIMTFILLCLR
 70
0
  9
$DIMARCSYM
 70
0
  9
$DIMLTYPE
  6

  9
$DIMLTEX1
  6

  9
$DIMLTEX2
  6

  9
$DIMTXTDIRECTION
 70
0
  9
$LUNITS
 70
2
  9
$LUPREC
 70
4
  9
$SKETCHINC
 40
1.0
  9
$FILLETRAD
 40
10.0
  9
$AUNITS
 70
0
  9
$AUPREC
 70
2
  9
$MENU
  1
.
  9
$ELEVATION
 40
0.0
  9
$PELEVATION
 40
0.0
  9
$THICKNESS
 40
0.0
  9
$LIMCHECK
 70
0
  9
$CHAMFERA
 40
0.0
  9
$CHAMFERB
 40
0.0
  9
$CHAMFERC
 40
0.0
  9
$CHAMFERD
 40
0.0
  9
$SKPOLY
 70
0
  9
$TDCREATE
 40
2460238.4861458335
  9
$TDUCREATE
 40
2458532.153996898
  9
$TDUPDATE
 40
2460238.4861458335
  9
$TDUUPDATE
 40
2458532.1544311
  9
$TDINDWG
 40
0.0
  9
$TDUSRTIMER
 40
0.0
  9
$USRTIMER
 70
1
  9
$ANGBASE
 50
0.0
  9
$ANGDIR
 70
0
  9
$PDMODE
 70
0
  9
$PDSIZE
 40
0.0
  9
$PLINEWID
 40
0.0
  9
$SPLFRAME
 70
0
  9
$SPLINETYPE
 70
6
  9
$SPLINESEGS
 70
8
  9
$HANDSEED
  5
D2
  9
$SURFTAB1
 70
6
  9
$SURFTAB2
 70
6
  9
$SURFTYPE
 70
6
  9
$SURFU
 70
6
  9
$SURFV
 70
6
  9
$UCSBASE
  2

  9
$UCSNAME
  2

  9
$UCSORG
 10
0.0
 20
0.0
 30
0.0
  9
$UCSXDIR
 10
1.0
 20
0.0
 30
0.0
  9
$UCSYDIR
 10
0.0
 20
1.0
 30
0.0
  9
$UCSORTHOREF
  2

  9
$UCSORTHOVIEW
 70
0
  9
$UCSORGTOP
 10
0.0
 20
0.0
 30
0.0
  9
$UCSORGBOTTOM
 10
0.0
 20
0.0
 30
0.0
  9
$UCSORGLEFT
 10
0.0
 20
0.0
 30
0.0
  9
$UCSORGRIGHT
 10
0.0
 20
0.0
 30
0.0
  9
$UCSORGFRONT
 10
0.0
 20
0.0
 30
0.0
  9
$UCSORGBACK
 10
0.0
 20
0.0
 30
0.0
  9
$PUCSBASE
  2

  9
$PUCSNAME
  2

  9
$PUCSORG
 10
0.0
 20
0.0
 30
0.0
  9
$PUCSXDIR
 10
1.0
 20
0.0
 30
0.0
  9
$PUCSYDIR
 10
0.0
 20
1.0
 30
0.0
  9
$PUCSORTHOREF
  2

  9
$PUCSORTHOVIEW
 70
0
  9
$PUCSORGTOP
 10
0.0
 20
0.0
 30
0.0
  9
$PUCSORGBOTTOM
 10
0.0
 20
0.0
 30
0.0
  9
$PUCSORGLEFT
 10
0.0
 20
0.0
 30
0.0
  9
$PUCSORGRIGHT
 10
0.0
 20
0.0
 30
0.0
  9
$PUCSORGFRONT
 10
0.0
 20
0.0
 30
0.0
  9
$PUCSORGBACK
 10
0.0
 20
0.0
 30
0.0
  9
$USERI1
 70
0
  9
$USERI2
 70
0
  9
$USERI3
 70
0
  9
$USERI4
 70
0
  9
$USERI5
 70
0
  9
$USERR1
 40
0.0
  9
$USERR2
 40
0.0
  9
$USERR3
 40
0.0
  9
$USERR4
 40
0.0
  9
$USERR5
 40
0.0
  9
$WORLDVIEW
 70
1
  9
$SHADEDGE
 70
3
  9
$SHADEDIF
 70
70
  9
$TILEMODE
 70
1
  9
$MAXACTVP
 70
64
  9
$PINSBASE
 10
0.0
 20
0.0
 30
0.0
  9
$PLIMCHECK
 70
0
  9
$PEXTMIN
 10
1e+20
 20
1e+20
 30
1e+20
  9
$PEXTMAX
 10
-1e+20
 20
-1e+20
 30
-1e+20
  9
$PLIMMIN
 10
0.0
 20
0.0
  9
$PLIMMAX
 10
420.0
 20
297.0
  9
$UNITMODE
 70
0
  9
$VISRETAIN
 70
1
  9
$PLINEGEN
 70
0
  9
$PSLTSCALE
 70
1
  9
$TREEDEPTH
 70
3020
  9
$CMLSTYLE
  2
Standard
  9
$CMLJUST
 70
0
  9
$CMLSCALE
 40
20.0
  9
$PROXYGRAPHICS
 70
1
  9
$MEASUREMENT
 70
1
  9
$CELWEIGHT
370
-1
  9
$ENDCAPS
280
0
  9
$JOINSTYLE
280
0
  9
$LWDISPLAY
290
0
  9
$INSUNITS
 70
6
  9
$HYPERLINKBASE
  1

  9
$STYLESHEET
  1

  9
$XEDIT
290
1
  9
$CEPSNTYPE
380
0
  9
$PSTYLEMODE
290
1
  9
$FINGERPRINTGUID
  2
{079BC193-72D5-4C47-ACCA-61B0F02B8026}
  9
$VERSIONGUID
  2
{08CE3397-5890-443D-AB93-60849588FB1B}
  9
$EXTNAMES
290
1
  9
$PSVPSCALE
 40
0.0
  9
$OLESTARTUP
290
0
  9
$SORTENTS
280
127
  9
$INDEXCTL
280
0
  9
$HIDETEXT
280
1
  9
$XCLIPFRAME
280
0
  9
$HALOGAP
280
0
  9
$OBSCOLOR
 70
257
  9
$OBSLTYPE
280
0
  9
$INTERSECTIONDISPLAY
280
0
  9
$INTERSECTIONCOLOR
 70
257
  9
$DIMASSOC
280
2
  9
$PROJECTNAME
  1

  9
$CAMERADISPLAY
290
0
  9
$LENSLENGTH
 40
50.0
  9
$CAMERAHEIGHT
 40
0.0
  9
$STEPSPERSEC
 40
24.0
  9
$STEPSIZE
 40
100.0
  9
$3DDWFPREC
 40
2.0
  9
$PSOLWIDTH
 40
0.005
  9
$PSOLHEIGHT
 40
0.08
  9
$LOFTANG1
 40
1.570796326795
  9
$LOFTANG2
 40
1.570796326795
  9
$LOFTMAG1
 40
0.0
  9
$LOFTMAG2
 40
0.0
  9
$LOFTPARAM
 70
7
  9
$LOFTNORMALS
280
1
  9
$LATITUDE
 40
37.795
  9
$LONGITUDE
 40
-122.394
  9
$NORTHDIRECTION
 40
0.0
  9
$TIMEZONE
 70
-8000
  9
$LIGHTGLYPHDISPLAY
280
1
  9
$TILEMODELIGHTSYNCH
280
1
  9
$CMATERIAL
347
20
  9
$SOLIDHIST
280
0
  9
$SHOWHIST
280
1
  9
$DWFFRAME
280
2
  9
$DGNFRAME
280
2
  9
$REALWORLDSCALE
290
1
  9
$INTERFERECOLOR
 62
256
  9
$CSHADOW
280
0
  9
$SHADOWPLANELOCATION
 40
0.0
  0
ENDSEC
  0
SECTION
  2
CLASSES
  0
CLASS
  1
ACDBDICTIONARYWDFLT
  2
AcDbDictionaryWithDefault
  3
ObjectDBX Classes
 90
0
 91
0
280
0
281
0
  0
CLASS
  1
SUN
  2
AcDbSun
  3
SCENEOE
 90
1153
 91
0
280
0
281
0
  0
CLASS
  1
VISUALSTYLE
  2
AcDbVisualStyle
  3
ObjectDBX Classes
 90
4095
 91
0
280
0
281
0
  0
CLASS
  1
MATERIAL
  2
AcDbMaterial
  3
ObjectDBX Classes
 90
1153
 91
0
280
0
281
0
  0
CLASS
  1
SCALE
  2
AcDbScale
  3
ObjectDBX Classes
 90
1153
 91
0
280
0
281
0
  0
CLASS
  1
TABLESTYLE
  2
AcDbTableStyle
  3
ObjectDBX Classes
 90
4095
 91
0
280
0
281
0
  0
CLASS
  1
MLEADERSTYLE
  2
AcDbMLeaderStyle
  3
ACDB_MLEADERSTYLE_CLASS
 90
4095
 91
0
280
0
281
0
  0
CLASS
  1
DICTIONARYVAR
  2
AcDbDictionaryVar
  3
ObjectDBX Classes
 90
0
 91
0
280
0
281
0
  0
CLASS
  1
CELLSTYLEMAP
  2
AcDbCellStyleMap
  3
ObjectDBX Classes
 90
1152
 91
0
280
0
281
0
  0
CLASS
  1
MENTALRAYRENDERSETTINGS
  2
AcDbMentalRayRenderSettings
  3
SCENEOE
 90
1024
 91
0
280
0
281
0
  0
CLASS
  1
ACDBDETAILVIEWSTYLE
  2
AcDbDetailViewStyle
  3
ObjectDBX Classes
 90
1025
 91
0
280
0
281
0
  0
CLASS
  1
ACDBSECTIONVIEWSTYLE
  2
AcDbSectionViewStyle
  3
ObjectDBX Classes
 90
1025
 91
0
280
0
281
0
  0
CLASS
  1
RASTERVARIABLES
  2
AcDbRasterVariables
  3
ISM
 90
0
 91
0
280
0
281
0
  0
CLASS
  1
LAYOUT
  2
AcDbLayout
  3
ObjectDBX Classes
 90
0
 91
0
280
0
281
0
  0
CLASS
  1
ACDBPLACEHOLDER
  2
AcDbPlaceHolder
  3
ObjectDBX Classes
 90
0
 91
0
280
0
281
0
  0
ENDSEC
  0
SECTION
  2
TABLES
  0
TABLE
  2
VPORT
  5
8
330
0
100
AcDbSymbolTable
 70
1
  0
VPORT
  5
23
330
8
100
AcDbSymbolTableRecord
100
AcDbViewportTableRecord
  2
*Active
 70
0
 10
0.0
 20
0.0
 11
1.0
 21
1.0
 12
0.0
 22
0.0
 13
0.0
 23
0.0
 14
0.5
 24
0.5
 15
0.5
 25
0.5
 16
0.0
 26
0.0
 36
1.0
 17
0.0
 27
0.0
 37
0.0
 40
1000.0
 41
1.34
 42
50.0
 43
0.0
 44
0.0
 50
0.0
 51
0.0
 71
0
 72
1000
 73
1
 74
3
 75
0
 76
0
 77
0
 78
0
281
0
 65
0
146
0.0
  0
ENDTAB
  0
TABLE
  2
LTYPE
  5
2
330
0
100
AcDbSymbolTable
 70
3
  0
LTYPE
  5
24
330
2
100
AcDbSymbolTableRecord
100
AcDbLinetypeTableRecord
  2
ByBlock
 70
0
  3

 72
65
 73
0
 40
0.0
  0
LTYPE
  5
25
330
2
100
AcDbSymbolTableRecord
100
AcDbLinetypeTableRecord
  2
ByLayer
 70
0
  3

 72
65
 73
0
 40
0.0
  0
LTYPE
  5
26
330
2
100
AcDbSymbolTableRecord
100
AcDbLinetypeTableRecord
  2
Continuous
 70
0
  3

 72
65
 73
0
 40
0.0
  0
ENDTAB
  0
TABLE
  2
LAYER
  5
1
330
0
100
AcDbSymbolTable
 70
2
  0
LAYER
  5
27
330
1
100
AcDbSymbolTableRecord
100
AcDbLayerTableRecord
  2
0
 70
0
 62
7
  6
Continuous
370
-3
390
13
347
21
  0
LAYER
  5
28
330
1
100
AcDbSymbolTableRecord
100
AcDbLayerTableRecord
  2
Defpoints
 70
0
 62
7
  6
Continuous
290
0
370
-3
390
13
347
21
  0
ENDTAB
  0
TABLE
  2
STYLE
  5
5
330
0
100
AcDbSymbolTable
 70
1
  0
STYLE
  5
29
330
5
100
AcDbSymbolTableRecord
100
AcDbTextStyleTableRecord
  2
Standard
 70
0
 40
0.0
 41
1.0
 50
0.0
 71
0
 42
2.5
  3
txt
  4

  0
ENDTAB
  0
TABLE
  2
VIEW
  5
7
330
0
100
AcDbSymbolTable
 70
0
  0
ENDTAB
  0
TABLE
  2
UCS
  5
6
330
0
100
AcDbSymbolTable
 70
0
  0
ENDTAB
  0
TABLE
  2
APPID
  5
3
330
0
100
AcDbSymbolTable
 70
3
  0
APPID
  5
2A
330
3
100
AcDbSymbolTableRecord
100
AcDbRegAppTableRecord
  2
ACAD
 70
0
  0
APPID
  5
CF
330
3
100
AcDbSymbolTableRecord
100
AcDbRegAppTableRecord
  2
HATCHBACKGROUNDCOLOR
 70
0
  0
APPID
  5
D0
330
3
100
AcDbSymbolTableRecord
100
AcDbRegAppTableRecord
  2
EZDXF
 70
0
  0
ENDTAB
  0
TABLE
  2
DIMSTYLE
  5
4
330
0
100
AcDbSymbolTable
 70
1
100
AcDbDimStyleTable
  0
DIMSTYLE
105
2B
330
4
100
AcDbSymbolTableRecord
100
AcDbDimStyleTableRecord
  2
Standard
 70
0
 40
1.0
 41
2.5
 42
0.625
 43
3.75
 44
1.25
 45
0.0
 46
0.0
 47
0.0
 48
0.0
 49
2.5
140
2.5
141
2.5
142
0.0
143
0.03937007874
144
1.0
145
0.0
146
1.0
147
0.625
148
0.0
 69
0
 70
0
 71
0
 72
0
 73
0
 74
0
 75
0
 76
0
 77
1
 78
8
 79
3
170
0
171
3
172
1
173
0
174
0
175
0
176
0
177
0
178
0
179
2
271
2
272
2
273
2
274
3
275
0
276
0
277
2
278
44
279
0
280
0
281
0
282
0
283
0
284
8
285
0
286
0
288
0
289
3
290
0
371
-2
372
-2
  0
ENDTAB
  0
TABLE
  2
BLOCK_RECORD
  5
9
330
0
100
AcDbSymbolTable
 70
2
  0
BLOCK_RECORD
  5
17
330
9
100
AcDbSymbolTableRecord
100
AcDbBlockTableRecord
  2
*Model_Space
340
1A
 70
0
280
1
281
0
  0
BLOCK_RECORD
  5
1B
330
9
100
AcDbSymbolTableRecord
100
AcDbBlockTableRecord
  2
*Paper_Space
340
1E
 70
0
280
1
281
0
  0
ENDTAB
  0
ENDSEC
  0
SECTION
  2
BLOCKS
  0
BLOCK
  5
18
330
17
100
AcDbEntity
  8
0
100
AcDbBlockBegin
  2
*Model_Space
 70
0
 10
0.0
 20
0.0
 30
0.0
  3
*Model_Space
  1

  0
ENDBLK
  5
19
330
17
100
AcDbEntity
  8
0
100
AcDbBlockEnd
  0
BLOCK
  5
1C
330
1B
100
AcDbEntity
  8
0
100
AcDbBlockBegin
  2
*Paper_Space
 70
0
 10
0.0
 20
0.0
 30
0.0
  3
*Paper_Space
  1

  0
ENDBLK
  5
1D
330
1B
100
AcDbEntity
  8
0
100
AcDbBlockEnd
  0
ENDSEC
  0
SECTION
  2
ENTITIES
  0
LWPOLYLINE
  5
2F
330
17
100
AcDbEntity
  8
frame
100
AcDbPolyline
 90
25
 70
0
 10
-304.05648536222344
 20
-523.6412250639054
 10
-314.05632762719654
 20
-523.6412250639054
 10
-340.9564853622235
 20
-477.0487851352218
 10
-335.9565642297369
 20
-468.3886676999178
 10
-335.9565641744914
 20
-467.3887580993513
 10
-340.9564853069779
 20
-458.72864066404736
 10
-341.8225107660079
 20
-458.2285502646138
 10
-351.822353030981
 20
-458.2285502646138
 10
-378.7225107660079
 20
-411.6361103359302
 10
-373.72258963352135
 20
-402.97599290062624
 10
-319.92227416346753
 20
-402.97599290062624
 10
-314.92235303098096
 20
-411.63611033593025
 10
-314.056327571951
 20
-412.1362007353638
 10
-304.05648530697795
 20
-412.1362007353638
 10
-303.190459958439
 20
-411.6361103359302
 10
-298.1905388259525
 20
-402.97599290062624
 10
-244.39022335589863
 20
-402.97599290062624
 10
-239.3903022234121
 20
-411.6361103359302
 10
-266.29045995843904
 20
-458.2285502646138
 10
-276.2903022234121
 20
-458.2285502646138
 10
-277.156327571951
 20
-458.72864066404736
 10
-282.15624870443753
 20
-467.3887580993513
 10
-282.1562487596831
 20
-468.3886676999178
 10
-277.15632762719656
 20
-477.0487851352218
 10
-304.05648536222344
 20
-523.6412250639054
  0
LWPOLYLINE
  5
30
330
17
100
AcDbEntity
  8
frame
100
AcDbPolyline
 90
7
 70
0
 10
-457.7186631545555
 20
-391.3159313604454
 10
-430.8185054195286
 20
-344.72349143176183
 10
-420.8186631545555
 20
-344.72349143176183
 10
-393.91850541952857
 20
-391.3159313604454
 10
-398.91842655201515
 20
-399.9760487957494
 10
-452.71874202206897
 20
-399.9760487957494
 10
-457.7186631545555
 20
-391.3159313604454
  0
LWPOLYLINE
  5
31
330
17
100
AcDbEntity
  8
frame
100
AcDbPolyline
 90
7
 70
0
 10
-431.6845308785585
 20
-344.2234010323283
 10
-458.58468861358546
 20
-390.8158409610119
 10
-468.58453087855855
 20
-390.8158409610119
 10
-495.4846886135855
 20
-344.2234010323283
 10
-490.4847674810989
 20
-335.5632835970243
 10
-436.6844520110451
 20
-335.5632835970243
 10
-431.6845308785585
 20
-344.2234010323283
  0
LWPOLYLINE
  5
32
330
17
100
AcDbEntity
  8
frame
100
AcDbPolyline
 90
25
 70
0
 10
-304.05648532806447
 20
-279.3108166324703
 10
-277.15632759303753
 20
-325.90325656115385
 10
-282.15624872552405
 20
-334.5633739964578
 10
-282.1562487807696
 20
-335.5632835970243
 10
-277.156327648283
 20
-344.2234010323283
 10
-276.2903021892531
 20
-344.72349143176183
 10
-266.29045992428
 20
-344.72349143176183
 10
-239.39030218925308
 20
-391.3159313604454
 10
-244.39022332173963
 20
-399.9760487957494
 10
-298.1905387917935
 20
-399.9760487957494
 10
-303.19045992428
 20
-391.3159313604454
 10
-304.05648538330996
 20
-390.8158409610119
 10
-314.05632764828306
 20
-390.8158409610119
 10
-314.922352996822
 20
-391.3159313604454
 10
-319.9222741293085
 20
-399.9760487957494
 10
-373.7225895993623
 20
-399.9760487957494
 10
-378.7225107318489
 20
-391.3159313604454
 10
-351.82235299682196
 20
-344.72349143176183
 10
-341.82251073184887
 20
-344.72349143176183
 10
-340.95648538331
 20
-344.2234010323283
 10
-335.9565642508234
 20
-335.5632835970243
 10
-335.9565641955779
 20
-334.5633739964578
 10
-340.95648532806445
 20
-325.90325656115385
 10
-314.0563275930375
 20
-279.3108166324703
 10
-304.05648532806447
 20
-279.3108166324703
  0
LWPOLYLINE
  5
33
330
17
100
AcDbEntity
  8
frame
100
AcDbPolyline
 90
25
 70
0
 10
-391.3204292423343
 20
-389.81587546532216
 10
-418.2205869773612
 20
-343.22343553663865
 10
-413.22066584487465
 20
-334.56331810133463
 10
-413.22066578962915
 20
-333.56340850076816
 10
-418.2205869221157
 20
-324.9032910654642
 10
-419.08661238114564
 20
-324.4032006660306
 10
-429.08645464611874
 20
-324.4032006660306
 10
-455.9866123811456
 20
-277.8107607373471
 10
-450.9866912486591
 20
-269.1506433020431
 10
-397.1863757786053
 20
-269.1506433020431
 10
-392.1864546461187
 20
-277.8107607373471
 10
-391.32042918708873
 20
-278.3108511367806
 10
-381.3205869221157
 20
-278.3108511367806
 10
-380.45456157357677
 20
-277.81076073734704
 10
-375.45464044109025
 20
-269.1506433020431
 10
-321.6543249710364
 20
-269.1506433020431
 10
-316.65440383854985
 20
-277.8107607373471
 10
-343.5545615735768
 20
-324.4032006660306
 10
-353.55440383854983
 20
-324.4032006660306
 10
-354.42042918708876
 20
-324.9032910654642
 10
-359.4203503195753
 20
-333.56340850076816
 10
-359.4203503748208
 20
-334.56331810133463
 10
-354.4204292423343
 20
-343.22343553663865
 10
-381.3205869773612
 20
-389.81587546532216
 10
-391.3204292423343
 20
-389.81587546532216
  0
LWPOLYLINE
  5
34
330
17
100
AcDbEntity
  8
frame
100
AcDbPolyline
 90
7
 70
0
 10
-495.48468855833994
 20
-325.90325656115385
 10
-468.584530823313
 20
-279.3108166324703
 10
-458.58468855833996
 20
-279.3108166324703
 10
-431.684530823313
 20
-325.90325656115385
 10
-436.68445195579955
 20
-334.5633739964578
 10
-490.4847674258534
 20
-334.5633739964578
 10
-495.48468855833994
 20
-325.90325656115385
  0
LWPOLYLINE
  5
35
330
17
100
AcDbEntity
  8
frame
100
AcDbPolyline
 90
7
 70
0
 10
-471.18260706882535
 20
-277.8107607373471
 10
-498.0827648038523
 20
-324.4032006660306
 10
-508.0826070688253
 20
-324.4032006660306
 10
-534.9827648038523
 20
-277.81076073734704
 10
-529.9828436713657
 20
-269.1506433020431
 10
-476.18252820131187
 20
-269.1506433020431
 10
-471.18260706882535
 20
-277.8107607373471
  0
LWPOLYLINE
  5
36
330
17
100
AcDbEntity
  8
frame
100
AcDbPolyline
 90
7
 70
0
 10
-534.9827647696933
 20
-257.49058176186225
 10
-508.08260703466635
 20
-210.8981418331787
 10
-498.08276476969326
 20
-210.8981418331787
 10
-471.1826070346663
 20
-257.49058176186225
 10
-476.1825281671529
 20
-266.15069919716626
 10
-529.9828436372068
 20
-266.15069919716626
 10
-534.9827647696933
 20
-257.49058176186225
  0
LWPOLYLINE
  5
37
330
17
100
AcDbEntity
  8
frame
100
AcDbPolyline
 90
7
 70
0
 10
-535.8487902287233
 20
-256.9904913624287
 10
-545.8486324936963
 20
-256.9904913624287
 10
-572.7487902287232
 20
-210.39805143374514
 10
-567.7488690962367
 20
-201.73793399844115
 10
-513.9485536261828
 20
-201.73793399844115
 10
-508.94863249369627
 20
-210.39805143374517
 10
-535.8487902287233
 20
-256.9904913624287
  0
LWPOLYLINE
  5
38
330
17
100
AcDbEntity
  8
frame
100
AcDbPolyline
 90
25
 70
0
 10
-381.3205869432022
 20
-145.48546703388712
 10
-354.4204292081753
 20
-192.0779069625707
 10
-359.4203503406618
 20
-200.7380243978747
 10
-359.42035039590735
 20
-201.73793399844115
 10
-354.4204292634208
 20
-210.39805143374517
 10
-353.55440380439086
 20
-210.8981418331787
 10
-343.55456153941776
 20
-210.8981418331787
 10
-316.6544038043908
 20
-257.49058176186225
 10
-321.6543249368774
 20
-266.15069919716626
 10
-375.4546404069312
 20
-266.15069919716626
 10
-380.45456153941774
 20
-257.49058176186225
 10
-381.3205869984477
 20
-256.9904913624287
 10
-391.3204292634208
 20
-256.9904913624287
 10
-392.18645461195973
 20
-257.49058176186225
 10
-397.18637574444625
 20
-266.15069919716626
 10
-450.98669121450007
 20
-266.15069919716626
 10
-455.98661234698665
 20
-257.49058176186225
 10
-429.0864546119597
 20
-210.8981418331787
 10
-419.0866123469866
 20
-210.8981418331787
 10
-418.22058699844774
 20
-210.39805143374514
 10
-413.22066586596117
 20
-201.73793399844115
 10
-413.2206658107157
 20
-200.7380243978747
 10
-418.2205869432022
 20
-192.0779069625707
 10
-391.32042920817526
 20
-145.48546703388712
 10
-381.3205869432022
 20
-145.48546703388712
  0
LWPOLYLINE
  5
39
330
17
100
AcDbEntity
  8
frame
100
AcDbPolyline
 90
25
 70
0
 10
-458.58468859249894
 20
-255.9905258667391
 10
-468.58453085747203
 20
-255.9905258667391
 10
-495.48468859249897
 20
-209.39808593805554
 10
-490.4847674600124
 20
-200.73796850275153
 10
-490.4847674047669
 20
-199.7380589021851
 10
-495.4846885372534
 20
-191.07794146688107
 10
-496.3507139962834
 20
-190.57785106744754
 10
-506.3505562612565
 20
-190.57785106744754
 10
-533.2507139962834
 20
-143.98541113876396
 10
-528.2507928637968
 20
-135.32529370345998
 10
-474.45047739374303
 20
-135.32529370345998
 10
-469.45055626125645
 20
-143.98541113876396
 10
-468.5845308022265
 20
-144.48550153819752
 10
-458.58468853725344
 20
-144.48550153819752
 10
-457.7186631887145
 20
-143.98541113876396
 10
-452.718742056228
 20
-135.32529370345995
 10
-398.9184265861741
 20
-135.32529370345995
 10
-393.9185054536876
 20
-143.98541113876396
 10
-420.81866318871454
 20
-190.57785106744754
 10
-430.8185054536876
 20
-190.57785106744754
 10
-431.6845308022265
 20
-191.07794146688107
 10
-436.684451934713
 20
-199.7380589021851
 10
-436.6844519899586
 20
-200.73796850275153
 10
-431.68453085747205
 20
-209.39808593805554
 10
-458.58468859249894
 20
-255.9905258667391
  0
LWPOLYLINE
  5
3A
330
17
100
AcDbEntity
  8
frame
100
AcDbPolyline
 90
25
 70
0
 10
-304.05648536222344
 20
-255.9905258667391
 10
-314.05632762719654
 20
-255.9905258667391
 10
-340.9564853622235
 20
-209.39808593805554
 10
-335.9565642297369
 20
-200.73796850275153
 10
-335.9565641744914
 20
-199.7380589021851
 10
-340.9564853069779
 20
-191.07794146688107
 10
-341.8225107660079
 20
-190.57785106744754
 10
-351.822353030981
 20
-190.57785106744754
 10
-378.7225107660079
 20
-143.98541113876396
 10
-373.72258963352135
 20
-135.32529370345998
 10
-319.92227416346753
 20
-135.32529370345998
 10
-314.92235303098096
 20
-143.98541113876396
 10
-314.056327571951
 20
-144.48550153819752
 10
-304.05648530697795
 20
-144.48550153819752
 10
-303.190459958439
 20
-143.98541113876396
 10
-298.1905388259525
 20
-135.32529370345995
 10
-244.39022335589863
 20
-135.32529370345995
 10
-239.3903022234121
 20
-143.98541113876396
 10
-266.29045995843904
 20
-190.57785106744754
 10
-276.2903022234121
 20
-190.57785106744754
 10
-277.156327571951
 20
-191.07794146688107
 10
-282.15624870443753
 20
-199.7380589021851
 10
-282.1562487596831
 20
-200.73796850275153
 10
-277.15632762719656
 20
-209.39808593805554
 10
-304.05648536222344
 20
-255.9905258667391
  0
LWPOLYLINE
  5
3B
330
17
100
AcDbEntity
  8
frame
100
AcDbPolyline
 90
7
 70
0
 10
-572.7487901734777
 20
-192.0779069625707
 10
-545.8486324384507
 20
-145.48546703388712
 10
-535.8487901734777
 20
-145.48546703388712
 10
-508.9486324384508
 20
-192.0779069625707
 10
-513.9485535709373
 20
-200.7380243978747
 10
-567.7488690409912
 20
-200.7380243978747
 10
-572.7487901734777
 20
-192.0779069625707
  0
LWPOLYLINE
  5
3C
330
17
100
AcDbEntity
  8
frame
100
AcDbPolyline
 90
7
 70
0
 10
-575.34686641899
 20
-190.57785106744754
 10
-585.3467086839631
 20
-190.57785106744754
 10
-612.2468664189901
 20
-143.98541113876396
 10
-607.2469452865034
 20
-135.32529370345995
 10
-553.4466298164497
 20
-135.32529370345995
 10
-548.4467086839632
 20
-143.98541113876396
 10
-575.34686641899
 20
-190.57785106744754
  0
LWPOLYLINE
  5
3D
330
17
100
AcDbEntity
  8
frame
100
AcDbPolyline
 90
7
 70
0
 10
-585.3467086498041
 20
-77.07279223459557
 10
-575.346866384831
 20
-77.07279223459557
 10
-548.4467086498041
 20
-123.66523216327914
 10
-553.4466297822906
 20
-132.32534959858313
 10
-607.2469452523444
 20
-132.32534959858313
 10
-612.246866384831
 20
-123.66523216327913
 10
-585.3467086498041
 20
-77.07279223459557
  0
LWPOLYLINE
  5
3E
330
17
100
AcDbEntity
  8
frame
100
AcDbPolyline
 90
7
 70
0
 10
-508.9486324726098
 20
-75.57273633947241
 10
-535.8487902076367
 20
-122.16517626815596
 10
-545.8486324726098
 20
-122.16517626815596
 10
-572.7487902076367
 20
-75.5727363394724
 10
-567.7488690751502
 20
-66.9126189041684
 10
-513.9485536050963
 20
-66.9126189041684
 10
-508.9486324726098
 20
-75.57273633947241
  0
LWPOLYLINE
  5
3F
330
17
100
AcDbEntity
  8
frame
100
AcDbPolyline
 90
25
 70
0
 10
-468.584530823313
 20
-11.660117435304002
 10
-458.58468855833996
 20
-11.660117435304002
 10
-431.684530823313
 20
-58.25255736398757
 10
-436.68445195579955
 20
-66.91267479929158
 10
-436.6844520110451
 20
-67.91258439985802
 10
-431.6845308785585
 20
-76.57270183516202
 10
-430.8185054195286
 20
-77.07279223459557
 10
-420.8186631545555
 20
-77.07279223459557
 10
-393.91850541952857
 20
-123.66523216327914
 10
-398.91842655201515
 20
-132.32534959858313
 10
-452.71874202206897
 20
-132.32534959858313
 10
-457.7186631545555
 20
-123.66523216327913
 10
-458.58468861358546
 20
-123.16514176384558
 10
-468.58453087855855
 20
-123.16514176384558
 10
-469.4505562270975
 20
-123.66523216327914
 10
-474.450477359584
 20
-132.32534959858316
 10
-528.2507928296378
 20
-132.32534959858316
 10
-533.2507139621243
 20
-123.66523216327914
 10
-506.35055622709746
 20
-77.07279223459557
 10
-496.35071396212436
 20
-77.07279223459557
 10
-495.4846886135855
 20
-76.57270183516202
 10
-490.4847674810989
 20
-67.91258439985802
 10
-490.4847674258534
 20
-66.91267479929158
 10
-495.48468855833994
 20
-58.25255736398756
 10
-468.584530823313
 20
-11.660117435304002
  0
LWPOLYLINE
  5
40
330
17
100
AcDbEntity
  8
frame
100
AcDbPolyline
 90
25
 70
0
 10
-381.3205869773612
 20
-122.16517626815596
 10
-391.3204292423343
 20
-122.16517626815596
 10
-418.2205869773612
 20
-75.5727363394724
 10
-413.22066584487465
 20
-66.9126189041684
 10
-413.22066578962915
 20
-65.91270930360196
 10
-418.2205869221157
 20
-57.25259186829794
 10
-419.08661238114564
 20
-56.75250146886441
 10
-429.08645464611874
 20
-56.75250146886441
 10
-455.9866123811456
 20
-10.160061540180834
 10
-450.9866912486591
 20
-1.499944104876839
 10
-397.1863757786053
 20
-1.499944104876839
 10
-392.1864546461187
 20
-10.160061540180841
 10
-391.32042918708873
 20
-10.66015193961438
 10
-381.3205869221157
 20
-10.66015193961438
 10
-380.45456157357677
 20
-10.160061540180827
 10
-375.45464044109025
 20
-1.4999441048768247
 10
-321.6543249710364
 20
-1.4999441048768247
 10
-316.65440383854985
 20
-10.160061540180834
 10
-343.5545615735768
 20
-56.752501468864395
 10
-353.55440383854983
 20
-56.752501468864395
 10
-354.42042918708876
 20
-57.25259186829795
 10
-359.4203503195753
 20
-65.91270930360196
 10
-359.4203503748208
 20
-66.9126189041684
 10
-354.4204292423343
 20
-75.57273633947241
 10
-381.3205869773612
 20
-122.16517626815596
  0
LWPOLYLINE
  5
41
330
17
100
AcDbEntity
  8
frame
100
AcDbPolyline
 90
7
 70
0
 10
-545.8486324173642
 20
-10.66015193961438
 10
-535.8487901523912
 20
-10.66015193961438
 10
-508.94863241736425
 20
-57.25259186829795
 10
-513.9485535498508
 20
-65.91270930360196
 10
-567.7488690199046
 20
-65.91270930360196
 10
-572.7487901523912
 20
-57.25259186829794
 10
-545.8486324173642
 20
-10.66015193961438
  0
LWPOLYLINE
  5
42
330
17
100
AcDbEntity
  8
frame
100
AcDbPolyline
 90
7
 70
0
 10
-498.0827648038523
 20
-56.752501468864395
 10
-508.0826070688253
 20
-56.752501468864395
 10
-534.9827648038523
 20
-10.160061540180827
 10
-529.9828436713657
 20
-1.4999441048768247
 10
-476.18252820131187
 20
-1.4999441048768247
 10
-471.18260706882535
 20
-10.160061540180834
 10
-498.0827648038523
 20
-56.752501468864395
  0
LWPOLYLINE
  5
43
330
17
100
AcDbEntity
  8
frame
100
AcDbPolyline
 90
7
 70
0
 10
-534.9827647696933
 20
10.160117435304002
 10
-508.08260703466635
 20
56.75255736398756
 10
-498.08276476969326
 20
56.75255736398756
 10
-471.1826070346663
 20
10.160117435303995
 10
-476.1825281671529
 20
1.5
 10
-529.9828436372068
 20
1.5
 10
-534.9827647696933
 20
10.160117435304002
  0
LWPOLYLINE
  5
44
330
17
100
AcDbEntity
  8
frame
100
AcDbPolyline
 90
7
 70
0
 10
-508.94863249369627
 20
57.2526477634211
 10
-535.8487902287233
 20
10.660207834737541
 10
-545.8486324936963
 20
10.660207834737541
 10
-572.7487902287232
 20
57.25264776342111
 10
-567.7488690962367
 20
65.91276519872511
 10
-513.9485536261828
 20
65.91276519872511
 10
-508.94863249369627
 20
57.2526477634211
  0
LWPOLYLINE
  5
45
330
17
100
AcDbEntity
  8
frame
100
AcDbPolyline
 90
25
 70
0
 10
-391.32042920817526
 20
122.16523216327913
 10
-381.3205869432022
 20
122.16523216327913
 10
-354.4204292081753
 20
75.57279223459557
 10
-359.4203503406618
 20
66.91267479929155
 10
-359.42035039590735
 20
65.91276519872511
 10
-354.4204292634208
 20
57.2526477634211
 10
-353.55440380439086
 20
56.75255736398756
 10
-343.55456153941776
 20
56.75255736398756
 10
-316.6544038043908
 20
10.160117435303995
 10
-321.6543249368774
 20
1.5
 10
-375.4546404069312
 20
1.5
 10
-380.45456153941774
 20
10.160117435304002
 10
-381.3205869984477
 20
10.660207834737541
 10
-391.3204292634208
 20
10.660207834737541
 10
-392.18645461195973
 20
10.160117435303988
 10
-397.18637574444625
 20
1.4999999999999858
 10
-450.98669121450007
 20
1.4999999999999858
 10
-455.98661234698665
 20
10.160117435303995
 10
-429.0864546119597
 20
56.75255736398756
 10
-419.0866123469866
 20
56.75255736398756
 10
-418.22058699844774
 20
57.25264776342111
 10
-413.22066586596117
 20
65.91276519872511
 10
-413.2206658107157
 20
66.91267479929155
 10
-418.2205869432022
 20
75.57279223459557
 10
-391.32042920817526
 20
122.16523216327913
  0
LWPOLYLINE
  5
46
330
17
100
AcDbEntity
  8
frame
100
AcDbPolyline
 90
25
 70
0
 10
-314.05632762719654
 20
11.66017333042717
 10
-340.9564853622235
 20
58.25261325911073
 10
-335.9565642297369
 20
66.91273069441473
 10
-335.9565641744914
 20
67.91264029498117
 10
-340.9564853069779
 20
76.57275773028519
 10
-341.8225107660079
 20
77.07284812971872
 10
-351.822353030981
 20
77.07284812971872
 10
-378.7225107660079
 20
123.6652880584023
 10
-373.72258963352135
 20
132.32540549370628
 10
-319.92227416346753
 20
132.32540549370628
 10
-314.92235303098096
 20
123.6652880584023
 10
-314.056327571951
 20
123.16519765896875
 10
-304.05648530697795
 20
123.16519765896875
 10
-303.190459958439
 20
123.6652880584023
 10
-298.1905388259525
 20
132.3254054937063
 10
-244.39022335589863
 20
132.3254054937063
 10
-239.3903022234121
 20
123.6652880584023
 10
-266.29045995843904
 20
77.07284812971874
 10
-276.2903022234121
 20
77.07284812971874
 10
-277.156327571951
 20
76.57275773028518
 10
-282.15624870443753
 20
67.91264029498117
 10
-282.1562487596831
 20
66.91273069441473
 10
-277.15632762719656
 20
58.252613259110724
 10
-304.05648536222344
 20
11.66017333042717
 10
-314.05632762719654
 20
11.66017333042717
  0
LWPOLYLINE
  5
47
330
17
100
AcDbEntity
  8
frame
100
AcDbPolyline
 90
25
 70
0
 10
-468.58453085747203
 20
11.66017333042717
 10
-495.48468859249897
 20
58.25261325911073
 10
-490.4847674600124
 20
66.91273069441473
 10
-490.4847674047669
 20
67.91264029498117
 10
-495.4846885372534
 20
76.57275773028519
 10
-496.3507139962834
 20
77.07284812971872
 10
-506.3505562612565
 20
77.07284812971872
 10
-533.2507139962834
 20
123.6652880584023
 10
-528.2507928637968
 20
132.32540549370628
 10
-474.45047739374303
 20
132.32540549370628
 10
-469.45055626125645
 20
123.6652880584023
 10
-468.5845308022265
 20
123.16519765896875
 10
-458.58468853725344
 20
123.16519765896875
 10
-457.7186631887145
 20
123.6652880584023
 10
-452.718742056228
 20
132.3254054937063
 10
-398.9184265861741
 20
132.3254054937063
 10
-393.9185054536876
 20
123.6652880584023
 10
-420.81866318871454
 20
77.07284812971874
 10
-430.8185054536876
 20
77.07284812971874
 10
-431.6845308022265
 20
76.57275773028518
 10
-436.684451934713
 20
67.91264029498117
 10
-436.6844519899586
 20
66.91273069441473
 10
-431.68453085747205
 20
58.252613259110724
 10
-458.58468859249894
 20
11.66017333042717
 10
-468.58453085747203
 20
11.66017333042717
  0
LWPOLYLINE
  5
48
330
17
100
AcDbEntity
  8
frame
100
AcDbPolyline
 90
7
 70
0
 10
-572.7487901734777
 20
75.57279223459557
 10
-545.8486324384507
 20
122.16523216327913
 10
-535.8487901734777
 20
122.16523216327913
 10
-508.9486324384508
 20
75.57279223459557
 10
-513.9485535709373
 20
66.91267479929155
 10
-567.7488690409912
 20
66.91267479929155
 10
-572.7487901734777
 20
75.57279223459557
  0
LWPOLYLINE
  5
49
330
17
100
AcDbEntity
  8
frame
100
AcDbPolyline
 90
7
 70
0
 10
-548.4467086839632
 20
123.6652880584023
 10
-575.34686641899
 20
77.07284812971874
 10
-585.3467086839631
 20
77.07284812971874
 10
-612.2468664189901
 20
123.6652880584023
 10
-607.2469452865034
 20
132.3254054937063
 10
-553.4466298164497
 20
132.3254054937063
 10
-548.4467086839632
 20
123.6652880584023
  0
LWPOLYLINE
  5
4A
330
17
100
AcDbEntity
  8
frame
100
AcDbPolyline
 90
7
 70
0
 10
-612.246866384831
 20
143.98546703388712
 10
-585.3467086498041
 20
190.5779069625707
 10
-575.346866384831
 20
190.5779069625707
 10
-548.4467086498041
 20
143.98546703388712
 10
-553.4466297822906
 20
135.32534959858313
 10
-607.2469452523444
 20
135.32534959858313
 10
-612.246866384831
 20
143.98546703388712
  0
LWPOLYLINE
  5
4B
330
17
100
AcDbEntity
  8
frame
100
AcDbPolyline
 90
7
 70
0
 10
-535.8487902076367
 20
145.4855229290103
 10
-545.8486324726098
 20
145.4855229290103
 10
-572.7487902076367
 20
192.07796285769388
 10
-567.7488690751502
 20
200.73808029299786
 10
-513.9485536050963
 20
200.73808029299786
 10
-508.9486324726098
 20
192.07796285769385
 10
-535.8487902076367
 20
145.4855229290103
  0
LWPOLYLINE
  5
4C
330
17
100
AcDbEntity
  8
frame
100
AcDbPolyline
 90
25
 70
0
 10
-458.58468855833996
 20
255.9905817618622
 10
-431.684530823313
 20
209.39814183317864
 10
-436.68445195579955
 20
200.73802439787463
 10
-436.6844520110451
 20
199.73811479730819
 10
-431.6845308785585
 20
191.07799736200417
 10
-430.8185054195286
 20
190.57790696257064
 10
-420.8186631545555
 20
190.57790696257064
 10
-393.91850541952857
 20
143.98546703388706
 10
-398.91842655201515
 20
135.32534959858307
 10
-452.71874202206897
 20
135.32534959858307
 10
-457.7186631545555
 20
143.98546703388706
 10
-458.58468861358546
 20
144.48555743332062
 10
-468.58453087855855
 20
144.48555743332062
 10
-469.4505562270975
 20
143.98546703388706
 10
-474.450477359584
 20
135.32534959858305
 10
-528.2507928296378
 20
135.32534959858305
 10
-533.2507139621243
 20
143.98546703388706
 10
-506.35055622709746
 20
190.57790696257064
 10
-496.35071396212436
 20
190.57790696257064
 10
-495.4846886135855
 20
191.0779973620042
 10
-490.4847674810989
 20
199.73811479730819
 10
-490.4847674258534
 20
200.73802439787463
 10
-495.48468855833994
 20
209.39814183317864
 10
-468.584530823313
 20
255.9905817618622
 10
-458.58468855833996
 20
255.9905817618622
  0
LWPOLYLINE
  5
4D
330
17
100
AcDbEntity
  8
frame
100
AcDbPolyline
 90
25
 70
0
 10
-381.3205869773612
 20
145.48552292901024
 10
-391.3204292423343
 20
145.48552292901024
 10
-418.2205869773612
 20
192.07796285769382
 10
-413.22066584487465
 20
200.7380802929978
 10
-413.22066578962915
 20
201.73798989356425
 10
-418.2205869221157
 20
210.39810732886826
 10
-419.08661238114564
 20
210.8981977283018
 10
-429.08645464611874
 20
210.8981977283018
 10
-455.9866123811456
 20
257.49063765698537
 10
-450.9866912486591
 20
266.1507550922894
 10
-397.1863757786053
 20
266.1507550922894
 10
-392.1864546461187
 20
257.49063765698537
 10
-391.32042918708873
 20
256.99054725755184
 10
-381.3205869221157
 20
256.99054725755184
 10
-380.45456157357677
 20
257.49063765698537
 10
-375.45464044109025
 20
266.1507550922894
 10
-321.6543249710364
 20
266.1507550922894
 10
-316.65440383854985
 20
257.49063765698537
 10
-343.5545615735768
 20
210.8981977283018
 10
-353.55440383854983
 20
210.8981977283018
 10
-354.42042918708876
 20
210.39810732886826
 10
-359.4203503195753
 20
201.73798989356425
 10
-359.4203503748208
 20
200.7380802929978
 10
-354.4204292423343
 20
192.0779628576938
 10
-381.3205869773612
 20
145.48552292901024
  0
LWPOLYLINE
  5
4E
330
17
100
AcDbEntity
  8
frame
100
AcDbPolyline
 90
7
 70
0
 10
-572.7487901523912
 20
210.39810732886832
 10
-545.8486324173642
 20
256.9905472575519
 10
-535.8487901523912
 20
256.9905472575519
 10
-508.94863241736425
 20
210.39810732886832
 10
-513.9485535498508
 20
201.7379898935643
 10
-567.7488690199046
 20
201.7379898935643
 10
-572.7487901523912
 20
210.39810732886832
  0
LWPOLYLINE
  5
4F
330
17
100
AcDbEntity
  8
frame
100
AcDbPolyline
 90
7
 70
0
 10
-471.18260706882535
 20
257.4906376569854
 10
-498.0827648038523
 20
210.89819772830185
 10
-508.0826070688253
 20
210.89819772830185
 10
-534.9827648038523
 20
257.4906376569854
 10
-529.9828436713657
 20
266.15075509228944
 10
-476.18252820131187
 20
266.15075509228944
 10
-471.18260706882535
 20
257.4906376569854
  0
LWPOLYLINE
  5
50
330
17
100
AcDbEntity
  8
frame
100
AcDbPolyline
 90
7
 70
0
 10
-508.08260703466635
 20
324.4032565611538
 10
-498.08276476969326
 20
324.4032565611538
 10
-471.1826070346663
 20
277.8108166324702
 10
-476.1825281671529
 20
269.1506991971662
 10
-529.9828436372068
 20
269.1506991971662
 10
-534.9827647696933
 20
277.8108166324702
 10
-508.08260703466635
 20
324.4032565611538
  0
LWPOLYLINE
  5
51
330
17
100
AcDbEntity
  8
frame
100
AcDbPolyline
 90
7
 70
0
 10
-458.58468859249894
 20
279.31087252759346
 10
-468.58453085747203
 20
279.31087252759346
 10
-495.48468859249897
 20
325.903312456277
 10
-490.4847674600124
 20
334.563429891581
 10
-436.6844519899586
 20
334.563429891581
 10
-431.68453085747205
 20
325.903312456277
 10
-458.58468859249894
 20
279.31087252759346
  0
LWPOLYLINE
  5
52
330
17
100
AcDbEntity
  8
frame
100
AcDbPolyline
 90
25
 70
0
 10
-391.32042920817526
 20
389.8159313604454
 10
-381.3205869432022
 20
389.8159313604454
 10
-354.4204292081753
 20
343.22349143176183
 10
-359.4203503406618
 20
334.56337399645787
 10
-359.42035039590735
 20
333.5634643958914
 10
-354.4204292634208
 20
324.9033469605874
 10
-353.55440380439086
 20
324.40325656115385
 10
-343.55456153941776
 20
324.40325656115385
 10
-316.6544038043908
 20
277.8108166324703
 10
-321.6543249368774
 20
269.1506991971663
 10
-375.4546404069312
 20
269.1506991971663
 10
-380.45456153941774
 20
277.8108166324703
 10
-381.3205869984477
 20
278.3109070319038
 10
-391.3204292634208
 20
278.3109070319038
 10
-392.18645461195973
 20
277.8108166324703
 10
-397.18637574444625
 20
269.15069919716626
 10
-450.98669121450007
 20
269.15069919716626
 10
-455.98661234698665
 20
277.8108166324703
 10
-429.0864546119597
 20
324.40325656115385
 10
-419.0866123469866
 20
324.40325656115385
 10
-418.22058699844774
 20
324.9033469605874
 10
-413.22066586596117
 20
333.5634643958914
 10
-413.2206658107157
 20
334.56337399645787
 10
-418.2205869432022
 20
343.2234914317619
 10
-391.32042920817526
 20
389.8159313604454
  0
LWPOLYLINE
  5
53
330
17
100
AcDbEntity
  8
frame
100
AcDbPolyline
 90
25
 70
0
 10
-304.05648536222344
 20
279.31087252759346
 10
-314.05632762719654
 20
279.31087252759346
 10
-340.9564853622235
 20
325.903312456277
 10
-335.9565642297369
 20
334.563429891581
 10
-335.9565641744914
 20
335.56333949214746
 10
-340.9564853069779
 20
344.2234569274514
 10
-341.8225107660079
 20
344.723547326885
 10
-351.822353030981
 20
344.723547326885
 10
-378.7225107660079
 20
391.31598725556853
 10
-373.72258963352135
 20
399.97610469087255
 10
-319.92227416346753
 20
399.97610469087255
 10
-314.92235303098096
 20
391.31598725556853
 10
-314.056327571951
 20
390.815896856135
 10
-304.05648530697795
 20
390.815896856135
 10
-303.190459958439
 20
391.3159872555686
 10
-298.1905388259525
 20
399.97610469087255
 10
-244.39022335589863
 20
399.97610469087255
 10
-239.3903022234121
 20
391.31598725556853
 10
-266.29045995843904
 20
344.723547326885
 10
-276.2903022234121
 20
344.723547326885
 10
-277.156327571951
 20
344.2234569274514
 10
-282.15624870443753
 20
335.56333949214746
 10
-282.1562487596831
 20
334.563429891581
 10
-277.15632762719656
 20
325.903312456277
 10
-304.05648536222344
 20
279.31087252759346
  0
LWPOLYLINE
  5
54
330
17
100
AcDbEntity
  8
frame
100
AcDbPolyline
 90
7
 70
0
 10
-495.4846885372534
 20
344.2234569274514
 10
-468.5845308022265
 20
390.815896856135
 10
-458.58468853725344
 20
390.815896856135
 10
-431.6845308022265
 20
344.2234569274514
 10
-436.684451934713
 20
335.56333949214746
 10
-490.4847674047669
 20
335.56333949214746
 10
-495.4846885372534
 20
344.2234569274514
  0
LWPOLYLINE
  5
55
330
17
100
AcDbEntity
  8
frame
100
AcDbPolyline
 90
7
 70
0
 10
-420.81866318871454
 20
344.723547326885
 10
-430.8185054536876
 20
344.723547326885
 10
-457.7186631887145
 20
391.3159872555686
 10
-452.718742056228
 20
399.97610469087255
 10
-398.9184265861741
 20
399.97610469087255
 10
-393.9185054536876
 20
391.31598725556853
 10
-420.81866318871454
 20
344.723547326885
  0
LWPOLYLINE
  5
56
330
17
100
AcDbEntity
  8
frame
100
AcDbPolyline
 90
25
 70
0
 10
-304.05648532806447
 20
523.6412809590284
 10
-277.15632759303753
 20
477.0488410303448
 10
-282.15624872552405
 20
468.38872359504086
 10
-282.1562487807696
 20
467.3888139944744
 10
-277.156327648283
 20
458.7286965591704
 10
-276.2903021892531
 20
458.22860615973684
 10
-266.29045992428
 20
458.22860615973684
 10
-239.39030218925308
 20
411.63616623105327
 10
-244.39022332173963
 20
402.9760487957493
 10
-298.1905387917935
 20
402.9760487957493
 10
-303.19045992428
 20
411.63616623105327
 10
-304.05648538330996
 20
412.1362566304868
 10
-314.05632764828306
 20
412.1362566304868
 10
-314.922352996822
 20
411.63616623105327
 10
-319.9222741293085
 20
402.97604879574925
 10
-373.7225895993623
 20
402.97604879574925
 10
-378.7225107318489
 20
411.63616623105327
 10
-351.82235299682196
 20
458.22860615973684
 10
-341.82251073184887
 20
458.22860615973684
 10
-340.95648538331
 20
458.7286965591704
 10
-335.9565642508234
 20
467.3888139944744
 10
-335.9565641955779
 20
468.38872359504086
 10
-340.95648532806445
 20
477.0488410303449
 10
-314.0563275930375
 20
523.6412809590284
 10
-304.05648532806447
 20
523.6412809590284
  0
LWPOLYLINE
  5
57
330
17
100
AcDbEntity
  8
frame
100
AcDbPolyline
 90
7
 70
0
 10
-186.42828209778895
 20
-593.5539557583201
 10
-159.52812436276201
 20
-546.9615158296365
 10
-149.52828209778895
 20
-546.9615158296365
 10
-122.62812436276204
 20
-593.5539557583201
 10
-127.62804549524857
 20
-602.214073193624
 10
-181.4283609653024
 20
-602.214073193624
 10
-186.42828209778895
 20
-593.5539557583201
  0
LWPOLYLINE
  5
58
330
17
100
AcDbEntity
  8
frame
100
AcDbPolyline
 90
7
 70
0
 10
-109.1641804615647
 20
-592.5539902626305
 10
-82.26402272653776
 20
-545.9615503339469
 10
-72.26418046156469
 20
-545.9615503339469
 10
-45.364022726537776
 20
-592.5539902626305
 10
-50.36394385902432
 20
-601.2141076979345
 10
-104.16425932907816
 20
-601.2141076979345
 10
-109.1641804615647
 20
-592.5539902626305
  0
LWPOLYLINE
  5
59
330
17
100
AcDbEntity
  8
frame
100
AcDbPolyline
 90
7
 70
0
 10
-162.12620060827436
 20
-545.4614599345134
 10
-189.0263583433013
 20
-592.053899863197
 10
-199.02620060827434
 20
-592.053899863197
 10
-225.92635834330127
 20
-545.4614599345134
 10
-220.92643721081473
 20
-536.8013424992093
 10
-167.12612174076088
 20
-536.8013424992093
 10
-162.12620060827436
 20
-545.4614599345134
  0
LWPOLYLINE
  5
5A
330
17
100
AcDbEntity
  8
frame
100
AcDbPolyline
 90
7
 70
0
 10
-110.03020592059465
 20
-592.053899863197
 10
-120.03004818556772
 20
-592.053899863197
 10
-146.93020592059466
 20
-545.4614599345134
 10
-141.9302847881081
 20
-536.8013424992093
 10
-88.12996931805428
 20
-536.8013424992093
 10
-83.13004818556773
 20
-545.4614599345134
 10
-110.03020592059465
 20
-592.053899863197
  0
LWPOLYLINE
  5
5B
330
17
100
AcDbEntity
  8
frame
100
AcDbPolyline
 90
7
 70
0
 10
-34.49815511302579
 20
-592.053899863197
 10
-44.49799737799886
 20
-592.053899863197
 10
-71.39815511302578
 20
-545.4614599345134
 10
-66.39823398053925
 20
-536.8013424992093
 10
-12.5979185104854
 20
-536.8013424992093
 10
-7.597997377998865
 20
-545.4614599345134
 10
-34.49815511302579
 20
-592.053899863197
  0
LWPOLYLINE
  5
5C
330
17
100
AcDbEntity
  8
frame
100
AcDbPolyline
 90
25
 70
0
 10
-236.79222597789976
 20
-413.1361662310533
 10
-226.7923837129267
 20
-413.1361662310533
 10
-199.89222597789978
 20
-459.7286061597369
 10
-204.89214711038633
 20
-468.38872359504086
 10
-204.89214716563185
 20
-469.3886331956073
 10
-199.8922260331453
 20
-478.04875063091134
 10
-199.02620057411534
 20
-478.5488410303449
 10
-189.02635830914227
 20
-478.5488410303449
 10
-162.12620057411533
 20
-525.1412809590284
 10
-167.12612170660188
 20
-533.8013983943324
 10
-220.92643717665572
 20
-533.8013983943324
 10
-225.92635830914227
 20
-525.1412809590284
 10
-226.79238376817224
 20
-524.6411905595949
 10
-236.7922260331453
 20
-524.6411905595949
 10
-237.6582513816842
 20
-525.1412809590284
 10
-242.65817251417076
 20
-533.8013983943324
 10
-296.4584879842246
 20
-533.8013983943324
 10
-301.45840911671115
 20
-525.1412809590284
 10
-274.5582513816842
 20
-478.5488410303449
 10
-264.5584091167111
 20
-478.5488410303449
 10
-263.69238376817225
 20
-478.04875063091134
 10
-258.6924626356857
 20
-469.3886331956073
 10
-258.6924625804402
 20
-468.38872359504086
 10
-263.6923837129267
 20
-459.72860615973684
 10
-236.79222597789976
 20
-413.1361662310533
  0
LWPOLYLINE
  5
5D
330
17
100
AcDbEntity
  8
frame
100
AcDbPolyline
 90
25
 70
0
 10
-82.26402274762428
 20
-413.1361662310533
 10
-72.26418048265121
 20
-413.1361662310533
 10
-45.36402274762429
 20
-459.7286061597369
 10
-50.363943880110824
 20
-468.38872359504086
 10
-50.363943935356346
 20
-469.3886331956073
 10
-45.36402280286981
 20
-478.04875063091134
 10
-44.49799734383984
 20
-478.5488410303449
 10
-34.49815507886677
 20
-478.5488410303449
 10
-7.59799734383985
 20
-525.1412809590284
 10
-12.597918476326385
 20
-533.8013983943324
 10
-66.39823394638023
 20
-533.8013983943324
 10
-71.39815507886678
 20
-525.1412809590284
 10
-72.26418053789673
 20
-524.6411905595949
 10
-82.2640228028698
 20
-524.6411905595949
 10
-83.13004815140872
 20
-525.1412809590284
 10
-88.12996928389526
 20
-533.8013983943324
 10
-141.9302847539491
 20
-533.8013983943324
 10
-146.93020588643566
 20
-525.1412809590284
 10
-120.03004815140872
 20
-478.5488410303449
 10
-110.03020588643565
 20
-478.5488410303449
 10
-109.16418053789673
 20
-478.04875063091134
 10
-104.16425940541019
 20
-469.3886331956073
 10
-104.16425935016467
 20
-468.38872359504086
 10
-109.1641804826512
 20
-459.72860615973684
 10
-82.26402274762428
 20
-413.1361662310533
  0
LWPOLYLINE
  5
5E
330
17
100
AcDbEntity
  8
frame
100
AcDbPolyline
 90
25
 70
0
 10
4.999921098327521
 20
-523.6412250639054
 10
-4.999921166645548
 20
-523.6412250639054
 10
-31.900078901672472
 20
-477.0487851352218
 10
-26.90015776918593
 20
-468.3886676999178
 10
-26.90015771394041
 20
-467.3887580993513
 10
-31.90007884642695
 20
-458.72864066404736
 10
-32.76610430545691
 20
-458.2285502646138
 10
-42.76594657042998
 20
-458.2285502646138
 10
-69.66610430545691
 20
-411.6361103359302
 10
-64.66618317297038
 20
-402.97599290062624
 10
-10.865867702916526
 20
-402.97599290062624
 10
-5.865946570429986
 20
-411.63611033593025
 10
-4.999921111400019
 20
-412.1362007353638
 10
4.99992115357305
 20
-412.1362007353638
 10
5.8659465021119646
 20
-411.6361103359302
 10
10.865867634598507
 20
-402.97599290062624
 10
64.66618310465235
 20
-402.97599290062624
 10
69.66610423713888
 20
-411.6361103359302
 10
42.76594650211196
 20
-458.2285502646138
 10
32.76610423713889
 20
-458.2285502646138
 10
31.90007888859997
 20
-458.72864066404736
 10
26.90015775611343
 20
-467.3887580993513
 10
26.900157700867908
 20
-468.3886676999178
 10
31.90007883335445
 20
-477.0487851352218
 10
4.999921098327521
 20
-523.6412250639054
  0
LWPOLYLINE
  5
5F
330
17
100
AcDbEntity
  8
frame
100
AcDbPolyline
 90
25
 70
0
 10
-159.52812439692104
 20
-523.6412250639053
 10
-186.42828213194798
 20
-477.0487851352217
 10
-181.42836099946143
 20
-468.3886676999177
 10
-181.4283609442159
 20
-467.3887580993512
 10
-186.42828207670243
 20
-458.72864066404725
 10
-187.2943075357324
 20
-458.22855026461366
 10
-197.29414980070547
 20
-458.22855026461366
 10
-224.1943075357324
 20
-411.6361103359301
 10
-219.19438640324586
 20
-402.9759929006261
 10
-165.394070933192
 20
-402.9759929006261
 10
-160.3941498007055
 20
-411.63611033593014
 10
-159.52812434167552
 20
-412.1362007353637
 10
-149.52828207670245
 20
-412.1362007353637
 10
-148.66225672816353
 20
-411.6361103359301
 10
-143.66233559567698
 20
-402.9759929006261
 10
-89.86202012562315
 20
-402.9759929006261
 10
-84.86209899313661
 20
-411.6361103359301
 10
-111.76225672816354
 20
-458.22855026461366
 10
-121.7620989931366
 20
-458.22855026461366
 10
-122.62812434167552
 20
-458.72864066404725
 10
-127.62804547416206
 20
-467.3887580993512
 10
-127.62804552940759
 20
-468.3886676999177
 10
-122.62812439692104
 20
-477.0487851352217
 10
-149.52828213194798
 20
-523.6412250639053
 10
-159.52812439692104
 20
-523.6412250639053
  0
LWPOLYLINE
  5
60
330
17
100
AcDbEntity
  8
frame
100
AcDbPolyline
 90
25
 70
0
 10
-149.52828209778895
 20
-279.3108166324703
 10
-122.62812436276204
 20
-325.90325656115385
 10
-127.62804549524857
 20
-334.5633739964578
 10
-127.6280455504941
 20
-335.5632835970243
 10
-122.62812441800756
 20
-344.2234010323283
 10
-121.76209895897759
 20
-344.72349143176183
 10
-111.76225669400452
 20
-344.72349143176183
 10
-84.8620989589776
 20
-391.3159313604454
 10
-89.86202009146413
 20
-399.9760487957494
 10
-143.66233556151798
 20
-399.9760487957494
 10
-148.66225669400453
 20
-391.3159313604454
 10
-149.5282821530345
 20
-390.8158409610119
 10
-159.52812441800756
 20
-390.8158409610119
 10
-160.39414976654646
 20
-391.3159313604454
 10
-165.394070899033
 20
-399.9760487957494
 10
-219.19438636908686
 20
-399.9760487957494
 10
-224.1943075015734
 20
-391.3159313604454
 10
-197.29414976654647
 20
-344.72349143176183
 10
-187.2943075015734
 20
-344.72349143176183
 10
-186.42828215303447
 20
-344.2234010323283
 10
-181.42836102054792
 20
-335.5632835970243
 10
-181.4283609653024
 20
-334.5633739964578
 10
-186.42828209778895
 20
-325.90325656115385
 10
-159.52812436276201
 20
-279.3108166324703
 10
-149.52828209778895
 20
-279.3108166324703
  0
LWPOLYLINE
  5
61
330
17
100
AcDbEntity
  8
frame
100
AcDbPolyline
 90
25
 70
0
 10
-226.79238374708572
 20
-389.81587546532216
 10
-236.7922260120588
 20
-389.81587546532216
 10
-263.6923837470857
 20
-343.22343553663865
 10
-258.69246261459915
 20
-334.56331810133463
 10
-258.69246255935366
 20
-333.56340850076816
 10
-263.6923836918402
 20
-324.9032910654642
 10
-264.55840915087015
 20
-324.4032006660306
 10
-274.55825141584324
 20
-324.4032006660306
 10
-301.4584091508701
 20
-277.8107607373471
 10
-296.4584880183836
 20
-269.1506433020431
 10
-242.65817254832976
 20
-269.1506433020431
 10
-237.65825141584324
 20
-277.8107607373471
 10
-236.79222595681327
 20
-278.3108511367806
 10
-226.7923836918402
 20
-278.3108511367806
 10
-225.92635834330127
 20
-277.81076073734704
 10
-220.92643721081473
 20
-269.1506433020431
 10
-167.12612174076088
 20
-269.1506433020431
 10
-162.12620060827436
 20
-277.8107607373471
 10
-189.0263583433013
 20
-324.4032006660306
 10
-199.02620060827434
 20
-324.4032006660306
 10
-199.89222595681326
 20
-324.9032910654642
 10
-204.8921470892998
 20
-333.56340850076816
 10
-204.89214714454533
 20
-334.56331810133463
 10
-199.89222601205879
 20
-343.22343553663865
 10
-226.79238374708572
 20
-389.81587546532216
  0
LWPOLYLINE
  5
62
330
17
100
AcDbEntity
  8
frame
100
AcDbPolyline
 90
25
 70
0
 10
-72.26418051681023
 20
-389.81587546532216
 10
-82.2640227817833
 20
-389.81587546532216
 10
-109.16418051681022
 20
-343.22343553663865
 10
-104.16425938432369
 20
-334.56331810133463
 10
-104.16425932907816
 20
-333.56340850076816
 10
-109.1641804615647
 20
-324.9032910654642
 10
-110.03020592059465
 20
-324.4032006660306
 10
-120.03004818556772
 20
-324.4032006660306
 10
-146.93020592059466
 20
-277.8107607373471
 10
-141.9302847881081
 20
-269.1506433020431
 10
-88.12996931805428
 20
-269.1506433020431
 10
-83.13004818556773
 20
-277.8107607373471
 10
-82.26402272653776
 20
-278.3108511367806
 10
-72.26418046156469
 20
-278.3108511367806
 10
-71.39815511302578
 20
-277.81076073734704
 10
-66.39823398053925
 20
-269.1506433020431
 10
-12.5979185104854
 20
-269.1506433020431
 10
-7.597997377998865
 20
-277.8107607373471
 10
-34.49815511302579
 20
-324.4032006660306
 10
-44.49799737799886
 20
-324.4032006660306
 10
-45.364022726537776
 20
-324.9032910654642
 10
-50.36394385902432
 20
-333.56340850076816
 10
-50.36394391426984
 20
-334.56331810133463
 10
-45.3640227817833
 20
-343.22343553663865
 10
-72.26418051681023
 20
-389.81587546532216
  0
LWPOLYLINE
  5
63
330
17
100
AcDbEntity
  8
frame
100
AcDbPolyline
 90
25
 70
0
 10
-82.26402274762428
 20
-145.48546703388712
 10
-72.26418048265121
 20
-145.48546703388712
 10
-45.36402274762429
 20
-192.0779069625707
 10
-50.363943880110824
 20
-200.7380243978747
 10
-50.363943935356346
 20
-201.73793399844115
 10
-45.36402280286981
 20
-210.39805143374517
 10
-44.49799734383984
 20
-210.8981418331787
 10
-34.49815507886677
 20
-210.8981418331787
 10
-7.59799734383985
 20
-257.49058176186225
 10
-12.597918476326385
 20
-266.15069919716626
 10
-66.39823394638023
 20
-266.15069919716626
 10
-71.39815507886678
 20
-257.49058176186225
 10
-72.26418053789673
 20
-256.9904913624287
 10
-82.2640228028698
 20
-256.9904913624287
 10
-83.13004815140872
 20
-257.49058176186225
 10
-88.12996928389526
 20
-266.15069919716626
 10
-141.9302847539491
 20
-266.15069919716626
 10
-146.93020588643566
 20
-257.49058176186225
 10
-120.03004815140872
 20
-210.8981418331787
 10
-110.03020588643565
 20
-210.8981418331787
 10
-109.16418053789673
 20
-210.39805143374514
 10
-104.16425940541019
 20
-201.73793399844115
 10
-104.16425935016467
 20
-200.7380243978747
 10
-109.1641804826512
 20
-192.0779069625707
 10
-82.26402274762428
 20
-145.48546703388712
  0
LWPOLYLINE
  5
64
330
17
100
AcDbEntity
  8
frame
100
AcDbPolyline
 90
25
 70
0
 10
-226.7923837129267
 20
-145.48546703388712
 10
-199.89222597789978
 20
-192.0779069625707
 10
-204.89214711038633
 20
-200.7380243978747
 10
-204.89214716563185
 20
-201.73793399844115
 10
-199.8922260331453
 20
-210.39805143374517
 10
-199.02620057411534
 20
-210.8981418331787
 10
-189.02635830914227
 20
-210.8981418331787
 10
-162.12620057411533
 20
-257.49058176186225
 10
-167.12612170660188
 20
-266.15069919716626
 10
-220.92643717665572
 20
-266.15069919716626
 10
-225.92635830914227
 20
-257.49058176186225
 10
-226.79238376817224
 20
-256.9904913624287
 10
-236.7922260331453
 20
-256.9904913624287
 10
-237.6582513816842
 20
-257.49058176186225
 10
-242.65817251417076
 20
-266.15069919716626
 10
-296.4584879842246
 20
-266.15069919716626
 10
-301.45840911671115
 20
-257.49058176186225
 10
-274.5582513816842
 20
-210.8981418331787
 10
-264.5584091167111
 20
-210.8981418331787
 10
-263.69238376817225
 20
-210.39805143374514
 10
-258.6924626356857
 20
-201.73793399844115
 10
-258.6924625804402
 20
-200.7380243978747
 10
-263.6923837129267
 20
-192.0779069625707
 10
-236.79222597789976
 20
-145.48546703388712
 10
-226.7923837129267
 20
-145.48546703388712
  0
LWPOLYLINE
  5
65
330
17
100
AcDbEntity
  8
frame
100
AcDbPolyline
 90
25
 70
0
 10
-159.52812439692104
 20
-255.9905258667391
 10
-186.42828213194798
 20
-209.39808593805554
 10
-181.42836099946143
 20
-200.73796850275153
 10
-181.4283609442159
 20
-199.7380589021851
 10
-186.42828207670243
 20
-191.07794146688107
 10
-187.2943075357324
 20
-190.57785106744754
 10
-197.29414980070547
 20
-190.57785106744754
 10
-224.1943075357324
 20
-143.98541113876396
 10
-219.19438640324586
 20
-135.32529370345998
 10
-165.394070933192
 20
-135.32529370345998
 10
-160.3941498007055
 20
-143.98541113876396
 10
-159.52812434167552
 20
-144.48550153819752
 10
-149.52828207670245
 20
-144.48550153819752
 10
-148.66225672816353
 20
-143.98541113876396
 10
-143.66233559567698
 20
-135.32529370345995
 10
-89.86202012562315
 20
-135.32529370345995
 10
-84.86209899313661
 20
-143.98541113876396
 10
-111.76225672816354
 20
-190.57785106744754
 10
-121.7620989931366
 20
-190.57785106744754
 10
-122.62812434167552
 20
-191.07794146688107
 10
-127.62804547416206
 20
-199.7380589021851
 10
-127.62804552940759
 20
-200.73796850275153
 10
-122.62812439692104
 20
-209.39808593805554
 10
-149.52828213194798
 20
-255.9905258667391
 10
-159.52812439692104
 20
-255.9905258667391
  0
LWPOLYLINE
  5
66
330
17
100
AcDbEntity
  8
frame
100
AcDbPolyline
 90
25
 70
0
 10
4.999921098327521
 20
-255.9905258667391
 10
-4.999921166645548
 20
-255.9905258667391
 10
-31.900078901672472
 20
-209.39808593805554
 10
-26.90015776918593
 20
-200.73796850275153
 10
-26.90015771394041
 20
-199.7380589021851
 10
-31.90007884642695
 20
-191.07794146688107
 10
-32.76610430545691
 20
-190.57785106744754
 10
-42.76594657042998
 20
-190.57785106744754
 10
-69.66610430545691
 20
-143.98541113876396
 10
-64.66618317297038
 20
-135.32529370345998
 10
-10.865867702916526
 20
-135.32529370345998
 10
-5.865946570429986
 20
-143.98541113876396
 10
-4.999921111400019
 20
-144.48550153819752
 10
4.99992115357305
 20
-144.48550153819752
 10
5.8659465021119646
 20
-143.98541113876396
 10
10.865867634598507
 20
-135.32529370345995
 10
64.66618310465235
 20
-135.32529370345995
 10
69.66610423713888
 20
-143.98541113876396
 10
42.76594650211196
 20
-190.57785106744754
 10
32.76610423713889
 20
-190.57785106744754
 10
31.90007888859997
 20
-191.07794146688107
 10
26.90015775611343
 20
-199.7380589021851
 10
26.900157700867908
 20
-200.73796850275153
 10
31.90007883335445
 20
-209.39808593805554
 10
4.999921098327521
 20
-255.9905258667391
  0
LWPOLYLINE
  5
67
330
17
100
AcDbEntity
  8
frame
100
AcDbPolyline
 90
25
 70
0
 10
-314.0563275930375
 20
-11.660117435304002
 10
-304.05648532806447
 20
-11.660117435304002
 10
-277.15632759303753
 20
-58.25255736398757
 10
-282.15624872552405
 20
-66.91267479929158
 10
-282.1562487807696
 20
-67.91258439985802
 10
-277.156327648283
 20
-76.57270183516202
 10
-276.2903021892531
 20
-77.07279223459557
 10
-266.29045992428
 20
-77.07279223459557
 10
-239.39030218925308
 20
-123.66523216327914
 10
-244.39022332173963
 20
-132.32534959858313
 10
-298.1905387917935
 20
-132.32534959858313
 10
-303.19045992428
 20
-123.66523216327913
 10
-304.05648538330996
 20
-123.16514176384558
 10
-314.05632764828306
 20
-123.16514176384558
 10
-314.922352996822
 20
-123.66523216327914
 10
-319.9222741293085
 20
-132.32534959858316
 10
-373.7225895993623
 20
-132.32534959858316
 10
-378.7225107318489
 20
-123.66523216327914
 10
-351.82235299682196
 20
-77.07279223459557
 10
-341.82251073184887
 20
-77.07279223459557
 10
-340.95648538331
 20
-76.57270183516202
 10
-335.9565642508234
 20
-67.91258439985802
 10
-335.9565641955779
 20
-66.91267479929158
 10
-340.95648532806445
 20
-58.25255736398756
 10
-314.0563275930375
 20
-11.660117435304002
  0
LWPOLYLINE
  5
68
330
17
100
AcDbEntity
  8
frame
100
AcDbPolyline
 90
25
 70
0
 10
-159.52812436276201
 20
-11.660117435304002
 10
-149.52828209778895
 20
-11.660117435304002
 10
-122.62812436276204
 20
-58.25255736398757
 10
-127.62804549524857
 20
-66.91267479929158
 10
-127.6280455504941
 20
-67.91258439985802
 10
-122.62812441800756
 20
-76.57270183516202
 10
-121.76209895897759
 20
-77.07279223459557
 10
-111.76225669400452
 20
-77.07279223459557
 10
-84.8620989589776
 20
-123.66523216327914
 10
-89.86202009146413
 20
-132.32534959858313
 10
-143.66233556151798
 20
-132.32534959858313
 10
-148.66225669400453
 20
-123.66523216327913
 10
-149.5282821530345
 20
-123.16514176384558
 10
-159.52812441800756
 20
-123.16514176384558
 10
-160.39414976654646
 20
-123.66523216327914
 10
-165.394070899033
 20
-132.32534959858316
 10
-219.19438636908686
 20
-132.32534959858316
 10
-224.1943075015734
 20
-123.66523216327914
 10
-197.29414976654647
 20
-77.07279223459557
 10
-187.2943075015734
 20
-77.07279223459557
 10
-186.42828215303447
 20
-76.57270183516202
 10
-181.42836102054792
 20
-67.91258439985802
 10
-181.4283609653024
 20
-66.91267479929158
 10
-186.42828209778895
 20
-58.25255736398756
 10
-159.52812436276201
 20
-11.660117435304002
  0
LWPOLYLINE
  5
69
330
17
100
AcDbEntity
  8
frame
100
AcDbPolyline
 90
25
 70
0
 10
-236.7922260120588
 20
-122.16517626815596
 10
-263.6923837470857
 20
-75.5727363394724
 10
-258.69246261459915
 20
-66.9126189041684
 10
-258.69246255935366
 20
-65.91270930360196
 10
-263.6923836918402
 20
-57.25259186829794
 10
-264.55840915087015
 20
-56.75250146886441
 10
-274.55825141584324
 20
-56.75250146886441
 10
-301.4584091508701
 20
-10.160061540180834
 10
-296.4584880183836
 20
-1.499944104876839
 10
-242.65817254832976
 20
-1.499944104876839
 10
-237.65825141584324
 20
-10.160061540180841
 10
-236.79222595681327
 20
-10.66015193961438
 10
-226.7923836918402
 20
-10.66015193961438
 10
-225.92635834330127
 20
-10.160061540180827
 10
-220.92643721081473
 20
-1.4999441048768247
 10
-167.12612174076088
 20
-1.4999441048768247
 10
-162.12620060827436
 20
-10.160061540180834
 10
-189.0263583433013
 20
-56.752501468864395
 10
-199.02620060827434
 20
-56.752501468864395
 10
-199.89222595681326
 20
-57.25259186829795
 10
-204.8921470892998
 20
-65.91270930360196
 10
-204.89214714454533
 20
-66.9126189041684
 10
-199.89222601205879
 20
-75.57273633947241
 10
-226.79238374708572
 20
-122.16517626815596
 10
-236.7922260120588
 20
-122.16517626815596
  0
LWPOLYLINE
  5
6A
330
17
100
AcDbEntity
  8
frame
100
AcDbPolyline
 90
25
 70
0
 10
-82.2640227817833
 20
-122.16517626815596
 10
-109.16418051681022
 20
-75.5727363394724
 10
-104.16425938432369
 20
-66.9126189041684
 10
-104.16425932907816
 20
-65.91270930360196
 10
-109.1641804615647
 20
-57.25259186829794
 10
-110.03020592059465
 20
-56.75250146886441
 10
-120.03004818556772
 20
-56.75250146886441
 10
-146.93020592059466
 20
-10.160061540180834
 10
-141.9302847881081
 20
-1.499944104876839
 10
-88.12996931805428
 20
-1.499944104876839
 10
-83.13004818556773
 20
-10.160061540180841
 10
-82.26402272653776
 20
-10.66015193961438
 10
-72.26418046156469
 20
-10.66015193961438
 10
-71.39815511302578
 20
-10.160061540180827
 10
-66.39823398053925
 20
-1.4999441048768247
 10
-12.5979185104854
 20
-1.4999441048768247
 10
-7.597997377998865
 20
-10.160061540180834
 10
-34.49815511302579
 20
-56.752501468864395
 10
-44.49799737799886
 20
-56.752501468864395
 10
-45.364022726537776
 20
-57.25259186829795
 10
-50.36394385902432
 20
-65.91270930360196
 10
-50.36394391426984
 20
-66.9126189041684
 10
-45.3640227817833
 20
-75.57273633947241
 10
-72.26418051681023
 20
-122.16517626815596
 10
-82.2640227817833
 20
-122.16517626815596
  0
LWPOLYLINE
  5
6B
330
17
100
AcDbEntity
  8
frame
100
AcDbPolyline
 90
25
 70
0
 10
-82.26402274762428
 20
122.16523216327913
 10
-72.26418048265121
 20
122.16523216327913
 10
-45.36402274762429
 20
75.57279223459557
 10
-50.363943880110824
 20
66.91267479929155
 10
-50.363943935356346
 20
65.91276519872511
 10
-45.36402280286981
 20
57.2526477634211
 10
-44.49799734383984
 20
56.75255736398756
 10
-34.49815507886677
 20
56.75255736398756
 10
-7.59799734383985
 20
10.160117435303995
 10
-12.597918476326385
 20
1.5
 10
-66.39823394638023
 20
1.5
 10
-71.39815507886678
 20
10.160117435304002
 10
-72.26418053789673
 20
10.660207834737541
 10
-82.2640228028698
 20
10.660207834737541
 10
-83.13004815140872
 20
10.160117435303988
 10
-88.12996928389526
 20
1.4999999999999858
 10
-141.9302847539491
 20
1.4999999999999858
 10
-146.93020588643566
 20
10.160117435303995
 10
-120.03004815140872
 20
56.75255736398756
 10
-110.03020588643565
 20
56.75255736398756
 10
-109.16418053789673
 20
57.25264776342111
 10
-104.16425940541019
 20
65.91276519872511
 10
-104.16425935016467
 20
66.91267479929155
 10
-109.1641804826512
 20
75.57279223459557
 10
-82.26402274762428
 20
122.16523216327913
  0
LWPOLYLINE
  5
6C
330
17
100
AcDbEntity
  8
frame
100
AcDbPolyline
 90
25
 70
0
 10
-236.79222597789976
 20
122.16523216327913
 10
-226.7923837129267
 20
122.16523216327913
 10
-199.89222597789978
 20
75.57279223459557
 10
-204.89214711038633
 20
66.91267479929155
 10
-204.89214716563185
 20
65.91276519872511
 10
-199.8922260331453
 20
57.2526477634211
 10
-199.02620057411534
 20
56.75255736398756
 10
-189.02635830914227
 20
56.75255736398756
 10
-162.12620057411533
 20
10.160117435303995
 10
-167.12612170660188
 20
1.5
 10
-220.92643717665572
 20
1.5
 10
-225.92635830914227
 20
10.160117435304002
 10
-226.79238376817224
 20
10.660207834737541
 10
-236.7922260331453
 20
10.660207834737541
 10
-237.6582513816842
 20
10.160117435303988
 10
-242.65817251417076
 20
1.4999999999999858
 10
-296.4584879842246
 20
1.4999999999999858
 10
-301.45840911671115
 20
10.160117435303995
 10
-274.5582513816842
 20
56.75255736398756
 10
-264.5584091167111
 20
56.75255736398756
 10
-263.69238376817225
 20
57.25264776342111
 10
-258.6924626356857
 20
65.91276519872511
 10
-258.6924625804402
 20
66.91267479929155
 10
-263.6923837129267
 20
75.57279223459557
 10
-236.79222597789976
 20
122.16523216327913
  0
LWPOLYLINE
  5
6D
330
17
100
AcDbEntity
  8
frame
100
AcDbPolyline
 90
25
 70
0
 10
4.999921098327521
 20
11.66017333042717
 10
-4.999921166645548
 20
11.66017333042717
 10
-31.900078901672472
 20
58.25261325911073
 10
-26.90015776918593
 20
66.91273069441473
 10
-26.90015771394041
 20
67.91264029498117
 10
-31.90007884642695
 20
76.57275773028519
 10
-32.76610430545691
 20
77.07284812971872
 10
-42.76594657042998
 20
77.07284812971872
 10
-69.66610430545691
 20
123.6652880584023
 10
-64.66618317297038
 20
132.32540549370628
 10
-10.865867702916526
 20
132.32540549370628
 10
-5.865946570429986
 20
123.6652880584023
 10
-4.999921111400019
 20
123.16519765896875
 10
4.99992115357305
 20
123.16519765896875
 10
5.8659465021119646
 20
123.6652880584023
 10
10.865867634598507
 20
132.3254054937063
 10
64.66618310465235
 20
132.3254054937063
 10
69.66610423713888
 20
123.6652880584023
 10
42.76594650211196
 20
77.07284812971874
 10
32.76610423713889
 20
77.07284812971874
 10
31.90007888859997
 20
76.57275773028518
 10
26.90015775611343
 20
67.91264029498117
 10
26.900157700867908
 20
66.91273069441473
 10
31.90007883335445
 20
58.252613259110724
 10
4.999921098327521
 20
11.66017333042717
  0
LWPOLYLINE
  5
6E
330
17
100
AcDbEntity
  8
frame
100
AcDbPolyline
 90
25
 70
0
 10
-159.52812439692104
 20
11.66017333042717
 10
-186.42828213194798
 20
58.25261325911073
 10
-181.42836099946143
 20
66.91273069441473
 10
-181.4283609442159
 20
67.91264029498117
 10
-186.42828207670243
 20
76.57275773028519
 10
-187.2943075357324
 20
77.07284812971872
 10
-197.29414980070547
 20
77.07284812971872
 10
-224.1943075357324
 20
123.6652880584023
 10
-219.19438640324586
 20
132.32540549370628
 10
-165.394070933192
 20
132.32540549370628
 10
-160.3941498007055
 20
123.6652880584023
 10
-159.52812434167552
 20
123.16519765896875
 10
-149.52828207670245
 20
123.16519765896875
 10
-148.66225672816353
 20
123.6652880584023
 10
-143.66233559567698
 20
132.3254054937063
 10
-89.86202012562315
 20
132.3254054937063
 10
-84.86209899313661
 20
123.6652880584023
 10
-111.76225672816354
 20
77.07284812971874
 10
-121.7620989931366
 20
77.07284812971874
 10
-122.62812434167552
 20
76.57275773028518
 10
-127.62804547416206
 20
67.91264029498117
 10
-127.62804552940759
 20
66.91273069441473
 10
-122.62812439692104
 20
58.252613259110724
 10
-149.52828213194798
 20
11.66017333042717
 10
-159.52812439692104
 20
11.66017333042717
  0
LWPOLYLINE
  5
6F
330
17
100
AcDbEntity
  8
frame
100
AcDbPolyline
 90
25
 70
0
 10
-149.52828209778895
 20
255.99058176186225
 10
-122.62812436276204
 20
209.3981418331787
 10
-127.62804549524857
 20
200.73802439787468
 10
-127.6280455504941
 20
199.73811479730824
 10
-122.62812441800756
 20
191.07799736200423
 10
-121.76209895897759
 20
190.5779069625707
 10
-111.76225669400452
 20
190.5779069625707
 10
-84.8620989589776
 20
143.98546703388712
 10
-89.86202009146413
 20
135.32534959858313
 10
-143.66233556151798
 20
135.32534959858313
 10
-148.66225669400453
 20
143.98546703388712
 10
-149.5282821530345
 20
144.48555743332068
 10
-159.52812441800756
 20
144.48555743332068
 10
-160.39414976654646
 20
143.98546703388712
 10
-165.394070899033
 20
135.3253495985831
 10
-219.19438636908686
 20
135.3253495985831
 10
-224.1943075015734
 20
143.98546703388712
 10
-197.29414976654647
 20
190.5779069625707
 10
-187.2943075015734
 20
190.5779069625707
 10
-186.42828215303447
 20
191.07799736200425
 10
-181.42836102054792
 20
199.73811479730824
 10
-181.4283609653024
 20
200.73802439787468
 10
-186.42828209778895
 20
209.3981418331787
 10
-159.52812436276201
 20
255.99058176186225
 10
-149.52828209778895
 20
255.99058176186225
  0
LWPOLYLINE
  5
70
330
17
100
AcDbEntity
  8
frame
100
AcDbPolyline
 90
25
 70
0
 10
-314.0563275930375
 20
255.99058176186225
 10
-304.05648532806447
 20
255.99058176186225
 10
-277.15632759303753
 20
209.3981418331787
 10
-282.15624872552405
 20
200.73802439787468
 10
-282.1562487807696
 20
199.73811479730824
 10
-277.156327648283
 20
191.07799736200423
 10
-276.2903021892531
 20
190.5779069625707
 10
-266.29045992428
 20
190.5779069625707
 10
-239.39030218925308
 20
143.98546703388712
 10
-244.39022332173963
 20
135.32534959858313
 10
-298.1905387917935
 20
135.32534959858313
 10
-303.19045992428
 20
143.98546703388712
 10
-304.05648538330996
 20
144.48555743332068
 10
-314.05632764828306
 20
144.48555743332068
 10
-314.922352996822
 20
143.98546703388712
 10
-319.9222741293085
 20
135.3253495985831
 10
-373.7225895993623
 20
135.3253495985831
 10
-378.7225107318489
 20
143.98546703388712
 10
-351.82235299682196
 20
190.5779069625707
 10
-341.82251073184887
 20
190.5779069625707
 10
-340.95648538331
 20
191.07799736200425
 10
-335.9565642508234
 20
199.73811479730824
 10
-335.9565641955779
 20
200.73802439787468
 10
-340.95648532806445
 20
209.3981418331787
 10
-314.0563275930375
 20
255.99058176186225
  0
LWPOLYLINE
  5
71
330
17
100
AcDbEntity
  8
frame
100
AcDbPolyline
 90
25
 70
0
 10
-72.26418051681023
 20
145.4855229290103
 10
-82.2640227817833
 20
145.4855229290103
 10
-109.16418051681022
 20
192.07796285769388
 10
-104.16425938432369
 20
200.73808029299786
 10
-104.16425932907816
 20
201.7379898935643
 10
-109.1641804615647
 20
210.39810732886832
 10
-110.03020592059465
 20
210.89819772830185
 10
-120.03004818556772
 20
210.89819772830185
 10
-146.93020592059466
 20
257.4906376569854
 10
-141.9302847881081
 20
266.15075509228944
 10
-88.12996931805428
 20
266.15075509228944
 10
-83.13004818556773
 20
257.4906376569854
 10
-82.26402272653776
 20
256.9905472575519
 10
-72.26418046156469
 20
256.9905472575519
 10
-71.39815511302578
 20
257.4906376569854
 10
-66.39823398053925
 20
266.15075509228944
 10
-12.5979185104854
 20
266.15075509228944
 10
-7.597997377998865
 20
257.4906376569854
 10
-34.49815511302579
 20
210.89819772830185
 10
-44.49799737799886
 20
210.89819772830185
 10
-45.364022726537776
 20
210.39810732886832
 10
-50.36394385902432
 20
201.7379898935643
 10
-50.36394391426984
 20
200.73808029299786
 10
-45.3640227817833
 20
192.07796285769385
 10
-72.26418051681023
 20
145.4855229290103
  0
LWPOLYLINE
  5
72
330
17
100
AcDbEntity
  8
frame
100
AcDbPolyline
 90
25
 70
0
 10
-226.79238374708572
 20
145.4855229290103
 10
-236.7922260120588
 20
145.4855229290103
 10
-263.6923837470857
 20
192.07796285769388
 10
-258.69246261459915
 20
200.73808029299786
 10
-258.69246255935366
 20
201.7379898935643
 10
-263.6923836918402
 20
210.39810732886832
 10
-264.55840915087015
 20
210.89819772830185
 10
-274.55825141584324
 20
210.89819772830185
 10
-301.4584091508701
 20
257.4906376569854
 10
-296.4584880183836
 20
266.15075509228944
 10
-242.65817254832976
 20
266.15075509228944
 10
-237.65825141584324
 20
257.4906376569854
 10
-236.79222595681327
 20
256.9905472575519
 10
-226.7923836918402
 20
256.9905472575519
 10
-225.92635834330127
 20
257.4906376569854
 10
-220.92643721081473
 20
266.15075509228944
 10
-167.12612174076088
 20
266.15075509228944
 10
-162.12620060827436
 20
257.4906376569854
 10
-189.0263583433013
 20
210.89819772830185
 10
-199.02620060827434
 20
210.89819772830185
 10
-199.89222595681326
 20
210.39810732886832
 10
-204.8921470892998
 20
201.7379898935643
 10
-204.89214714454533
 20
200.73808029299786
 10
-199.89222601205879
 20
192.07796285769385
 10
-226.79238374708572
 20
145.4855229290103
  0
LWPOLYLINE
  5
73
330
17
100
AcDbEntity
  8
frame
100
AcDbPolyline
 90
25
 70
0
 10
-72.26418048265121
 20
389.81593136044535
 10
-45.36402274762429
 20
343.2234914317618
 10
-50.363943880110824
 20
334.5633739964578
 10
-50.363943935356346
 20
333.56346439589134
 10
-45.36402280286981
 20
324.9033469605873
 10
-44.49799734383984
 20
324.4032565611538
 10
-34.49815507886677
 20
324.4032565611538
 10
-7.59799734383985
 20
277.8108166324702
 10
-12.597918476326385
 20
269.1506991971662
 10
-66.39823394638023
 20
269.1506991971662
 10
-71.39815507886678
 20
277.8108166324702
 10
-72.26418053789673
 20
278.31090703190375
 10
-82.2640228028698
 20
278.31090703190375
 10
-83.13004815140872
 20
277.8108166324702
 10
-88.12996928389526
 20
269.1506991971662
 10
-141.9302847539491
 20
269.1506991971662
 10
-146.93020588643566
 20
277.8108166324702
 10
-120.03004815140872
 20
324.4032565611538
 10
-110.03020588643565
 20
324.4032565611538
 10
-109.16418053789673
 20
324.9033469605873
 10
-104.16425940541019
 20
333.56346439589134
 10
-104.16425935016467
 20
334.5633739964578
 10
-109.1641804826512
 20
343.2234914317618
 10
-82.26402274762428
 20
389.81593136044535
 10
-72.26418048265121
 20
389.81593136044535
  0
LWPOLYLINE
  5
74
330
17
100
AcDbEntity
  8
frame
100
AcDbPolyline
 90
25
 70
0
 10
-226.7923837129267
 20
389.81593136044535
 10
-199.89222597789978
 20
343.2234914317618
 10
-204.89214711038633
 20
334.5633739964578
 10
-204.89214716563185
 20
333.56346439589134
 10
-199.8922260331453
 20
324.9033469605873
 10
-199.02620057411534
 20
324.4032565611538
 10
-189.02635830914227
 20
324.4032565611538
 10
-162.12620057411533
 20
277.8108166324702
 10
-167.12612170660188
 20
269.1506991971662
 10
-220.92643717665572
 20
269.1506991971662
 10
-225.92635830914227
 20
277.8108166324702
 10
-226.79238376817224
 20
278.31090703190375
 10
-236.7922260331453
 20
278.31090703190375
 10
-237.6582513816842
 20
277.8108166324702
 10
-242.65817251417076
 20
269.1506991971662
 10
-296.4584879842246
 20
269.1506991971662
 10
-301.45840911671115
 20
277.8108166324702
 10
-274.5582513816842
 20
324.4032565611538
 10
-264.5584091167111
 20
324.4032565611538
 10
-263.69238376817225
 20
324.9033469605873
 10
-258.6924626356857
 20
333.56346439589134
 10
-258.6924625804402
 20
334.5633739964578
 10
-263.6923837129267
 20
343.2234914317618
 10
-236.79222597789976
 20
389.81593136044535
 10
-226.7923837129267
 20
389.81593136044535
  0
LWPOLYLINE
  5
75
330
17
100
AcDbEntity
  8
frame
100
AcDbPolyline
 90
25
 70
0
 10
-149.52828213194798
 20
279.31087252759346
 10
-159.52812439692104
 20
279.31087252759346
 10
-186.42828213194798
 20
325.903312456277
 10
-181.42836099946143
 20
334.563429891581
 10
-181.4283609442159
 20
335.56333949214746
 10
-186.42828207670243
 20
344.2234569274514
 10
-187.2943075357324
 20
344.723547326885
 10
-197.29414980070547
 20
344.723547326885
 10
-224.1943075357324
 20
391.31598725556853
 10
-219.19438640324586
 20
399.97610469087255
 10
-165.394070933192
 20
399.97610469087255
 10
-160.3941498007055
 20
391.31598725556853
 10
-159.52812434167552
 20
390.815896856135
 10
-149.52828207670245
 20
390.815896856135
 10
-148.66225672816353
 20
391.3159872555686
 10
-143.66233559567698
 20
399.97610469087255
 10
-89.86202012562315
 20
399.97610469087255
 10
-84.86209899313661
 20
391.31598725556853
 10
-111.76225672816354
 20
344.723547326885
 10
-121.7620989931366
 20
344.723547326885
 10
-122.62812434167552
 20
344.2234569274514
 10
-127.62804547416206
 20
335.56333949214746
 10
-127.62804552940759
 20
334.563429891581
 10
-122.62812439692104
 20
325.903312456277
 10
-149.52828213194798
 20
279.31087252759346
  0
LWPOLYLINE
  5
76
330
17
100
AcDbEntity
  8
frame
100
AcDbPolyline
 90
25
 70
0
 10
4.999921098327521
 20
279.31087252759346
 10
-4.999921166645548
 20
279.31087252759346
 10
-31.900078901672472
 20
325.903312456277
 10
-26.90015776918593
 20
334.563429891581
 10
-26.90015771394041
 20
335.56333949214746
 10
-31.90007884642695
 20
344.2234569274514
 10
-32.76610430545691
 20
344.723547326885
 10
-42.76594657042998
 20
344.723547326885
 10
-69.66610430545691
 20
391.31598725556853
 10
-64.66618317297038
 20
399.97610469087255
 10
-10.865867702916526
 20
399.97610469087255
 10
-5.865946570429986
 20
391.31598725556853
 10
-4.999921111400019
 20
390.815896856135
 10
4.99992115357305
 20
390.815896856135
 10
5.8659465021119646
 20
391.3159872555686
 10
10.865867634598507
 20
399.97610469087255
 10
64.66618310465235
 20
399.97610469087255
 10
69.66610423713888
 20
391.31598725556853
 10
42.76594650211196
 20
344.723547326885
 10
32.76610423713889
 20
344.723547326885
 10
31.90007888859997
 20
344.2234569274514
 10
26.90015775611343
 20
335.56333949214746
 10
26.900157700867908
 20
334.563429891581
 10
31.90007883335445
 20
325.903312456277
 10
4.999921098327521
 20
279.31087252759346
  0
LWPOLYLINE
  5
77
330
17
100
AcDbEntity
  8
frame
100
AcDbPolyline
 90
25
 70
0
 10
-159.52812436276201
 20
523.6412809590286
 10
-149.52828209778895
 20
523.6412809590286
 10
-122.62812436276204
 20
477.04884103034493
 10
-127.62804549524857
 20
468.388723595041
 10
-127.6280455504941
 20
467.3888139944745
 10
-122.62812441800756
 20
458.7286965591705
 10
-121.76209895897759
 20
458.22860615973696
 10
-111.76225669400452
 20
458.22860615973696
 10
-84.8620989589776
 20
411.6361662310534
 10
-89.86202009146413
 20
402.9760487957494
 10
-143.66233556151798
 20
402.9760487957494
 10
-148.66225669400453
 20
411.6361662310534
 10
-149.5282821530345
 20
412.1362566304869
 10
-159.52812441800756
 20
412.1362566304869
 10
-160.39414976654646
 20
411.6361662310534
 10
-165.394070899033
 20
402.97604879574936
 10
-219.19438636908686
 20
402.97604879574936
 10
-224.1943075015734
 20
411.6361662310534
 10
-197.29414976654647
 20
458.22860615973696
 10
-187.2943075015734
 20
458.22860615973696
 10
-186.42828215303447
 20
458.7286965591705
 10
-181.42836102054792
 20
467.3888139944745
 10
-181.4283609653024
 20
468.388723595041
 10
-186.42828209778895
 20
477.048841030345
 10
-159.52812436276201
 20
523.6412809590286
  0
LWPOLYLINE
  5
78
330
17
100
AcDbEntity
  8
frame
100
AcDbPolyline
 90
25
 70
0
 10
-82.2640227817833
 20
413.13622212617645
 10
-109.16418051681022
 20
459.72866205486
 10
-104.16425938432369
 20
468.38877949016404
 10
-104.16425932907816
 20
469.3886890907305
 10
-109.1641804615647
 20
478.04880652603447
 10
-110.03020592059465
 20
478.54889692546806
 10
-120.03004818556772
 20
478.54889692546806
 10
-146.93020592059466
 20
525.1413368541516
 10
-141.9302847881081
 20
533.8014542894556
 10
-88.12996931805428
 20
533.8014542894556
 10
-83.13004818556773
 20
525.1413368541516
 10
-82.26402272653776
 20
524.641246454718
 10
-72.26418046156469
 20
524.641246454718
 10
-71.39815511302578
 20
525.1413368541516
 10
-66.39823398053925
 20
533.8014542894556
 10
-12.5979185104854
 20
533.8014542894556
 10
-7.597997377998865
 20
525.1413368541516
 10
-34.49815511302579
 20
478.54889692546806
 10
-44.49799737799886
 20
478.54889692546806
 10
-45.364022726537776
 20
478.04880652603447
 10
-50.36394385902432
 20
469.3886890907305
 10
-50.36394391426984
 20
468.38877949016404
 10
-45.3640227817833
 20
459.72866205486
 10
-72.26418051681023
 20
413.13622212617645
 10
-82.2640227817833
 20
413.13622212617645
  0
LWPOLYLINE
  5
79
330
17
100
AcDbEntity
  8
frame
100
AcDbPolyline
 90
25
 70
0
 10
-236.7922260120588
 20
413.13622212617645
 10
-263.6923837470857
 20
459.72866205486
 10
-258.69246261459915
 20
468.38877949016404
 10
-258.69246255935366
 20
469.3886890907305
 10
-263.6923836918402
 20
478.04880652603447
 10
-264.55840915087015
 20
478.54889692546806
 10
-274.55825141584324
 20
478.54889692546806
 10
-301.4584091508701
 20
525.1413368541516
 10
-296.4584880183836
 20
533.8014542894556
 10
-242.65817254832976
 20
533.8014542894556
 10
-237.65825141584324
 20
525.1413368541516
 10
-236.79222595681327
 20
524.641246454718
 10
-226.7923836918402
 20
524.641246454718
 10
-225.92635834330127
 20
525.1413368541516
 10
-220.92643721081473
 20
533.8014542894556
 10
-167.12612174076088
 20
533.8014542894556
 10
-162.12620060827436
 20
525.1413368541516
 10
-189.0263583433013
 20
478.54889692546806
 10
-199.02620060827434
 20
478.54889692546806
 10
-199.89222595681326
 20
478.04880652603447
 10
-204.8921470892998
 20
469.3886890907305
 10
-204.89214714454533
 20
468.38877949016404
 10
-199.89222601205879
 20
459.72866205486
 10
-226.79238374708572
 20
413.13622212617645
 10
-236.7922260120588
 20
413.13622212617645
  0
LWPOLYLINE
  5
7A
330
17
100
AcDbEntity
  8
frame
100
AcDbPolyline
 90
7
 70
0
 10
-225.92635830914227
 20
545.4615158296366
 10
-199.02620057411534
 20
592.0539557583202
 10
-189.02635830914227
 20
592.0539557583202
 10
-162.12620057411533
 20
545.4615158296366
 10
-167.12612170660188
 20
536.8013983943325
 10
-220.92643717665572
 20
536.8013983943325
 10
-225.92635830914227
 20
545.4615158296366
  0
LWPOLYLINE
  5
7B
330
17
100
AcDbEntity
  8
frame
100
AcDbPolyline
 90
7
 70
0
 10
-71.39815507886678
 20
545.4615158296366
 10
-44.49799734383984
 20
592.0539557583202
 10
-34.49815507886677
 20
592.0539557583202
 10
-7.59799734383985
 20
545.4615158296366
 10
-12.597918476326385
 20
536.8013983943325
 10
-66.39823394638023
 20
536.8013983943325
 10
-71.39815507886678
 20
545.4615158296366
  0
LWPOLYLINE
  5
7C
330
17
100
AcDbEntity
  8
frame
100
AcDbPolyline
 90
7
 70
0
 10
-146.93020588643566
 20
545.4615158296366
 10
-120.03004815140872
 20
592.0539557583201
 10
-110.03020588643565
 20
592.0539557583201
 10
-83.13004815140872
 20
545.4615158296365
 10
-88.12996928389526
 20
536.8013983943325
 10
-141.9302847539491
 20
536.8013983943325
 10
-146.93020588643566
 20
545.4615158296366
  0
LWPOLYLINE
  5
7D
330
17
100
AcDbEntity
  8
frame
100
AcDbPolyline
 90
7
 70
0
 10
-72.26418053789673
 20
545.9616062290701
 10
-82.2640228028698
 20
545.9616062290701
 10
-109.16418053789673
 20
592.5540461577536
 10
-104.16425940541019
 20
601.2141635930577
 10
-50.363943935356346
 20
601.2141635930577
 10
-45.36402280286981
 20
592.5540461577536
 10
-72.26418053789673
 20
545.9616062290701
  0
LWPOLYLINE
  5
7E
330
17
100
AcDbEntity
  8
frame
100
AcDbPolyline
 90
7
 70
0
 10
-149.52828213194798
 20
546.9615717247598
 10
-159.52812439692104
 20
546.9615717247598
 10
-186.42828213194798
 20
593.5540116534434
 10
-181.42836099946143
 20
602.2141290887473
 10
-127.62804552940759
 20
602.2141290887473
 10
-122.62812439692104
 20
593.5540116534434
 10
-149.52828213194798
 20
546.9615717247598
  0
LWPOLYLINE
  5
7F
330
17
100
AcDbEntity
  8
frame
100
AcDbPolyline
 90
7
 70
0
 10
122.62812436276204
 20
-593.5539557583201
 10
149.52828209778897
 20
-546.9615158296365
 10
159.52812436276204
 20
-546.9615158296365
 10
186.42828209778895
 20
-593.5539557583201
 10
181.4283609653024
 20
-602.214073193624
 10
127.62804549524857
 20
-602.214073193624
 10
122.62812436276204
 20
-593.5539557583201
  0
LWPOLYLINE
  5
80
330
17
100
AcDbEntity
  8
frame
100
AcDbPolyline
 90
7
 70
0
 10
45.3640227687108
 20
-592.5539902626304
 10
72.26418050373773
 20
-545.9615503339468
 10
82.2640227687108
 20
-545.9615503339468
 10
109.16418050373773
 20
-592.5539902626304
 10
104.16425937125118
 20
-601.2141076979344
 10
50.36394390119734
 20
-601.2141076979344
 10
45.3640227687108
 20
-592.5539902626304
  0
LWPOLYLINE
  5
81
330
17
100
AcDbEntity
  8
frame
100
AcDbPolyline
 90
7
 70
0
 10
225.92635827498324
 20
-545.4614599345134
 10
199.02620053995633
 20
-592.053899863197
 10
189.02635827498327
 20
-592.053899863197
 10
162.12620053995633
 20
-545.4614599345134
 10
167.12612167244288
 20
-536.8013424992093
 10
220.92643714249672
 20
-536.8013424992093
 10
225.92635827498324
 20
-545.4614599345134
  0
LWPOLYLINE
  5
82
330
17
100
AcDbEntity
  8
frame
100
AcDbPolyline
 90
7
 70
0
 10
44.497997309680834
 20
-592.0538998631969
 10
34.498155044707765
 20
-592.0538998631969
 10
7.597997309680835
 20
-545.4614599345133
 10
12.59791844216737
 20
-536.8013424992092
 10
66.39823391222122
 20
-536.8013424992092
 10
71.39815504470776
 20
-545.4614599345133
 10
44.497997309680834
 20
-592.0538998631969
  0
LWPOLYLINE
  5
83
330
17
100
AcDbEntity
  8
frame
100
AcDbPolyline
 90
7
 70
0
 10
120.0300481172497
 20
-592.0538998631969
 10
110.03020585227664
 20
-592.0538998631969
 10
83.13004811724971
 20
-545.4614599345133
 10
88.12996924973625
 20
-536.8013424992092
 10
141.9302847197901
 20
-536.8013424992092
 10
146.93020585227663
 20
-545.4614599345133
 10
120.0300481172497
 20
-592.0538998631969
  0
LWPOLYLINE
  5
84
330
17
100
AcDbEntity
  8
frame
100
AcDbPolyline
 90
25
 70
0
 10
72.26418048265121
 20
-413.13616623105344
 10
82.26402274762428
 20
-413.13616623105344
 10
109.1641804826512
 20
-459.728606159737
 10
104.16425935016467
 20
-468.388723595041
 10
104.16425929491915
 20
-469.38863319560744
 10
109.16418042740568
 20
-478.04875063091146
 10
110.03020588643565
 20
-478.548841030345
 10
120.03004815140872
 20
-478.548841030345
 10
146.93020588643566
 20
-525.1412809590286
 10
141.9302847539491
 20
-533.8013983943325
 10
88.12996928389526
 20
-533.8013983943325
 10
83.13004815140872
 20
-525.1412809590286
 10
82.26402269237876
 20
-524.641190559595
 10
72.26418042740569
 20
-524.641190559595
 10
71.39815507886678
 20
-525.1412809590286
 10
66.39823394638023
 20
-533.8013983943325
 10
12.597918476326385
 20
-533.8013983943325
 10
7.59799734383985
 20
-525.1412809590286
 10
34.49815507886678
 20
-478.548841030345
 10
44.49799734383985
 20
-478.548841030345
 10
45.36402269237877
 20
-478.04875063091146
 10
50.3639438248653
 20
-469.38863319560744
 10
50.363943880110824
 20
-468.388723595041
 10
45.36402274762429
 20
-459.72860615973696
 10
72.26418048265121
 20
-413.13616623105344
  0
LWPOLYLINE
  5
85
330
17
100
AcDbEntity
  8
frame
100
AcDbPolyline
 90
25
 70
0
 10
226.79238371292672
 20
-413.1361662310533
 10
236.7922259778998
 20
-413.1361662310533
 10
263.6923837129267
 20
-459.7286061597369
 10
258.6924625804402
 20
-468.38872359504086
 10
258.6924625251946
 20
-469.3886331956073
 10
263.6923836576812
 20
-478.04875063091134
 10
264.5584091167111
 20
-478.5488410303449
 10
274.5582513816842
 20
-478.5488410303449
 10
301.45840911671115
 20
-525.1412809590284
 10
296.4584879842246
 20
-533.8013983943324
 10
242.65817251417076
 20
-533.8013983943324
 10
237.6582513816842
 20
-525.1412809590284
 10
236.79222592265424
 20
-524.6411905595949
 10
226.79238365768117
 20
-524.6411905595949
 10
225.92635830914227
 20
-525.1412809590284
 10
220.92643717665572
 20
-533.8013983943324
 10
167.12612170660188
 20
-533.8013983943324
 10
162.12620057411533
 20
-525.1412809590284
 10
189.02635830914227
 20
-478.5488410303449
 10
199.02620057411534
 20
-478.5488410303449
 10
199.89222592265426
 20
-478.04875063091134
 10
204.8921470551408
 20
-469.3886331956073
 10
204.89214711038633
 20
-468.38872359504086
 10
199.89222597789978
 20
-459.72860615973684
 10
226.79238371292672
 20
-413.1361662310533
  0
LWPOLYLINE
  5
86
330
17
100
AcDbEntity
  8
frame
100
AcDbPolyline
 90
25
 70
0
 10
159.528124328603
 20
-523.6412250639054
 10
149.52828206362994
 20
-523.6412250639054
 10
122.62812432860302
 20
-477.04878513522186
 10
127.62804546108956
 20
-468.38866769991785
 10
127.62804551633508
 20
-467.3887580993514
 10
122.62812438384854
 20
-458.7286406640474
 10
121.76209892481859
 20
-458.22855026461383
 10
111.76225665984552
 20
-458.22855026461383
 10
84.86209892481858
 20
-411.6361103359303
 10
89.86202005730512
 20
-402.9759929006263
 10
143.66233552735898
 20
-402.9759929006263
 10
148.6622566598455
 20
-411.6361103359303
 10
149.52828211887547
 20
-412.13620073536384
 10
159.52812438384854
 20
-412.13620073536384
 10
160.39414973238746
 20
-411.63611033593025
 10
165.394070864874
 20
-402.9759929006263
 10
219.19438633492786
 20
-402.9759929006263
 10
224.19430746741438
 20
-411.6361103359303
 10
197.29414973238744
 20
-458.22855026461383
 10
187.2943074674144
 20
-458.22855026461383
 10
186.42828211887547
 20
-458.7286406640474
 10
181.42836098638892
 20
-467.3887580993514
 10
181.4283609311434
 20
-468.38866769991785
 10
186.42828206362995
 20
-477.04878513522186
 10
159.528124328603
 20
-523.6412250639054
  0
LWPOLYLINE
  5
87
330
17
100
AcDbEntity
  8
frame
100
AcDbPolyline
 90
25
 70
0
 10
4.999921132486537
 20
-279.3108166324703
 10
31.90007886751346
 20
-325.90325656115385
 10
26.90015773502692
 20
-334.5633739964578
 10
26.900157679781397
 20
-335.5632835970243
 10
31.90007881226794
 20
-344.2234010323283
 10
32.766104271297905
 20
-344.72349143176183
 10
42.765946536270974
 20
-344.72349143176183
 10
69.6661042712979
 20
-391.3159313604454
 10
64.66618313881136
 20
-399.9760487957494
 10
10.865867668757517
 20
-399.9760487957494
 10
5.865946536270975
 20
-391.3159313604454
 10
4.999921077241008
 20
-390.8158409610119
 10
-4.999921187732061
 20
-390.8158409610119
 10
-5.865946536270975
 20
-391.3159313604454
 10
-10.865867668757517
 20
-399.9760487957494
 10
-64.66618313881136
 20
-399.9760487957494
 10
-69.6661042712979
 20
-391.3159313604454
 10
-42.76594653627097
 20
-344.72349143176183
 10
-32.7661042712979
 20
-344.72349143176183
 10
-31.900078922758983
 20
-344.2234010323283
 10
-26.90015779027244
 20
-335.5632835970243
 10
-26.90015773502692
 20
-334.5633739964578
 10
-31.90007886751346
 20
-325.90325656115385
 10
-4.999921132486532
 20
-279.3108166324703
 10
4.999921132486537
 20
-279.3108166324703
  0
LWPOLYLINE
  5
88
330
17
100
AcDbEntity
  8
frame
100
AcDbPolyline
 90
25
 70
0
 10
159.52812436276204
 20
-279.3108166324703
 10
186.42828209778895
 20
-325.90325656115385
 10
181.4283609653024
 20
-334.5633739964578
 10
181.42836091005688
 20
-335.5632835970243
 10
186.42828204254343
 20
-344.2234010323283
 10
187.2943075015734
 20
-344.72349143176183
 10
197.29414976654647
 20
-344.72349143176183
 10
224.1943075015734
 20
-391.3159313604454
 10
219.19438636908686
 20
-399.9760487957494
 10
165.394070899033
 20
-399.9760487957494
 10
160.39414976654646
 20
-391.3159313604454
 10
159.5281243075165
 20
-390.8158409610119
 10
149.52828204254342
 20
-390.8158409610119
 10
148.66225669400453
 20
-391.3159313604454
 10
143.66233556151798
 20
-399.9760487957494
 10
89.86202009146413
 20
-399.9760487957494
 10
84.8620989589776
 20
-391.3159313604454
 10
111.76225669400452
 20
-344.72349143176183
 10
121.76209895897759
 20
-344.72349143176183
 10
122.62812430751652
 20
-344.2234010323283
 10
127.62804544000305
 20
-335.5632835970243
 10
127.62804549524857
 20
-334.5633739964578
 10
122.62812436276204
 20
-325.90325656115385
 10
149.52828209778897
 20
-279.3108166324703
 10
159.52812436276204
 20
-279.3108166324703
  0
LWPOLYLINE
  5
89
330
17
100
AcDbEntity
  8
frame
100
AcDbPolyline
 90
25
 70
0
 10
236.79222594374076
 20
-389.81587546532216
 10
226.7923836787677
 20
-389.81587546532216
 10
199.89222594374075
 20
-343.22343553663865
 10
204.8921470762273
 20
-334.56331810133463
 10
204.89214713147283
 20
-333.56340850076816
 10
199.8922259989863
 20
-324.9032910654642
 10
199.02620053995633
 20
-324.4032006660306
 10
189.02635827498327
 20
-324.4032006660306
 10
162.12620053995633
 20
-277.8107607373471
 10
167.12612167244288
 20
-269.1506433020431
 10
220.92643714249672
 20
-269.1506433020431
 10
225.92635827498324
 20
-277.8107607373471
 10
226.7923837340132
 20
-278.3108511367806
 10
236.79222599898628
 20
-278.3108511367806
 10
237.6582513475252
 20
-277.81076073734704
 10
242.65817248001176
 20
-269.1506433020431
 10
296.4584879500656
 20
-269.1506433020431
 10
301.4584090825521
 20
-277.8107607373471
 10
274.5582513475252
 20
-324.4032006660306
 10
264.55840908255215
 20
-324.4032006660306
 10
263.6923837340132
 20
-324.9032910654642
 10
258.6924626015267
 20
-333.56340850076816
 10
258.69246254628115
 20
-334.56331810133463
 10
263.69238367876767
 20
-343.22343553663865
 10
236.79222594374076
 20
-389.81587546532216
  0
LWPOLYLINE
  5
8A
330
17
100
AcDbEntity
  8
frame
100
AcDbPolyline
 90
25
 70
0
 10
82.26402271346527
 20
-389.81587546532216
 10
72.2641804484922
 20
-389.81587546532216
 10
45.364022713465275
 20
-343.22343553663865
 10
50.363943845951816
 20
-334.56331810133463
 10
50.36394390119734
 20
-333.56340850076816
 10
45.3640227687108
 20
-324.9032910654642
 10
44.497997309680834
 20
-324.4032006660306
 10
34.498155044707765
 20
-324.4032006660306
 10
7.597997309680835
 20
-277.8107607373471
 10
12.59791844216737
 20
-269.1506433020431
 10
66.39823391222122
 20
-269.1506433020431
 10
71.39815504470776
 20
-277.8107607373471
 10
72.26418050373773
 20
-278.3108511367806
 10
82.2640227687108
 20
-278.3108511367806
 10
83.13004811724971
 20
-277.81076073734704
 10
88.12996924973625
 20
-269.1506433020431
 10
141.9302847197901
 20
-269.1506433020431
 10
146.93020585227663
 20
-277.8107607373471
 10
120.0300481172497
 20
-324.4032006660306
 10
110.03020585227664
 20
-324.4032006660306
 10
109.16418050373773
 20
-324.9032910654642
 10
104.16425937125118
 20
-333.56340850076816
 10
104.16425931600565
 20
-334.56331810133463
 10
109.1641804484922
 20
-343.22343553663865
 10
82.26402271346527
 20
-389.81587546532216
  0
LWPOLYLINE
  5
8B
330
17
100
AcDbEntity
  8
frame
100
AcDbPolyline
 90
25
 70
0
 10
72.26418048265121
 20
-145.48546703388712
 10
82.26402274762428
 20
-145.48546703388712
 10
109.1641804826512
 20
-192.0779069625707
 10
104.16425935016467
 20
-200.7380243978747
 10
104.16425929491915
 20
-201.73793399844115
 10
109.16418042740568
 20
-210.39805143374517
 10
110.03020588643565
 20
-210.8981418331787
 10
120.03004815140872
 20
-210.8981418331787
 10
146.93020588643566
 20
-257.49058176186225
 10
141.9302847539491
 20
-266.15069919716626
 10
88.12996928389526
 20
-266.15069919716626
 10
83.13004815140872
 20
-257.49058176186225
 10
82.26402269237876
 20
-256.9904913624287
 10
72.26418042740569
 20
-256.9904913624287
 10
71.39815507886678
 20
-257.49058176186225
 10
66.39823394638023
 20
-266.15069919716626
 10
12.597918476326385
 20
-266.15069919716626
 10
7.59799734383985
 20
-257.49058176186225
 10
34.49815507886678
 20
-210.8981418331787
 10
44.49799734383985
 20
-210.8981418331787
 10
45.36402269237877
 20
-210.39805143374514
 10
50.3639438248653
 20
-201.73793399844115
 10
50.363943880110824
 20
-200.7380243978747
 10
45.36402274762429
 20
-192.0779069625707
 10
72.26418048265121
 20
-145.48546703388712
  0
LWPOLYLINE
  5
8C
330
17
100
AcDbEntity
  8
frame
100
AcDbPolyline
 90
25
 70
0
 10
236.7922259778998
 20
-145.48546703388712
 10
263.6923837129267
 20
-192.0779069625707
 10
258.6924625804402
 20
-200.7380243978747
 10
258.6924625251946
 20
-201.73793399844115
 10
263.6923836576812
 20
-210.39805143374517
 10
264.5584091167111
 20
-210.8981418331787
 10
274.5582513816842
 20
-210.8981418331787
 10
301.45840911671115
 20
-257.49058176186225
 10
296.4584879842246
 20
-266.15069919716626
 10
242.65817251417076
 20
-266.15069919716626
 10
237.6582513816842
 20
-257.49058176186225
 10
236.79222592265424
 20
-256.9904913624287
 10
226.79238365768117
 20
-256.9904913624287
 10
225.92635830914227
 20
-257.49058176186225
 10
220.92643717665572
 20
-266.15069919716626
 10
167.12612170660188
 20
-266.15069919716626
 10
162.12620057411533
 20
-257.49058176186225
 10
189.02635830914227
 20
-210.8981418331787
 10
199.02620057411534
 20
-210.8981418331787
 10
199.89222592265426
 20
-210.39805143374514
 10
204.8921470551408
 20
-201.73793399844115
 10
204.89214711038633
 20
-200.7380243978747
 10
199.89222597789978
 20
-192.0779069625707
 10
226.79238371292672
 20
-145.48546703388712
 10
236.7922259778998
 20
-145.48546703388712
  0
LWPOLYLINE
  5
8D
330
17
100
AcDbEntity
  8
frame
100
AcDbPolyline
 90
25
 70
0
 10
149.52828206362994
 20
-255.9905258667391
 10
122.62812432860302
 20
-209.39808593805554
 10
127.62804546108956
 20
-200.73796850275153
 10
127.62804551633508
 20
-199.7380589021851
 10
122.62812438384854
 20
-191.07794146688107
 10
121.76209892481859
 20
-190.57785106744754
 10
111.76225665984552
 20
-190.57785106744754
 10
84.86209892481858
 20
-143.98541113876396
 10
89.86202005730512
 20
-135.32529370345998
 10
143.66233552735898
 20
-135.32529370345998
 10
148.6622566598455
 20
-143.98541113876396
 10
149.52828211887547
 20
-144.48550153819752
 10
159.52812438384854
 20
-144.48550153819752
 10
160.39414973238746
 20
-143.98541113876396
 10
165.394070864874
 20
-135.32529370345995
 10
219.19438633492786
 20
-135.32529370345995
 10
224.19430746741438
 20
-143.98541113876396
 10
197.29414973238744
 20
-190.57785106744754
 10
187.2943074674144
 20
-190.57785106744754
 10
186.42828211887547
 20
-191.07794146688107
 10
181.42836098638892
 20
-199.7380589021851
 10
181.4283609311434
 20
-200.73796850275153
 10
186.42828206362995
 20
-209.39808593805554
 10
159.528124328603
 20
-255.9905258667391
 10
149.52828206362994
 20
-255.9905258667391
  0
LWPOLYLINE
  5
8E
330
17
100
AcDbEntity
  8
frame
100
AcDbPolyline
 90
25
 70
0
 10
-4.999921132486532
 20
-11.660117435304002
 10
4.999921132486537
 20
-11.660117435304002
 10
31.90007886751346
 20
-58.25255736398757
 10
26.90015773502692
 20
-66.91267479929158
 10
26.900157679781397
 20
-67.91258439985802
 10
31.90007881226794
 20
-76.57270183516202
 10
32.766104271297905
 20
-77.07279223459557
 10
42.765946536270974
 20
-77.07279223459557
 10
69.6661042712979
 20
-123.66523216327914
 10
64.66618313881136
 20
-132.32534959858313
 10
10.865867668757517
 20
-132.32534959858313
 10
5.865946536270975
 20
-123.66523216327913
 10
4.999921077241008
 20
-123.16514176384558
 10
-4.999921187732061
 20
-123.16514176384558
 10
-5.865946536270975
 20
-123.66523216327914
 10
-10.865867668757517
 20
-132.32534959858316
 10
-64.66618313881136
 20
-132.32534959858316
 10
-69.6661042712979
 20
-123.66523216327914
 10
-42.76594653627097
 20
-77.07279223459557
 10
-32.7661042712979
 20
-77.07279223459557
 10
-31.900078922758983
 20
-76.57270183516202
 10
-26.90015779027244
 20
-67.91258439985802
 10
-26.90015773502692
 20
-66.91267479929158
 10
-31.90007886751346
 20
-58.25255736398756
 10
-4.999921132486532
 20
-11.660117435304002
  0
LWPOLYLINE
  5
8F
330
17
100
AcDbEntity
  8
frame
100
AcDbPolyline
 90
25
 70
0
 10
149.52828209778897
 20
-11.660117435304002
 10
159.52812436276204
 20
-11.660117435304002
 10
186.42828209778895
 20
-58.25255736398757
 10
181.4283609653024
 20
-66.91267479929158
 10
181.42836091005688
 20
-67.91258439985802
 10
186.42828204254343
 20
-76.57270183516202
 10
187.2943075015734
 20
-77.07279223459557
 10
197.29414976654647
 20
-77.07279223459557
 10
224.1943075015734
 20
-123.66523216327914
 10
219.19438636908686
 20
-132.32534959858313
 10
165.394070899033
 20
-132.32534959858313
 10
160.39414976654646
 20
-123.66523216327913
 10
159.5281243075165
 20
-123.16514176384558
 10
149.52828204254342
 20
-123.16514176384558
 10
148.66225669400453
 20
-123.66523216327914
 10
143.66233556151798
 20
-132.32534959858316
 10
89.86202009146413
 20
-132.32534959858316
 10
84.8620989589776
 20
-123.66523216327914
 10
111.76225669400452
 20
-77.07279223459557
 10
121.76209895897759
 20
-77.07279223459557
 10
122.62812430751652
 20
-76.57270183516202
 10
127.62804544000305
 20
-67.91258439985802
 10
127.62804549524857
 20
-66.91267479929158
 10
122.62812436276204
 20
-58.25255736398756
 10
149.52828209778897
 20
-11.660117435304002
  0
LWPOLYLINE
  5
90
330
17
100
AcDbEntity
  8
frame
100
AcDbPolyline
 90
25
 70
0
 10
236.79222594374076
 20
-122.16517626815596
 10
226.7923836787677
 20
-122.16517626815596
 10
199.89222594374075
 20
-75.5727363394724
 10
204.8921470762273
 20
-66.9126189041684
 10
204.89214713147283
 20
-65.91270930360196
 10
199.8922259989863
 20
-57.25259186829794
 10
199.02620053995633
 20
-56.75250146886441
 10
189.02635827498327
 20
-56.75250146886441
 10
162.12620053995633
 20
-10.160061540180834
 10
167.12612167244288
 20
-1.499944104876839
 10
220.92643714249672
 20
-1.499944104876839
 10
225.92635827498324
 20
-10.160061540180841
 10
226.7923837340132
 20
-10.66015193961438
 10
236.79222599898628
 20
-10.66015193961438
 10
237.6582513475252
 20
-10.160061540180827
 10
242.65817248001176
 20
-1.4999441048768247
 10
296.4584879500656
 20
-1.4999441048768247
 10
301.4584090825521
 20
-10.160061540180834
 10
274.5582513475252
 20
-56.752501468864395
 10
264.55840908255215
 20
-56.752501468864395
 10
263.6923837340132
 20
-57.25259186829795
 10
258.6924626015267
 20
-65.91270930360196
 10
258.69246254628115
 20
-66.9126189041684
 10
263.69238367876767
 20
-75.57273633947241
 10
236.79222594374076
 20
-122.16517626815596
  0
LWPOLYLINE
  5
91
330
17
100
AcDbEntity
  8
frame
100
AcDbPolyline
 90
25
 70
0
 10
72.2641804484922
 20
-122.16517626815596
 10
45.364022713465275
 20
-75.5727363394724
 10
50.363943845951816
 20
-66.9126189041684
 10
50.36394390119734
 20
-65.91270930360196
 10
45.3640227687108
 20
-57.25259186829794
 10
44.497997309680834
 20
-56.75250146886441
 10
34.498155044707765
 20
-56.75250146886441
 10
7.597997309680835
 20
-10.160061540180834
 10
12.59791844216737
 20
-1.499944104876839
 10
66.39823391222122
 20
-1.499944104876839
 10
71.39815504470776
 20
-10.160061540180841
 10
72.26418050373773
 20
-10.66015193961438
 10
82.2640227687108
 20
-10.66015193961438
 10
83.13004811724971
 20
-10.160061540180827
 10
88.12996924973625
 20
-1.4999441048768247
 10
141.9302847197901
 20
-1.4999441048768247
 10
146.93020585227663
 20
-10.160061540180834
 10
120.0300481172497
 20
-56.752501468864395
 10
110.03020585227664
 20
-56.752501468864395
 10
109.16418050373773
 20
-57.25259186829795
 10
104.16425937125118
 20
-65.91270930360196
 10
104.16425931600565
 20
-66.9126189041684
 10
109.1641804484922
 20
-75.57273633947241
 10
82.26402271346527
 20
-122.16517626815596
 10
72.2641804484922
 20
-122.16517626815596
  0
LWPOLYLINE
  5
92
330
17
100
AcDbEntity
  8
frame
100
AcDbPolyline
 90
25
 70
0
 10
236.7922259778998
 20
122.16523216327913
 10
263.6923837129267
 20
75.57279223459557
 10
258.6924625804402
 20
66.91267479929155
 10
258.6924625251946
 20
65.91276519872511
 10
263.6923836576812
 20
57.2526477634211
 10
264.5584091167111
 20
56.75255736398756
 10
274.5582513816842
 20
56.75255736398756
 10
301.45840911671115
 20
10.160117435303995
 10
296.4584879842246
 20
1.5
 10
242.65817251417076
 20
1.5
 10
237.6582513816842
 20
10.160117435304002
 10
236.79222592265424
 20
10.660207834737541
 10
226.79238365768117
 20
10.660207834737541
 10
225.92635830914227
 20
10.160117435303988
 10
220.92643717665572
 20
1.4999999999999858
 10
167.12612170660188
 20
1.4999999999999858
 10
162.12620057411533
 20
10.160117435303995
 10
189.02635830914227
 20
56.75255736398756
 10
199.02620057411534
 20
56.75255736398756
 10
199.89222592265426
 20
57.25264776342111
 10
204.8921470551408
 20
65.91276519872511
 10
204.89214711038633
 20
66.91267479929155
 10
199.89222597789978
 20
75.57279223459557
 10
226.79238371292672
 20
122.16523216327913
 10
236.7922259778998
 20
122.16523216327913
  0
LWPOLYLINE
  5
93
330
17
100
AcDbEntity
  8
frame
100
AcDbPolyline
 90
25
 70
0
 10
72.26418048265121
 20
122.16523216327913
 10
82.26402274762428
 20
122.16523216327913
 10
109.1641804826512
 20
75.57279223459557
 10
104.16425935016467
 20
66.91267479929155
 10
104.16425929491915
 20
65.91276519872511
 10
109.16418042740568
 20
57.2526477634211
 10
110.03020588643565
 20
56.75255736398756
 10
120.03004815140872
 20
56.75255736398756
 10
146.93020588643566
 20
10.160117435303995
 10
141.9302847539491
 20
1.5
 10
88.12996928389526
 20
1.5
 10
83.13004815140872
 20
10.160117435304002
 10
82.26402269237876
 20
10.660207834737541
 10
72.26418042740569
 20
10.660207834737541
 10
71.39815507886678
 20
10.160117435303988
 10
66.39823394638023
 20
1.4999999999999858
 10
12.597918476326385
 20
1.4999999999999858
 10
7.59799734383985
 20
10.160117435303995
 10
34.49815507886678
 20
56.75255736398756
 10
44.49799734383985
 20
56.75255736398756
 10
45.36402269237877
 20
57.25264776342111
 10
50.3639438248653
 20
65.91276519872511
 10
50.363943880110824
 20
66.91267479929155
 10
45.36402274762429
 20
75.57279223459557
 10
72.26418048265121
 20
122.16523216327913
  0
LWPOLYLINE
  5
94
330
17
100
AcDbEntity
  8
frame
100
AcDbPolyline
 90
25
 70
0
 10
159.528124328603
 20
11.66017333042717
 10
149.52828206362994
 20
11.66017333042717
 10
122.62812432860302
 20
58.25261325911073
 10
127.62804546108956
 20
66.91273069441473
 10
127.62804551633508
 20
67.91264029498117
 10
122.62812438384854
 20
76.57275773028519
 10
121.76209892481859
 20
77.07284812971872
 10
111.76225665984552
 20
77.07284812971872
 10
84.86209892481858
 20
123.6652880584023
 10
89.86202005730512
 20
132.32540549370628
 10
143.66233552735898
 20
132.32540549370628
 10
148.6622566598455
 20
123.6652880584023
 10
149.52828211887547
 20
123.16519765896875
 10
159.52812438384854
 20
123.16519765896875
 10
160.39414973238746
 20
123.6652880584023
 10
165.394070864874
 20
132.3254054937063
 10
219.19438633492786
 20
132.3254054937063
 10
224.19430746741438
 20
123.6652880584023
 10
197.29414973238744
 20
77.07284812971874
 10
187.2943074674144
 20
77.07284812971874
 10
186.42828211887547
 20
76.57275773028518
 10
181.42836098638892
 20
67.91264029498117
 10
181.4283609311434
 20
66.91273069441473
 10
186.42828206362995
 20
58.252613259110724
 10
159.528124328603
 20
11.66017333042717
  0
LWPOLYLINE
  5
95
330
17
100
AcDbEntity
  8
frame
100
AcDbPolyline
 90
25
 70
0
 10
314.05632755887854
 20
11.66017333042717
 10
304.05648529390544
 20
11.66017333042717
 10
277.1563275588785
 20
58.25261325911073
 10
282.1562486913651
 20
66.91273069441473
 10
282.1562487466106
 20
67.91264029498117
 10
277.15632761412405
 20
76.57275773028519
 10
276.2903021550941
 20
77.07284812971872
 10
266.290459890121
 20
77.07284812971872
 10
239.39030215509408
 20
123.6652880584023
 10
244.39022328758062
 20
132.32540549370628
 10
298.19053875763444
 20
132.32540549370628
 10
303.190459890121
 20
123.6652880584023
 10
304.056485349151
 20
123.16519765896875
 10
314.05632761412403
 20
123.16519765896875
 10
314.92235296266296
 20
123.6652880584023
 10
319.9222740951495
 20
132.3254054937063
 10
373.72258956520335
 20
132.3254054937063
 10
378.72251069768987
 20
123.6652880584023
 10
351.82235296266293
 20
77.07284812971874
 10
341.8225106976899
 20
77.07284812971874
 10
340.95648534915097
 20
76.57275773028518
 10
335.95656421666445
 20
67.91264029498117
 10
335.9565641614189
 20
66.91273069441473
 10
340.9564852939054
 20
58.252613259110724
 10
314.05632755887854
 20
11.66017333042717
  0
LWPOLYLINE
  5
96
330
17
100
AcDbEntity
  8
frame
100
AcDbPolyline
 90
25
 70
0
 10
159.52812436276204
 20
255.99058176186225
 10
186.42828209778895
 20
209.3981418331787
 10
181.4283609653024
 20
200.73802439787468
 10
181.42836091005688
 20
199.73811479730824
 10
186.42828204254343
 20
191.07799736200423
 10
187.2943075015734
 20
190.5779069625707
 10
197.29414976654647
 20
190.5779069625707
 10
224.1943075015734
 20
143.98546703388712
 10
219.19438636908686
 20
135.32534959858313
 10
165.394070899033
 20
135.32534959858313
 10
160.39414976654646
 20
143.98546703388712
 10
159.5281243075165
 20
144.48555743332068
 10
149.52828204254342
 20
144.48555743332068
 10
148.66225669400453
 20
143.98546703388712
 10
143.66233556151798
 20
135.3253495985831
 10
89.86202009146413
 20
135.3253495985831
 10
84.8620989589776
 20
143.98546703388712
 10
111.76225669400452
 20
190.5779069625707
 10
121.76209895897759
 20
190.5779069625707
 10
122.62812430751652
 20
191.07799736200425
 10
127.62804544000305
 20
199.73811479730824
 10
127.62804549524857
 20
200.73802439787468
 10
122.62812436276204
 20
209.3981418331787
 10
149.52828209778897
 20
255.99058176186225
 10
159.52812436276204
 20
255.99058176186225
  0
LWPOLYLINE
  5
97
330
17
100
AcDbEntity
  8
frame
100
AcDbPolyline
 90
25
 70
0
 10
4.999921132486537
 20
255.99058176186225
 10
31.90007886751346
 20
209.3981418331787
 10
26.90015773502692
 20
200.73802439787468
 10
26.900157679781397
 20
199.73811479730824
 10
31.90007881226794
 20
191.07799736200423
 10
32.766104271297905
 20
190.5779069625707
 10
42.765946536270974
 20
190.5779069625707
 10
69.6661042712979
 20
143.98546703388712
 10
64.66618313881136
 20
135.32534959858313
 10
10.865867668757517
 20
135.32534959858313
 10
5.865946536270975
 20
143.98546703388712
 10
4.999921077241008
 20
144.48555743332068
 10
-4.999921187732061
 20
144.48555743332068
 10
-5.865946536270975
 20
143.98546703388712
 10
-10.865867668757517
 20
135.3253495985831
 10
-64.66618313881136
 20
135.3253495985831
 10
-69.6661042712979
 20
143.98546703388712
 10
-42.76594653627097
 20
190.5779069625707
 10
-32.7661042712979
 20
190.5779069625707
 10
-31.900078922758983
 20
191.07799736200425
 10
-26.90015779027244
 20
199.73811479730824
 10
-26.90015773502692
 20
200.73802439787468
 10
-31.90007886751346
 20
209.3981418331787
 10
-4.999921132486532
 20
255.99058176186225
 10
4.999921132486537
 20
255.99058176186225
  0
LWPOLYLINE
  5
98
330
17
100
AcDbEntity
  8
frame
100
AcDbPolyline
 90
25
 70
0
 10
82.26402271346527
 20
145.4855229290103
 10
72.2641804484922
 20
145.4855229290103
 10
45.364022713465275
 20
192.07796285769388
 10
50.363943845951816
 20
200.73808029299786
 10
50.36394390119734
 20
201.7379898935643
 10
45.3640227687108
 20
210.39810732886832
 10
44.497997309680834
 20
210.89819772830185
 10
34.498155044707765
 20
210.89819772830185
 10
7.597997309680835
 20
257.4906376569854
 10
12.59791844216737
 20
266.15075509228944
 10
66.39823391222122
 20
266.15075509228944
 10
71.39815504470776
 20
257.4906376569854
 10
72.26418050373773
 20
256.9905472575519
 10
82.2640227687108
 20
256.9905472575519
 10
83.13004811724971
 20
257.4906376569854
 10
88.12996924973625
 20
266.15075509228944
 10
141.9302847197901
 20
266.15075509228944
 10
146.93020585227663
 20
257.4906376569854
 10
120.0300481172497
 20
210.89819772830185
 10
110.03020585227664
 20
210.89819772830185
 10
109.16418050373773
 20
210.39810732886832
 10
104.16425937125118
 20
201.7379898935643
 10
104.16425931600565
 20
200.73808029299786
 10
109.1641804484922
 20
192.07796285769385
 10
82.26402271346527
 20
145.4855229290103
  0
LWPOLYLINE
  5
99
330
17
100
AcDbEntity
  8
frame
100
AcDbPolyline
 90
25
 70
0
 10
236.79222594374076
 20
145.4855229290103
 10
226.7923836787677
 20
145.4855229290103
 10
199.89222594374075
 20
192.07796285769388
 10
204.8921470762273
 20
200.73808029299786
 10
204.89214713147283
 20
201.7379898935643
 10
199.8922259989863
 20
210.39810732886832
 10
199.02620053995633
 20
210.89819772830185
 10
189.02635827498327
 20
210.89819772830185
 10
162.12620053995633
 20
257.4906376569854
 10
167.12612167244288
 20
266.15075509228944
 10
220.92643714249672
 20
266.15075509228944
 10
225.92635827498324
 20
257.4906376569854
 10
226.7923837340132
 20
256.9905472575519
 10
236.79222599898628
 20
256.9905472575519
 10
237.6582513475252
 20
257.4906376569854
 10
242.65817248001176
 20
266.15075509228944
 10
296.4584879500656
 20
266.15075509228944
 10
301.4584090825521
 20
257.4906376569854
 10
274.5582513475252
 20
210.89819772830185
 10
264.55840908255215
 20
210.89819772830185
 10
263.6923837340132
 20
210.39810732886832
 10
258.6924626015267
 20
201.7379898935643
 10
258.69246254628115
 20
200.73808029299786
 10
263.69238367876767
 20
192.07796285769385
 10
236.79222594374076
 20
145.4855229290103
  0
LWPOLYLINE
  5
9A
330
17
100
AcDbEntity
  8
frame
100
AcDbPolyline
 90
25
 70
0
 10
72.26418048265121
 20
389.81593136044535
 10
82.26402274762428
 20
389.81593136044535
 10
109.1641804826512
 20
343.2234914317618
 10
104.16425935016467
 20
334.5633739964578
 10
104.16425929491915
 20
333.56346439589134
 10
109.16418042740568
 20
324.9033469605873
 10
110.03020588643565
 20
324.4032565611538
 10
120.03004815140872
 20
324.4032565611538
 10
146.93020588643566
 20
277.8108166324702
 10
141.9302847539491
 20
269.1506991971662
 10
88.12996928389526
 20
269.1506991971662
 10
83.13004815140872
 20
277.8108166324702
 10
82.26402269237876
 20
278.31090703190375
 10
72.26418042740569
 20
278.31090703190375
 10
71.39815507886678
 20
277.8108166324702
 10
66.39823394638023
 20
269.1506991971662
 10
12.597918476326385
 20
269.1506991971662
 10
7.59799734383985
 20
277.8108166324702
 10
34.49815507886678
 20
324.4032565611538
 10
44.49799734383985
 20
324.4032565611538
 10
45.36402269237877
 20
324.9033469605873
 10
50.3639438248653
 20
333.56346439589134
 10
50.363943880110824
 20
334.5633739964578
 10
45.36402274762429
 20
343.2234914317618
 10
72.26418048265121
 20
389.81593136044535
  0
LWPOLYLINE
  5
9B
330
17
100
AcDbEntity
  8
frame
100
AcDbPolyline
 90
25
 70
0
 10
236.7922259778998
 20
389.81593136044535
 10
263.6923837129267
 20
343.2234914317618
 10
258.6924625804402
 20
334.5633739964578
 10
258.6924625251946
 20
333.56346439589134
 10
263.6923836576812
 20
324.9033469605873
 10
264.5584091167111
 20
324.4032565611538
 10
274.5582513816842
 20
324.4032565611538
 10
301.45840911671115
 20
277.8108166324702
 10
296.4584879842246
 20
269.1506991971662
 10
242.65817251417076
 20
269.1506991971662
 10
237.6582513816842
 20
277.8108166324702
 10
236.79222592265424
 20
278.31090703190375
 10
226.79238365768117
 20
278.31090703190375
 10
225.92635830914227
 20
277.8108166324702
 10
220.92643717665572
 20
269.1506991971662
 10
167.12612170660188
 20
269.1506991971662
 10
162.12620057411533
 20
277.8108166324702
 10
189.02635830914227
 20
324.4032565611538
 10
199.02620057411534
 20
324.4032565611538
 10
199.89222592265426
 20
324.9033469605873
 10
204.8921470551408
 20
333.56346439589134
 10
204.89214711038633
 20
334.5633739964578
 10
199.89222597789978
 20
343.2234914317618
 10
226.79238371292672
 20
389.81593136044535
 10
236.7922259778998
 20
389.81593136044535
  0
LWPOLYLINE
  5
9C
330
17
100
AcDbEntity
  8
frame
100
AcDbPolyline
 90
25
 70
0
 10
149.52828206362994
 20
279.31087252759346
 10
122.62812432860302
 20
325.903312456277
 10
127.62804546108956
 20
334.563429891581
 10
127.62804551633508
 20
335.56333949214746
 10
122.62812438384854
 20
344.2234569274514
 10
121.76209892481859
 20
344.723547326885
 10
111.76225665984552
 20
344.723547326885
 10
84.86209892481858
 20
391.31598725556853
 10
89.86202005730512
 20
399.97610469087255
 10
143.66233552735898
 20
399.97610469087255
 10
148.6622566598455
 20
391.31598725556853
 10
149.52828211887547
 20
390.815896856135
 10
159.52812438384854
 20
390.815896856135
 10
160.39414973238746
 20
391.3159872555686
 10
165.394070864874
 20
399.97610469087255
 10
219.19438633492786
 20
399.97610469087255
 10
224.19430746741438
 20
391.31598725556853
 10
197.29414973238744
 20
344.723547326885
 10
187.2943074674144
 20
344.723547326885
 10
186.42828211887547
 20
344.2234569274514
 10
181.42836098638892
 20
335.56333949214746
 10
181.4283609311434
 20
334.563429891581
 10
186.42828206362995
 20
325.903312456277
 10
159.528124328603
 20
279.31087252759346
 10
149.52828206362994
 20
279.31087252759346
  0
LWPOLYLINE
  5
9D
330
17
100
AcDbEntity
  8
frame
100
AcDbPolyline
 90
25
 70
0
 10
314.05632755887854
 20
279.31087252759346
 10
304.05648529390544
 20
279.31087252759346
 10
277.1563275588785
 20
325.903312456277
 10
282.1562486913651
 20
334.563429891581
 10
282.1562487466106
 20
335.56333949214746
 10
277.15632761412405
 20
344.2234569274514
 10
276.2903021550941
 20
344.723547326885
 10
266.290459890121
 20
344.723547326885
 10
239.39030215509408
 20
391.31598725556853
 10
244.39022328758062
 20
399.97610469087255
 10
298.19053875763444
 20
399.97610469087255
 10
303.190459890121
 20
391.31598725556853
 10
304.056485349151
 20
390.815896856135
 10
314.05632761412403
 20
390.815896856135
 10
314.92235296266296
 20
391.3159872555686
 10
319.9222740951495
 20
399.97610469087255
 10
373.72258956520335
 20
399.97610469087255
 10
378.72251069768987
 20
391.31598725556853
 10
351.82235296266293
 20
344.723547326885
 10
341.8225106976899
 20
344.723547326885
 10
340.95648534915097
 20
344.2234569274514
 10
335.95656421666445
 20
335.56333949214746
 10
335.9565641614189
 20
334.563429891581
 10
340.9564852939054
 20
325.903312456277
 10
314.05632755887854
 20
279.31087252759346
  0
LWPOLYLINE
  5
9E
330
17
100
AcDbEntity
  8
frame
100
AcDbPolyline
 90
25
 70
0
 10
149.52828209778897
 20
523.6412809590286
 10
159.52812436276204
 20
523.6412809590286
 10
186.42828209778895
 20
477.04884103034493
 10
181.4283609653024
 20
468.388723595041
 10
181.42836091005688
 20
467.3888139944745
 10
186.42828204254343
 20
458.7286965591705
 10
187.2943075015734
 20
458.22860615973696
 10
197.29414976654647
 20
458.22860615973696
 10
224.1943075015734
 20
411.6361662310534
 10
219.19438636908686
 20
402.9760487957494
 10
165.394070899033
 20
402.9760487957494
 10
160.39414976654646
 20
411.6361662310534
 10
159.5281243075165
 20
412.1362566304869
 10
149.52828204254342
 20
412.1362566304869
 10
148.66225669400453
 20
411.6361662310534
 10
143.66233556151798
 20
402.97604879574936
 10
89.86202009146413
 20
402.97604879574936
 10
84.8620989589776
 20
411.6361662310534
 10
111.76225669400452
 20
458.22860615973696
 10
121.76209895897759
 20
458.22860615973696
 10
122.62812430751652
 20
458.7286965591705
 10
127.62804544000305
 20
467.3888139944745
 10
127.62804549524857
 20
468.388723595041
 10
122.62812436276204
 20
477.048841030345
 10
149.52828209778897
 20
523.6412809590286
  0
LWPOLYLINE
  5
9F
330
17
100
AcDbEntity
  8
frame
100
AcDbPolyline
 90
25
 70
0
 10
-4.999921132486532
 20
523.6412809590286
 10
4.999921132486537
 20
523.6412809590286
 10
31.90007886751346
 20
477.048841030345
 10
26.90015773502692
 20
468.38872359504103
 10
26.900157679781397
 20
467.38881399447456
 10
31.90007881226794
 20
458.72869655917054
 10
32.766104271297905
 20
458.228606159737
 10
42.765946536270974
 20
458.228606159737
 10
69.6661042712979
 20
411.63616623105344
 10
64.66618313881136
 20
402.9760487957494
 10
10.865867668757517
 20
402.9760487957494
 10
5.865946536270975
 20
411.63616623105344
 10
4.999921077241008
 20
412.13625663048697
 10
-4.999921187732061
 20
412.13625663048697
 10
-5.865946536270975
 20
411.63616623105344
 10
-10.865867668757517
 20
402.9760487957494
 10
-64.66618313881136
 20
402.9760487957494
 10
-69.6661042712979
 20
411.63616623105344
 10
-42.76594653627097
 20
458.228606159737
 10
-32.7661042712979
 20
458.228606159737
 10
-31.900078922758983
 20
458.72869655917054
 10
-26.90015779027244
 20
467.38881399447456
 10
-26.90015773502692
 20
468.38872359504103
 10
-31.90007886751346
 20
477.048841030345
 10
-4.999921132486532
 20
523.6412809590286
  0
LWPOLYLINE
  5
A0
330
17
100
AcDbEntity
  8
frame
100
AcDbPolyline
 90
25
 70
0
 10
226.7923836787677
 20
413.13622212617645
 10
199.89222594374075
 20
459.72866205486
 10
204.8921470762273
 20
468.38877949016404
 10
204.89214713147283
 20
469.3886890907305
 10
199.8922259989863
 20
478.04880652603447
 10
199.02620053995633
 20
478.54889692546806
 10
189.02635827498327
 20
478.54889692546806
 10
162.12620053995633
 20
525.1413368541516
 10
167.12612167244288
 20
533.8014542894556
 10
220.92643714249672
 20
533.8014542894556
 10
225.92635827498324
 20
525.1413368541516
 10
226.7923837340132
 20
524.641246454718
 10
236.79222599898628
 20
524.641246454718
 10
237.6582513475252
 20
525.1413368541516
 10
242.65817248001176
 20
533.8014542894556
 10
296.4584879500656
 20
533.8014542894556
 10
301.4584090825521
 20
525.1413368541516
 10
274.5582513475252
 20
478.54889692546806
 10
264.55840908255215
 20
478.54889692546806
 10
263.6923837340132
 20
478.04880652603447
 10
258.6924626015267
 20
469.3886890907305
 10
258.69246254628115
 20
468.38877949016404
 10
263.69238367876767
 20
459.72866205486
 10
236.79222594374076
 20
413.13622212617645
 10
226.7923836787677
 20
413.13622212617645
  0
LWPOLYLINE
  5
A1
330
17
100
AcDbEntity
  8
frame
100
AcDbPolyline
 90
25
 70
0
 10
72.2641804484922
 20
413.13622212617656
 10
45.364022713465275
 20
459.72866205486014
 10
50.363943845951816
 20
468.38877949016415
 10
50.36394390119734
 20
469.3886890907306
 10
45.3640227687108
 20
478.0488065260346
 10
44.497997309680834
 20
478.54889692546817
 10
34.498155044707765
 20
478.54889692546817
 10
7.597997309680835
 20
525.1413368541517
 10
12.59791844216737
 20
533.8014542894557
 10
66.39823391222122
 20
533.8014542894557
 10
71.39815504470776
 20
525.1413368541517
 10
72.26418050373773
 20
524.6412464547182
 10
82.2640227687108
 20
524.6412464547182
 10
83.13004811724971
 20
525.1413368541517
 10
88.12996924973625
 20
533.8014542894557
 10
141.9302847197901
 20
533.8014542894557
 10
146.93020585227663
 20
525.1413368541517
 10
120.0300481172497
 20
478.54889692546817
 10
110.03020585227664
 20
478.54889692546817
 10
109.16418050373773
 20
478.0488065260346
 10
104.16425937125118
 20
469.3886890907306
 10
104.16425931600565
 20
468.38877949016415
 10
109.1641804484922
 20
459.72866205486014
 10
82.26402271346527
 20
413.13622212617656
 10
72.2641804484922
 20
413.13622212617656
  0
LWPOLYLINE
  5
A2
330
17
100
AcDbEntity
  8
frame
100
AcDbPolyline
 90
7
 70
0
 10
7.59799734383985
 20
545.4615158296365
 10
34.49815507886678
 20
592.05395575832
 10
44.49799734383985
 20
592.05395575832
 10
71.39815507886678
 20
545.4615158296365
 10
66.39823394638023
 20
536.8013983943324
 10
12.597918476326385
 20
536.8013983943324
 10
7.59799734383985
 20
545.4615158296365
  0
LWPOLYLINE
  5
A3
330
17
100
AcDbEntity
  8
frame
100
AcDbPolyline
 90
7
 70
0
 10
83.13004815140872
 20
545.4615158296365
 10
110.03020588643565
 20
592.0539557583201
 10
120.03004815140872
 20
592.0539557583201
 10
146.93020588643566
 20
545.4615158296365
 10
141.9302847539491
 20
536.8013983943324
 10
88.12996928389526
 20
536.8013983943324
 10
83.13004815140872
 20
545.4615158296365
  0
LWPOLYLINE
  5
A4
330
17
100
AcDbEntity
  8
frame
100
AcDbPolyline
 90
7
 70
0
 10
162.12620057411533
 20
545.4615158296366
 10
189.02635830914227
 20
592.0539557583201
 10
199.02620057411534
 20
592.0539557583201
 10
225.92635830914227
 20
545.4615158296365
 10
220.92643717665572
 20
536.8013983943325
 10
167.12612170660188
 20
536.8013983943325
 10
162.12620057411533
 20
545.4615158296366
  0
LWPOLYLINE
  5
A5
330
17
100
AcDbEntity
  8
frame
100
AcDbPolyline
 90
7
 70
0
 10
82.26402269237876
 20
545.96160622907
 10
72.26418042740569
 20
545.96160622907
 10
45.36402269237877
 20
592.5540461577535
 10
50.3639438248653
 20
601.2141635930575
 10
104.16425929491915
 20
601.2141635930575
 10
109.16418042740568
 20
592.5540461577535
 10
82.26402269237876
 20
545.96160622907
  0
LWPOLYLINE
  5
A6
330
17
100
AcDbEntity
  8
frame
100
AcDbPolyline
 90
7
 70
0
 10
159.528124328603
 20
546.9615717247597
 10
149.52828206362994
 20
546.9615717247597
 10
122.62812432860302
 20
593.5540116534432
 10
127.62804546108956
 20
602.2141290887472
 10
181.4283609311434
 20
602.2141290887472
 10
186.42828206362995
 20
593.5540116534432
 10
159.528124328603
 20
546.9615717247597
  0
LWPOLYLINE
  5
A7
330
17
100
AcDbEntity
  8
frame
100
AcDbPolyline
 90
25
 70
0
 10
314.05632755887854
 20
-523.6412250639054
 10
304.05648529390544
 20
-523.6412250639054
 10
277.1563275588785
 20
-477.0487851352218
 10
282.1562486913651
 20
-468.3886676999178
 10
282.1562487466106
 20
-467.3887580993513
 10
277.15632761412405
 20
-458.72864066404736
 10
276.2903021550941
 20
-458.2285502646138
 10
266.290459890121
 20
-458.2285502646138
 10
239.39030215509408
 20
-411.6361103359302
 10
244.39022328758062
 20
-402.97599290062624
 10
298.19053875763444
 20
-402.97599290062624
 10
303.190459890121
 20
-411.63611033593025
 10
304.056485349151
 20
-412.1362007353638
 10
314.05632761412403
 20
-412.1362007353638
 10
314.92235296266296
 20
-411.6361103359302
 10
319.9222740951495
 20
-402.97599290062624
 10
373.72258956520335
 20
-402.97599290062624
 10
378.72251069768987
 20
-411.6361103359302
 10
351.82235296266293
 20
-458.2285502646138
 10
341.8225106976899
 20
-458.2285502646138
 10
340.95648534915097
 20
-458.72864066404736
 10
335.95656421666445
 20
-467.3887580993513
 10
335.9565641614189
 20
-468.3886676999178
 10
340.9564852939054
 20
-477.0487851352218
 10
314.05632755887854
 20
-523.6412250639054
  0
LWPOLYLINE
  5
A8
330
17
100
AcDbEntity
  8
frame
100
AcDbPolyline
 90
7
 70
0
 10
393.91850541952857
 20
-391.3159313604454
 10
420.8186631545555
 20
-344.72349143176183
 10
430.8185054195286
 20
-344.72349143176183
 10
457.7186631545555
 20
-391.3159313604454
 10
452.71874202206897
 20
-399.9760487957494
 10
398.91842655201515
 20
-399.9760487957494
 10
393.91850541952857
 20
-391.3159313604454
  0
LWPOLYLINE
  5
A9
330
17
100
AcDbEntity
  8
frame
100
AcDbPolyline
 90
7
 70
0
 10
495.48468850309445
 20
-344.2234010323283
 10
468.5845307680675
 20
-390.8158409610119
 10
458.5846885030944
 20
-390.8158409610119
 10
431.6845307680675
 20
-344.2234010323283
 10
436.68445190055405
 20
-335.5632835970243
 10
490.48476737060787
 20
-335.5632835970243
 10
495.48468850309445
 20
-344.2234010323283
  0
LWPOLYLINE
  5
AA
330
17
100
AcDbEntity
  8
frame
100
AcDbPolyline
 90
25
 70
0
 10
314.0563275930375
 20
-279.3108166324703
 10
340.95648532806445
 20
-325.90325656115385
 10
335.9565641955779
 20
-334.5633739964578
 10
335.9565641403324
 20
-335.5632835970243
 10
340.95648527281895
 20
-344.2234010323283
 10
341.82251073184887
 20
-344.72349143176183
 10
351.82235299682196
 20
-344.72349143176183
 10
378.7225107318489
 20
-391.3159313604454
 10
373.7225895993623
 20
-399.9760487957494
 10
319.9222741293085
 20
-399.9760487957494
 10
314.922352996822
 20
-391.3159313604454
 10
314.056327537792
 20
-390.8158409610119
 10
304.0564852728189
 20
-390.8158409610119
 10
303.19045992428
 20
-391.3159313604454
 10
298.1905387917935
 20
-399.9760487957494
 10
244.39022332173963
 20
-399.9760487957494
 10
239.39030218925308
 20
-391.3159313604454
 10
266.29045992428
 20
-344.72349143176183
 10
276.2903021892531
 20
-344.72349143176183
 10
277.156327537792
 20
-344.2234010323283
 10
282.15624867027856
 20
-335.5632835970243
 10
282.15624872552405
 20
-334.5633739964578
 10
277.15632759303753
 20
-325.90325656115385
 10
304.05648532806447
 20
-279.3108166324703
 10
314.0563275930375
 20
-279.3108166324703
  0
LWPOLYLINE
  5
AB
330
17
100
AcDbEntity
  8
frame
100
AcDbPolyline
 90
25
 70
0
 10
381.3205869090432
 20
-389.81587546532216
 10
354.42042917401625
 20
-343.22343553663865
 10
359.4203503065028
 20
-334.56331810133463
 10
359.4203503617483
 20
-333.56340850076816
 10
354.4204292292618
 20
-324.9032910654642
 10
353.55440377023183
 20
-324.4032006660306
 10
343.55456150525873
 20
-324.4032006660306
 10
316.65440377023185
 20
-277.8107607373471
 10
321.6543249027184
 20
-269.1506433020431
 10
375.4546403727722
 20
-269.1506433020431
 10
380.45456150525877
 20
-277.8107607373471
 10
381.32058696428874
 20
-278.3108511367806
 10
391.3204292292618
 20
-278.3108511367806
 10
392.1864545778007
 20
-277.81076073734704
 10
397.1863757102872
 20
-269.1506433020431
 10
450.9866911803411
 20
-269.1506433020431
 10
455.9866123128276
 20
-277.8107607373471
 10
429.0864545778007
 20
-324.4032006660306
 10
419.08661231282764
 20
-324.4032006660306
 10
418.2205869642887
 20
-324.9032910654642
 10
413.2206658318022
 20
-333.56340850076816
 10
413.22066577655664
 20
-334.56331810133463
 10
418.22058690904316
 20
-343.22343553663865
 10
391.3204291740163
 20
-389.81587546532216
 10
381.3205869090432
 20
-389.81587546532216
  0
LWPOLYLINE
  5
AC
330
17
100
AcDbEntity
  8
frame
100
AcDbPolyline
 90
7
 70
0
 10
431.684530823313
 20
-325.90325656115385
 10
458.58468855833996
 20
-279.3108166324703
 10
468.584530823313
 20
-279.3108166324703
 10
495.48468855833994
 20
-325.90325656115385
 10
490.4847674258534
 20
-334.5633739964578
 10
436.68445195579955
 20
-334.5633739964578
 10
431.684530823313
 20
-325.90325656115385
  0
LWPOLYLINE
  5
AD
330
17
100
AcDbEntity
  8
frame
100
AcDbPolyline
 90
7
 70
0
 10
534.9827647355343
 20
-277.81076073734715
 10
508.0826070005073
 20
-324.40320066603067
 10
498.0827647355342
 20
-324.40320066603067
 10
471.18260700050735
 20
-277.8107607373471
 10
476.18252813299387
 20
-269.15064330204314
 10
529.9828436030477
 20
-269.15064330204314
 10
534.9827647355343
 20
-277.81076073734715
  0
LWPOLYLINE
  5
AE
330
17
100
AcDbEntity
  8
frame
100
AcDbPolyline
 90
7
 70
0
 10
471.1826070346663
 20
-257.4905817618622
 10
498.08276476969326
 20
-210.89814183317864
 10
508.08260703466635
 20
-210.89814183317864
 10
534.9827647696933
 20
-257.49058176186225
 10
529.9828436372068
 20
-266.1506991971662
 10
476.1825281671529
 20
-266.1506991971662
 10
471.1826070346663
 20
-257.4905817618622
  0
LWPOLYLINE
  5
AF
330
17
100
AcDbEntity
  8
frame
100
AcDbPolyline
 90
7
 70
0
 10
545.8486323832052
 20
-256.99049136242866
 10
535.8487901182322
 20
-256.99049136242866
 10
508.9486323832052
 20
-210.39805143374508
 10
513.9485535156917
 20
-201.7379339984411
 10
567.7488689857456
 20
-201.7379339984411
 10
572.7487901182321
 20
-210.3980514337451
 10
545.8486323832052
 20
-256.99049136242866
  0
LWPOLYLINE
  5
B0
330
17
100
AcDbEntity
  8
frame
100
AcDbPolyline
 90
25
 70
0
 10
391.32042920817526
 20
-145.48546703388712
 10
418.2205869432022
 20
-192.0779069625707
 10
413.2206658107157
 20
-200.7380243978747
 10
413.2206657554701
 20
-201.73793399844115
 10
418.2205868879567
 20
-210.39805143374517
 10
419.0866123469866
 20
-210.8981418331787
 10
429.0864546119597
 20
-210.8981418331787
 10
455.98661234698665
 20
-257.49058176186225
 10
450.98669121450007
 20
-266.15069919716626
 10
397.18637574444625
 20
-266.15069919716626
 10
392.18645461195973
 20
-257.49058176186225
 10
391.32042915292976
 20
-256.9904913624287
 10
381.32058688795667
 20
-256.9904913624287
 10
380.45456153941774
 20
-257.49058176186225
 10
375.4546404069312
 20
-266.15069919716626
 10
321.6543249368774
 20
-266.15069919716626
 10
316.6544038043908
 20
-257.49058176186225
 10
343.55456153941776
 20
-210.8981418331787
 10
353.55440380439086
 20
-210.8981418331787
 10
354.4204291529297
 20
-210.39805143374514
 10
359.4203502854163
 20
-201.73793399844115
 10
359.4203503406618
 20
-200.7380243978747
 10
354.4204292081753
 20
-192.0779069625707
 10
381.3205869432022
 20
-145.48546703388712
 10
391.32042920817526
 20
-145.48546703388712
  0
LWPOLYLINE
  5
B1
330
17
100
AcDbEntity
  8
frame
100
AcDbPolyline
 90
25
 70
0
 10
314.05632755887854
 20
-255.9905258667391
 10
304.05648529390544
 20
-255.9905258667391
 10
277.1563275588785
 20
-209.39808593805554
 10
282.1562486913651
 20
-200.73796850275153
 10
282.1562487466106
 20
-199.7380589021851
 10
277.15632761412405
 20
-191.07794146688107
 10
276.2903021550941
 20
-190.57785106744754
 10
266.290459890121
 20
-190.57785106744754
 10
239.39030215509408
 20
-143.98541113876396
 10
244.39022328758062
 20
-135.32529370345998
 10
298.19053875763444
 20
-135.32529370345998
 10
303.190459890121
 20
-143.98541113876396
 10
304.056485349151
 20
-144.48550153819752
 10
314.05632761412403
 20
-144.48550153819752
 10
314.92235296266296
 20
-143.98541113876396
 10
319.9222740951495
 20
-135.32529370345995
 10
373.72258956520335
 20
-135.32529370345995
 10
378.72251069768987
 20
-143.98541113876396
 10
351.82235296266293
 20
-190.57785106744754
 10
341.8225106976899
 20
-190.57785106744754
 10
340.95648534915097
 20
-191.07794146688107
 10
335.95656421666445
 20
-199.7380589021851
 10
335.9565641614189
 20
-200.73796850275153
 10
340.9564852939054
 20
-209.39808593805554
 10
314.05632755887854
 20
-255.9905258667391
  0
LWPOLYLINE
  5
B2
330
17
100
AcDbEntity
  8
frame
100
AcDbPolyline
 90
25
 70
0
 10
468.58453078915403
 20
-255.9905258667391
 10
458.58468852418093
 20
-255.9905258667391
 10
431.684530789154
 20
-209.39808593805554
 10
436.6844519216406
 20
-200.73796850275153
 10
436.68445197688607
 20
-199.7380589021851
 10
431.68453084439955
 20
-191.07794146688107
 10
430.8185053853696
 20
-190.57785106744754
 10
420.8186631203965
 20
-190.57785106744754
 10
393.9185053853696
 20
-143.98541113876396
 10
398.9184265178561
 20
-135.32529370345998
 10
452.71874198790994
 20
-135.32529370345998
 10
457.7186631203965
 20
-143.98541113876396
 10
458.5846885794265
 20
-144.48550153819752
 10
468.5845308443995
 20
-144.48550153819752
 10
469.45055619293845
 20
-143.98541113876396
 10
474.45047732542497
 20
-135.32529370345995
 10
528.2507927954788
 20
-135.32529370345995
 10
533.2507139279653
 20
-143.98541113876396
 10
506.3505561929384
 20
-190.57785106744754
 10
496.3507139279654
 20
-190.57785106744754
 10
495.48468857942646
 20
-191.07794146688107
 10
490.48476744693994
 20
-199.7380589021851
 10
490.4847673916944
 20
-200.73796850275153
 10
495.4846885241809
 20
-209.39808593805554
 10
468.58453078915403
 20
-255.9905258667391
  0
LWPOLYLINE
  5
B3
330
17
100
AcDbEntity
  8
frame
100
AcDbPolyline
 90
7
 70
0
 10
508.9486324384508
 20
-192.07790696257064
 10
535.8487901734777
 20
-145.48546703388706
 10
545.8486324384507
 20
-145.48546703388706
 10
572.7487901734777
 20
-192.07790696257064
 10
567.7488690409912
 20
-200.73802439787465
 10
513.9485535709373
 20
-200.73802439787465
 10
508.9486324384508
 20
-192.07790696257064
  0
LWPOLYLINE
  5
B4
330
17
100
AcDbEntity
  8
frame
100
AcDbPolyline
 90
7
 70
0
 10
585.3467086156451
 20
-190.57785106744748
 10
575.346866350672
 20
-190.57785106744748
 10
548.4467086156451
 20
-143.9854111387639
 10
553.4466297481316
 20
-135.32529370345992
 10
607.2469452181855
 20
-135.32529370345992
 10
612.246866350672
 20
-143.9854111387639
 10
585.3467086156451
 20
-190.57785106744748
  0
LWPOLYLINE
  5
B5
330
17
100
AcDbEntity
  8
frame
100
AcDbPolyline
 90
7
 70
0
 10
575.3468663848311
 20
-77.07279223459557
 10
585.3467086498041
 20
-77.07279223459557
 10
612.246866384831
 20
-123.66523216327914
 10
607.2469452523444
 20
-132.32534959858316
 10
553.4466297822906
 20
-132.32534959858316
 10
548.4467086498041
 20
-123.66523216327914
 10
575.3468663848311
 20
-77.07279223459557
  0
LWPOLYLINE
  5
B6
330
17
100
AcDbEntity
  8
frame
100
AcDbPolyline
 90
7
 70
0
 10
572.7487901393187
 20
-75.57273633947241
 10
545.8486324042917
 20
-122.16517626815596
 10
535.8487901393187
 20
-122.16517626815596
 10
508.94863240429174
 20
-75.5727363394724
 10
513.9485535367783
 20
-66.9126189041684
 10
567.7488690068321
 20
-66.9126189041684
 10
572.7487901393187
 20
-75.57273633947241
  0
LWPOLYLINE
  5
B7
330
17
100
AcDbEntity
  8
frame
100
AcDbPolyline
 90
25
 70
0
 10
304.05648532806447
 20
-11.660117435304002
 10
314.0563275930375
 20
-11.660117435304002
 10
340.95648532806445
 20
-58.25255736398757
 10
335.9565641955779
 20
-66.91267479929158
 10
335.9565641403324
 20
-67.91258439985802
 10
340.95648527281895
 20
-76.57270183516202
 10
341.82251073184887
 20
-77.07279223459557
 10
351.82235299682196
 20
-77.07279223459557
 10
378.7225107318489
 20
-123.66523216327914
 10
373.7225895993623
 20
-132.32534959858313
 10
319.9222741293085
 20
-132.32534959858313
 10
314.922352996822
 20
-123.66523216327913
 10
314.056327537792
 20
-123.16514176384558
 10
304.0564852728189
 20
-123.16514176384558
 10
303.19045992428
 20
-123.66523216327914
 10
298.1905387917935
 20
-132.32534959858316
 10
244.39022332173963
 20
-132.32534959858316
 10
239.39030218925308
 20
-123.66523216327914
 10
266.29045992428
 20
-77.07279223459557
 10
276.2903021892531
 20
-77.07279223459557
 10
277.156327537792
 20
-76.57270183516202
 10
282.15624867027856
 20
-67.91258439985802
 10
282.15624872552405
 20
-66.91267479929158
 10
277.15632759303753
 20
-58.25255736398756
 10
304.05648532806447
 20
-11.660117435304002
  0
LWPOLYLINE
  5
B8
330
17
100
AcDbEntity
  8
frame
100
AcDbPolyline
 90
25
 70
0
 10
458.58468855833996
 20
-11.660117435304002
 10
468.584530823313
 20
-11.660117435304002
 10
495.48468855833994
 20
-58.25255736398757
 10
490.4847674258534
 20
-66.91267479929158
 10
490.48476737060787
 20
-67.91258439985802
 10
495.48468850309445
 20
-76.57270183516202
 10
496.35071396212436
 20
-77.07279223459557
 10
506.35055622709746
 20
-77.07279223459557
 10
533.2507139621243
 20
-123.66523216327914
 10
528.2507928296378
 20
-132.32534959858313
 10
474.450477359584
 20
-132.32534959858313
 10
469.4505562270975
 20
-123.66523216327913
 10
468.5845307680675
 20
-123.16514176384558
 10
458.5846885030944
 20
-123.16514176384558
 10
457.7186631545555
 20
-123.66523216327914
 10
452.71874202206897
 20
-132.32534959858316
 10
398.91842655201515
 20
-132.32534959858316
 10
393.91850541952857
 20
-123.66523216327914
 10
420.8186631545555
 20
-77.07279223459557
 10
430.8185054195286
 20
-77.07279223459557
 10
431.6845307680675
 20
-76.57270183516202
 10
436.68445190055405
 20
-67.91258439985802
 10
436.68445195579955
 20
-66.91267479929158
 10
431.684530823313
 20
-58.25255736398756
 10
458.58468855833996
 20
-11.660117435304002
  0
LWPOLYLINE
  5
B9
330
17
100
AcDbEntity
  8
frame
100
AcDbPolyline
 90
25
 70
0
 10
381.3205869090432
 20
-122.16517626815596
 10
354.42042917401625
 20
-75.5727363394724
 10
359.4203503065028
 20
-66.9126189041684
 10
359.4203503617483
 20
-65.91270930360196
 10
354.4204292292618
 20
-57.25259186829794
 10
353.55440377023183
 20
-56.75250146886441
 10
343.55456150525873
 20
-56.75250146886441
 10
316.65440377023185
 20
-10.160061540180834
 10
321.6543249027184
 20
-1.499944104876839
 10
375.4546403727722
 20
-1.499944104876839
 10
380.45456150525877
 20
-10.160061540180841
 10
381.32058696428874
 20
-10.66015193961438
 10
391.3204292292618
 20
-10.66015193961438
 10
392.1864545778007
 20
-10.160061540180827
 10
397.1863757102872
 20
-1.4999441048768247
 10
450.9866911803411
 20
-1.4999441048768247
 10
455.9866123128276
 20
-10.160061540180834
 10
429.0864545778007
 20
-56.752501468864395
 10
419.08661231282764
 20
-56.752501468864395
 10
418.2205869642887
 20
-57.25259186829795
 10
413.2206658318022
 20
-65.91270930360196
 10
413.22066577655664
 20
-66.9126189041684
 10
418.22058690904316
 20
-75.57273633947241
 10
391.3204291740163
 20
-122.16517626815596
 10
381.3205869090432
 20
-122.16517626815596
  0
LWPOLYLINE
  5
BA
330
17
100
AcDbEntity
  8
frame
100
AcDbPolyline
 90
7
 70
0
 10
535.8487901945642
 20
-10.66015193961438
 10
545.8486324595373
 20
-10.66015193961438
 10
572.7487901945642
 20
-57.25259186829795
 10
567.7488690620777
 20
-65.91270930360196
 10
513.9485535920238
 20
-65.91270930360196
 10
508.9486324595373
 20
-57.25259186829794
 10
535.8487901945642
 20
-10.66015193961438
  0
LWPOLYLINE
  5
BB
330
17
100
AcDbEntity
  8
frame
100
AcDbPolyline
 90
7
 70
0
 10
534.9827647355343
 20
-10.160061540180841
 10
508.0826070005073
 20
-56.75250146886441
 10
498.0827647355342
 20
-56.75250146886441
 10
471.18260700050735
 20
-10.160061540180834
 10
476.18252813299387
 20
-1.499944104876839
 10
529.9828436030477
 20
-1.499944104876839
 10
534.9827647355343
 20
-10.160061540180841
  0
LWPOLYLINE
  5
BC
330
17
100
AcDbEntity
  8
frame
100
AcDbPolyline
 90
7
 70
0
 10
471.1826070346663
 20
10.160117435303995
 10
498.08276476969326
 20
56.75255736398756
 10
508.08260703466635
 20
56.75255736398756
 10
534.9827647696933
 20
10.160117435303988
 10
529.9828436372068
 20
1.4999999999999858
 10
476.1825281671529
 20
1.4999999999999858
 10
471.1826070346663
 20
10.160117435303995
  0
LWPOLYLINE
  5
BD
330
17
100
AcDbEntity
  8
frame
100
AcDbPolyline
 90
7
 70
0
 10
572.7487901182321
 20
57.2526477634211
 10
545.8486323832052
 20
10.660207834737541
 10
535.8487901182322
 20
10.660207834737541
 10
508.9486323832052
 20
57.25264776342111
 10
513.9485535156917
 20
65.91276519872511
 10
567.7488689857456
 20
65.91276519872511
 10
572.7487901182321
 20
57.2526477634211
  0
LWPOLYLINE
  5
BE
330
17
100
AcDbEntity
  8
frame
100
AcDbPolyline
 90
25
 70
0
 10
391.32042920817526
 20
122.16523216327913
 10
418.2205869432022
 20
75.57279223459557
 10
413.2206658107157
 20
66.91267479929155
 10
413.2206657554701
 20
65.91276519872511
 10
418.2205868879567
 20
57.2526477634211
 10
419.0866123469866
 20
56.75255736398756
 10
429.0864546119597
 20
56.75255736398756
 10
455.98661234698665
 20
10.160117435303995
 10
450.98669121450007
 20
1.5
 10
397.18637574444625
 20
1.5
 10
392.18645461195973
 20
10.160117435304002
 10
391.32042915292976
 20
10.660207834737541
 10
381.32058688795667
 20
10.660207834737541
 10
380.45456153941774
 20
10.160117435303988
 10
375.4546404069312
 20
1.4999999999999858
 10
321.6543249368774
 20
1.4999999999999858
 10
316.6544038043908
 20
10.160117435303995
 10
343.55456153941776
 20
56.75255736398756
 10
353.55440380439086
 20
56.75255736398756
 10
354.4204291529297
 20
57.25264776342111
 10
359.4203502854163
 20
65.91276519872511
 10
359.4203503406618
 20
66.91267479929155
 10
354.4204292081753
 20
75.57279223459557
 10
381.3205869432022
 20
122.16523216327913
 10
391.32042920817526
 20
122.16523216327913
  0
LWPOLYLINE
  5
BF
330
17
100
AcDbEntity
  8
frame
100
AcDbPolyline
 90
25
 70
0
 10
458.58468852418093
 20
11.66017333042717
 10
431.684530789154
 20
58.25261325911073
 10
436.6844519216406
 20
66.91273069441473
 10
436.68445197688607
 20
67.91264029498117
 10
431.68453084439955
 20
76.57275773028519
 10
430.8185053853696
 20
77.07284812971872
 10
420.8186631203965
 20
77.07284812971872
 10
393.9185053853696
 20
123.6652880584023
 10
398.9184265178561
 20
132.32540549370628
 10
452.71874198790994
 20
132.32540549370628
 10
457.7186631203965
 20
123.6652880584023
 10
458.5846885794265
 20
123.16519765896875
 10
468.5845308443995
 20
123.16519765896875
 10
469.45055619293845
 20
123.6652880584023
 10
474.45047732542497
 20
132.3254054937063
 10
528.2507927954788
 20
132.3254054937063
 10
533.2507139279653
 20
123.6652880584023
 10
506.3505561929384
 20
77.07284812971874
 10
496.3507139279654
 20
77.07284812971874
 10
495.48468857942646
 20
76.57275773028518
 10
490.48476744693994
 20
67.91264029498117
 10
490.4847673916944
 20
66.91273069441473
 10
495.4846885241809
 20
58.252613259110724
 10
468.58453078915403
 20
11.66017333042717
 10
458.58468852418093
 20
11.66017333042717
  0
LWPOLYLINE
  5
C0
330
17
100
AcDbEntity
  8
frame
100
AcDbPolyline
 90
7
 70
0
 10
508.9486324384508
 20
75.57279223459557
 10
535.8487901734777
 20
122.16523216327913
 10
545.8486324384507
 20
122.16523216327913
 10
572.7487901734777
 20
75.57279223459557
 10
567.7488690409912
 20
66.91267479929155
 10
513.9485535709373
 20
66.91267479929155
 10
508.9486324384508
 20
75.57279223459557
  0
LWPOLYLINE
  5
C1
330
17
100
AcDbEntity
  8
frame
100
AcDbPolyline
 90
7
 70
0
 10
612.246866350672
 20
123.6652880584023
 10
585.3467086156451
 20
77.07284812971872
 10
575.346866350672
 20
77.07284812971872
 10
548.4467086156451
 20
123.6652880584023
 10
553.4466297481316
 20
132.32540549370628
 10
607.2469452181855
 20
132.32540549370628
 10
612.246866350672
 20
123.6652880584023
  0
LWPOLYLINE
  5
C2
330
17
100
AcDbEntity
  8
frame
100
AcDbPolyline
 90
7
 70
0
 10
548.4467086498041
 20
143.98546703388712
 10
575.3468663848311
 20
190.5779069625707
 10
585.3467086498041
 20
190.5779069625707
 10
612.246866384831
 20
143.98546703388712
 10
607.2469452523444
 20
135.3253495985831
 10
553.4466297822906
 20
135.3253495985831
 10
548.4467086498041
 20
143.98546703388712
  0
LWPOLYLINE
  5
C3
330
17
100
AcDbEntity
  8
frame
100
AcDbPolyline
 90
7
 70
0
 10
545.8486324042917
 20
145.4855229290103
 10
535.8487901393187
 20
145.4855229290103
 10
508.94863240429174
 20
192.07796285769388
 10
513.9485535367783
 20
200.73808029299786
 10
567.7488690068321
 20
200.73808029299786
 10
572.7487901393187
 20
192.07796285769385
 10
545.8486324042917
 20
145.4855229290103
  0
LWPOLYLINE
  5
C4
330
17
100
AcDbEntity
  8
frame
100
AcDbPolyline
 90
25
 70
0
 10
314.0563275930375
 20
255.99058176186225
 10
340.95648532806445
 20
209.3981418331787
 10
335.9565641955779
 20
200.73802439787468
 10
335.9565641403324
 20
199.73811479730824
 10
340.95648527281895
 20
191.07799736200423
 10
341.82251073184887
 20
190.5779069625707
 10
351.82235299682196
 20
190.5779069625707
 10
378.7225107318489
 20
143.98546703388712
 10
373.7225895993623
 20
135.32534959858313
 10
319.9222741293085
 20
135.32534959858313
 10
314.922352996822
 20
143.98546703388712
 10
314.056327537792
 20
144.48555743332068
 10
304.0564852728189
 20
144.48555743332068
 10
303.19045992428
 20
143.98546703388712
 10
298.1905387917935
 20
135.3253495985831
 10
244.39022332173963
 20
135.3253495985831
 10
239.39030218925308
 20
143.98546703388712
 10
266.29045992428
 20
190.5779069625707
 10
276.2903021892531
 20
190.5779069625707
 10
277.156327537792
 20
191.07799736200425
 10
282.15624867027856
 20
199.73811479730824
 10
282.15624872552405
 20
200.73802439787468
 10
277.15632759303753
 20
209.3981418331787
 10
304.05648532806447
 20
255.99058176186225
 10
314.0563275930375
 20
255.99058176186225
  0
LWPOLYLINE
  5
C5
330
17
100
AcDbEntity
  8
frame
100
AcDbPolyline
 90
25
 70
0
 10
458.58468855833996
 20
255.99058176186225
 10
468.584530823313
 20
255.99058176186225
 10
495.48468855833994
 20
209.3981418331787
 10
490.4847674258534
 20
200.73802439787468
 10
490.48476737060787
 20
199.73811479730824
 10
495.48468850309445
 20
191.07799736200423
 10
496.35071396212436
 20
190.5779069625707
 10
506.35055622709746
 20
190.5779069625707
 10
533.2507139621243
 20
143.98546703388712
 10
528.2507928296378
 20
135.32534959858313
 10
474.450477359584
 20
135.32534959858313
 10
469.4505562270975
 20
143.98546703388712
 10
468.5845307680675
 20
144.48555743332068
 10
458.5846885030944
 20
144.48555743332068
 10
457.7186631545555
 20
143.98546703388712
 10
452.71874202206897
 20
135.3253495985831
 10
398.91842655201515
 20
135.3253495985831
 10
393.91850541952857
 20
143.98546703388712
 10
420.8186631545555
 20
190.5779069625707
 10
430.8185054195286
 20
190.5779069625707
 10
431.6845307680675
 20
191.07799736200425
 10
436.68445190055405
 20
199.73811479730824
 10
436.68445195579955
 20
200.73802439787468
 10
431.684530823313
 20
209.3981418331787
 10
458.58468855833996
 20
255.99058176186225
  0
LWPOLYLINE
  5
C6
330
17
100
AcDbEntity
  8
frame
100
AcDbPolyline
 90
25
 70
0
 10
391.3204291740163
 20
145.4855229290103
 10
381.3205869090432
 20
145.4855229290103
 10
354.42042917401625
 20
192.07796285769388
 10
359.4203503065028
 20
200.73808029299786
 10
359.4203503617483
 20
201.7379898935643
 10
354.4204292292618
 20
210.39810732886832
 10
353.55440377023183
 20
210.89819772830185
 10
343.55456150525873
 20
210.89819772830185
 10
316.65440377023185
 20
257.4906376569854
 10
321.6543249027184
 20
266.15075509228944
 10
375.4546403727722
 20
266.15075509228944
 10
380.45456150525877
 20
257.4906376569854
 10
381.32058696428874
 20
256.9905472575519
 10
391.3204292292618
 20
256.9905472575519
 10
392.1864545778007
 20
257.4906376569854
 10
397.1863757102872
 20
266.15075509228944
 10
450.9866911803411
 20
266.15075509228944
 10
455.9866123128276
 20
257.4906376569854
 10
429.0864545778007
 20
210.89819772830185
 10
419.08661231282764
 20
210.89819772830185
 10
418.2205869642887
 20
210.39810732886832
 10
413.2206658318022
 20
201.7379898935643
 10
413.22066577655664
 20
200.73808029299786
 10
418.22058690904316
 20
192.07796285769385
 10
391.3204291740163
 20
145.4855229290103
  0
LWPOLYLINE
  5
C7
330
17
100
AcDbEntity
  8
frame
100
AcDbPolyline
 90
7
 70
0
 10
508.9486324595373
 20
210.39810732886832
 10
535.8487901945642
 20
256.9905472575519
 10
545.8486324595373
 20
256.9905472575519
 10
572.7487901945642
 20
210.39810732886832
 10
567.7488690620777
 20
201.7379898935643
 10
513.9485535920238
 20
201.7379898935643
 10
508.9486324595373
 20
210.39810732886832
  0
LWPOLYLINE
  5
C8
330
17
100
AcDbEntity
  8
frame
100
AcDbPolyline
 90
7
 70
0
 10
508.0826070005073
 20
210.89819772830185
 10
498.0827647355342
 20
210.89819772830185
 10
471.18260700050735
 20
257.4906376569854
 10
476.18252813299387
 20
266.15075509228944
 10
529.9828436030477
 20
266.15075509228944
 10
534.9827647355343
 20
257.4906376569854
 10
508.0826070005073
 20
210.89819772830185
  0
LWPOLYLINE
  5
C9
330
17
100
AcDbEntity
  8
frame
100
AcDbPolyline
 90
7
 70
0
 10
498.08276476969326
 20
324.4032565611538
 10
508.08260703466635
 20
324.4032565611538
 10
534.9827647696933
 20
277.8108166324702
 10
529.9828436372068
 20
269.1506991971662
 10
476.1825281671529
 20
269.1506991971662
 10
471.1826070346663
 20
277.8108166324702
 10
498.08276476969326
 20
324.4032565611538
  0
LWPOLYLINE
  5
CA
330
17
100
AcDbEntity
  8
frame
100
AcDbPolyline
 90
7
 70
0
 10
495.4846885241809
 20
325.903312456277
 10
468.58453078915403
 20
279.31087252759346
 10
458.58468852418093
 20
279.31087252759346
 10
431.684530789154
 20
325.903312456277
 10
436.6844519216406
 20
334.563429891581
 10
490.4847673916944
 20
334.563429891581
 10
495.4846885241809
 20
325.903312456277
  0
LWPOLYLINE
  5
CB
330
17
100
AcDbEntity
  8
frame
100
AcDbPolyline
 90
25
 70
0
 10
381.3205869432022
 20
389.81593136044535
 10
391.32042920817526
 20
389.81593136044535
 10
418.2205869432022
 20
343.2234914317618
 10
413.2206658107157
 20
334.5633739964578
 10
413.2206657554701
 20
333.56346439589134
 10
418.2205868879567
 20
324.9033469605873
 10
419.0866123469866
 20
324.4032565611538
 10
429.0864546119597
 20
324.4032565611538
 10
455.98661234698665
 20
277.8108166324702
 10
450.98669121450007
 20
269.1506991971662
 10
397.18637574444625
 20
269.1506991971662
 10
392.18645461195973
 20
277.8108166324702
 10
391.32042915292976
 20
278.31090703190375
 10
381.32058688795667
 20
278.31090703190375
 10
380.45456153941774
 20
277.8108166324702
 10
375.4546404069312
 20
269.1506991971662
 10
321.6543249368774
 20
269.1506991971662
 10
316.6544038043908
 20
277.8108166324702
 10
343.55456153941776
 20
324.4032565611538
 10
353.55440380439086
 20
324.4032565611538
 10
354.4204291529297
 20
324.9033469605873
 10
359.4203502854163
 20
333.56346439589134
 10
359.4203503406618
 20
334.5633739964578
 10
354.4204292081753
 20
343.2234914317618
 10
381.3205869432022
 20
389.81593136044535
  0
LWPOLYLINE
  5
CC
330
17
100
AcDbEntity
  8
frame
100
AcDbPolyline
 90
7
 70
0
 10
431.68453084439955
 20
344.2234569274514
 10
458.5846885794265
 20
390.815896856135
 10
468.5845308443995
 20
390.815896856135
 10
495.48468857942646
 20
344.2234569274514
 10
490.48476744693994
 20
335.56333949214746
 10
436.68445197688607
 20
335.56333949214746
 10
431.68453084439955
 20
344.2234569274514
  0
LWPOLYLINE
  5
CD
330
17
100
AcDbEntity
  8
frame
100
AcDbPolyline
 90
7
 70
0
 10
430.8185053853696
 20
344.723547326885
 10
420.8186631203965
 20
344.723547326885
 10
393.9185053853696
 20
391.31598725556853
 10
398.9184265178561
 20
399.97610469087255
 10
452.71874198790994
 20
399.97610469087255
 10
457.7186631203965
 20
391.31598725556853
 10
430.8185053853696
 20
344.723547326885
  0
LWPOLYLINE
  5
CE
330
17
100
AcDbEntity
  8
frame
100
AcDbPolyline
 90
25
 70
0
 10
314.0563275930375
 20
523.6412809590284
 10
340.95648532806445
 20
477.0488410303448
 10
335.9565641955779
 20
468.38872359504086
 10
335.9565641403324
 20
467.3888139944744
 10
340.95648527281895
 20
458.7286965591704
 10
341.82251073184887
 20
458.22860615973684
 10
351.82235299682196
 20
458.22860615973684
 10
378.7225107318489
 20
411.63616623105327
 10
373.7225895993623
 20
402.9760487957493
 10
319.9222741293085
 20
402.9760487957493
 10
314.922352996822
 20
411.63616623105327
 10
314.056327537792
 20
412.1362566304868
 10
304.0564852728189
 20
412.1362566304868
 10
303.19045992428
 20
411.63616623105327
 10
298.1905387917935
 20
402.97604879574925
 10
244.39022332173963
 20
402.97604879574925
 10
239.39030218925308
 20
411.63616623105327
 10
266.29045992428
 20
458.22860615973684
 10
276.2903021892531
 20
458.22860615973684
 10
277.156327537792
 20
458.7286965591704
 10
282.15624867027856
 20
467.3888139944744
 10
282.15624872552405
 20
468.38872359504086
 10
277.15632759303753
 20
477.0488410303449
 10
304.05648532806447
 20
523.6412809590284
 10
314.0563275930375
 20
523.6412809590284
  0
ENDSEC
  0
SECTION
  2
OBJECTS
  0
DICTIONARY
  5
A
330
0
100
AcDbDictionary
280
0
281
1
  3
ACAD_COLOR
350
B
  3
ACAD_GROUP
350
C
  3
ACAD_LAYOUT
350
D
  3
ACAD_MATERIAL
350
E
  3
ACAD_MLEADERSTYLE
350
F
  3
ACAD_MLINESTYLE
350
10
  3
ACAD_PLOTSETTINGS
350
11
  3
ACAD_PLOTSTYLENAME
350
12
  3
ACAD_SCALELIST
350
14
  3
ACAD_TABLESTYLE
350
15
  3
ACAD_VISUALSTYLE
350
16
  3
EZDXF_META
350
2D
  0
DICTIONARY
  5
B
330
A
100
AcDbDictionary
280
0
281
1
  0
DICTIONARY
  5
C
330
A
100
AcDbDictionary
280
0
281
1
  0
DICTIONARY
  5
D
330
A
100
AcDbDictionary
280
0
281
1
  3
Model
350
1A
  3
Layout1
350
1E
  0
DICTIONARY
  5
E
330
A
100
AcDbDictionary
280
0
281
1
  3
ByBlock
350
1F
  3
ByLayer
350
20
  3
Global
350
21
  0
DICTIONARY
  5
F
330
A
100
AcDbDictionary
280
0
281
1
  3
Standard
350
2C
  0
DICTIONARY
  5
10
330
A
100
AcDbDictionary
280
0
281
1
  3
Standard
350
22
  0
DICTIONARY
  5
11
330
A
100
AcDbDictionary
280
0
281
1
  0
ACDBDICTIONARYWDFLT
  5
12
330
A
100
AcDbDictionary
280
0
281
1
  3
Normal
350
13
100
AcDbDictionaryWithDefault
340
13
  0
ACDBPLACEHOLDER
  5
13
330
12
  0
DICTIONARY
  5
14
330
A
100
AcDbDictionary
280
0
281
1
  0
DICTIONARY
  5
15
330
A
100
AcDbDictionary
280
0
281
1
  0
DICTIONARY
  5
16
330
A
100
AcDbDictionary
280
0
281
1
  0
LAYOUT
  5
1A
330
D
100
AcDbPlotSettings
  1

  2
Adobe PDF
  4
A3
  6

 40
7.5
 41
20.0
 42
7.5
 43
20.0
 44
420.0
 45
297.0
 46
0.0
 47
0.0
 48
0.0
 49
0.0
140
0.0
141
0.0
142
1.0
143
1.0
 70
1024
 72
1
 73
0
 74
5
  7

 75
16
 76
0
 77
2
 78
300
147
1.0
148
0.0
149
0.0
100
AcDbLayout
  1
Model
 70
1
 71
0
 10
0.0
 20
0.0
 11
420.0
 21
297.0
 12
0.0
 22
0.0
 32
0.0
 14
1e+20
 24
1e+20
 34
1e+20
 15
-1e+20
 25
-1e+20
 35
-1e+20
146
0.0
 13
0.0
 23
0.0
 33
0.0
 16
1.0
 26
0.0
 36
0.0
 17
0.0
 27
1.0
 37
0.0
 76
1
330
17
  0
LAYOUT
  5
1E
330
D
100
AcDbPlotSettings
  1

  2
Adobe PDF
  4
A3
  6

 40
7.5
 41
20.0
 42
7.5
 43
20.0
 44
420.0
 45
297.0
 46
0.0
 47
0.0
 48
0.0
 49
0.0
140
0.0
141
0.0
142
1.0
143
1.0
 70
0
 72
1
 73
0
 74
5
  7

 75
16
 76
0
 77
2
 78
300
147
1.0
148
0.0
149
0.0
100
AcDbLayout
  1
Layout1
 70
1
 71
1
 10
0.0
 20
0.0
 11
420.0
 21
297.0
 12
0.0
 22
0.0
 32
0.0
 14
1e+20
 24
1e+20
 34
1e+20
 15
-1e+20
 25
-1e+20
 35
-1e+20
146
0.0
 13
0.0
 23
0.0
 33
0.0
 16
1.0
 26
0.0
 36
0.0
 17
0.0
 27
1.0
 37
0.0
 76
1
330
1B
  0
MATERIAL
  5
1F
102
{ACAD_REACTORS
330
E
102
}
330
E
100
AcDbMaterial
  1
ByBlock
  2

 70
0
 40
1.0
 71
1
 41
1.0
 91
-1023410177
 42
1.0
 72
1
  3

 73
1
 74
1
 75
1
 44
0.5
 73
0
 45
1.0
 46
1.0
 77
1
  4

 78
1
 79
1
170
1
 48
1.0
171
1
  6

172
1
173
1
174
1
140
1.0
141
1.0
175
1
  7

176
1
177
1
178
1
143
1.0
179
1
  8

270
1
271
1
272
1
145
1.0
146
1.0
273
1
  9

274
1
275
1
276
1
 42
1.0
 72
1
  3

 73
1
 74
1
 75
1
 94
63
  0
MATERIAL
  5
20
102
{ACAD_REACTORS
330
E
102
}
330
E
100
AcDbMaterial
  1
ByLayer
  2

 70
0
 40
1.0
 71
1
 41
1.0
 91
-1023410177
 42
1.0
 72
1
  3

 73
1
 74
1
 75
1
 44
0.5
 73
0
 45
1.0
 46
1.0
 77
1
  4

 78
1
 79
1
170
1
 48
1.0
171
1
  6

172
1
173
1
174
1
140
1.0
141
1.0
175
1
  7

176
1
177
1
178
1
143
1.0
179
1
  8

270
1
271
1
272
1
145
1.0
146
1.0
273
1
  9

274
1
275
1
276
1
 42
1.0
 72
1
  3

 73
1
 74
1
 75
1
 94
63
  0
MATERIAL
  5
21
102
{ACAD_REACTORS
330
E
102
}
330
E
100
AcDbMaterial
  1
Global
  2

 70
0
 40
1.0
 71
1
 41
1.0
 91
-1023410177
 42
1.0
 72
1
  3

 73
1
 74
1
 75
1
 44
0.5
 73
0
 45
1.0
 46
1.0
 77
1
  4

 78
1
 79
1
170
1
 48
1.0
171
1
  6

172
1
173
1
174
1
140
1.0
141
1.0
175
1
  7

176
1
177
1
178
1
143
1.0
179
1
  8

270
1
271
1
272
1
145
1.0
146
1.0
273
1
  9

274
1
275
1
276
1
 42
1.0
 72
1
  3

 73
1
 74
1
 75
1
 94
63
  0
MLINESTYLE
  5
22
102
{ACAD_REACTORS
330
10
102
}
330
10
100
AcDbMlineStyle
  2
Standard
 70
0
  3

 62
256
 51
90.0
 52
90.0
 71
2
 49
0.5
 62
256
  6
BYLAYER
 49
-0.5
 62
256
  6
BYLAYER
  0
MLEADERSTYLE
  5
2C
102
{ACAD_REACTORS
330
F
102
}
330
F
100
AcDbMLeaderStyle
179
2
170
2
171
1
172
0
 90
2
 40
0.0
 41
0.0
173
1
 91
-1056964608
 92
-2
290
1
 42
2.0
291
1
 43
8.0
  3
Standard
 44
4.0
300

342
29
174
1
175
1
176
0
178
1
 93
-1056964608
 45
4.0
292
0
297
0
 46
4.0
 94
-1056964608
 47
1.0
 49
1.0
140
1.0
294
1
141
0.0
177
0
142
1.0
295
0
296
0
143
3.75
271
0
272
9
273
9
  0
DICTIONARY
  5
2D
330
A
100
AcDbDictionary
281
1
  3
CREATED_BY_EZDXF
350
2E
  3
WRITTEN_BY_EZDXF
350
D1
  0
DICTIONARYVAR
  5
2E
330
2D
100
DictionaryVariables
280
0
  1
1.0.3 @ 2023-10-20T09:40:03.593759+00:00
  0
DICTIONARYVAR
  5
D1
330
2D
100
DictionaryVariables
280
0
  1
1.0.3 @ 2023-10-20T09:40:03.649745+00:00
  0
ENDSEC
  0
EOF
